{"glyphs":{"0":{"ha":972,"x_min":0,"x_max":0,"o":"m 486 1097 b 894 542 761 1097 894 835 b 486 -14 894 249 761 -14 b 76 542 211 -14 76 249 b 486 1097 76 835 211 1097 m 486 1035 b 201 542 267 1035 201 765 b 486 49 201 318 267 49 b 769 542 704 49 769 318 b 486 1035 769 765 704 1035 "},"1":{"ha":972,"x_min":0,"x_max":0,"o":"m 572 1097 l 572 160 b 847 50 572 67 681 60 l 847 0 l 179 0 l 179 50 b 454 160 346 60 454 67 l 454 925 l 179 925 l 179 956 l 258 967 b 557 1097 419 988 469 994 "},"2":{"ha":972,"x_min":0,"x_max":0,"o":"m 511 92 b 813 256 649 92 738 110 l 850 256 l 779 0 l 71 0 l 71 14 l 332 293 b 631 767 557 533 631 632 b 403 997 631 914 550 997 b 122 842 276 997 193 922 l 92 867 b 440 1097 153 979 269 1097 b 760 801 650 1097 760 967 b 226 92 760 565 472 350 "},"3":{"ha":972,"x_min":0,"x_max":0,"o":"m 508 599 b 843 315 711 583 843 471 b 461 -14 843 111 675 -14 b 90 196 221 -14 90 92 b 157 294 90 247 114 279 l 219 294 l 219 253 b 464 43 219 117 315 43 b 718 285 626 43 718 131 b 376 532 718 456 565 532 l 292 532 l 283 574 b 639 846 464 614 639 668 b 447 1008 639 956 558 1008 b 204 896 339 1008 263 960 l 172 919 b 481 1097 228 1033 346 1097 b 768 861 657 1097 768 1007 b 508 599 768 721 619 625 "},"4":{"ha":972,"x_min":0,"x_max":0,"o":"m 594 278 l 51 278 l 51 324 l 675 1083 l 707 1083 l 707 342 l 899 342 l 899 278 l 707 278 l 707 161 b 875 46 707 64 771 50 l 875 0 l 425 0 l 425 46 b 594 161 529 50 594 64 m 594 342 l 594 882 l 146 342 "},"5":{"ha":972,"x_min":0,"x_max":0,"o":"m 464 -14 b 106 196 226 -14 106 92 b 174 294 106 247 132 279 l 235 294 l 235 253 b 467 43 235 117 321 43 b 713 290 624 43 713 139 b 204 606 713 519 472 603 l 282 1083 l 596 1083 b 743 1164 672 1083 713 1099 l 793 1164 l 735 979 l 326 979 l 282 703 b 824 325 571 683 824 578 b 464 -14 824 133 682 -14 "},"6":{"ha":972,"x_min":0,"x_max":0,"o":"m 724 1054 b 261 550 469 960 301 779 b 547 679 308 614 424 679 b 860 363 729 679 860 556 b 507 -14 860 140 717 -14 b 129 428 267 -14 129 194 b 688 1097 129 754 367 1007 m 501 589 b 256 499 397 589 306 549 b 251 408 251 476 251 435 b 507 51 251 178 369 51 b 746 319 660 51 746 154 b 501 589 746 481 661 589 "},"7":{"ha":972,"x_min":0,"x_max":0,"o":"m 306 978 b 165 879 233 978 201 954 l 117 879 l 182 1083 l 885 1083 l 885 1050 l 421 0 l 307 0 l 800 978 "},"8":{"ha":972,"x_min":0,"x_max":0,"o":"m 796 836 b 586 575 796 706 686 613 l 646 542 b 836 275 750 483 836 406 b 485 -14 836 131 739 -14 b 136 283 281 -14 136 113 b 379 567 136 422 239 514 l 354 579 b 178 846 254 629 178 701 b 486 1097 178 972 282 1097 b 796 836 674 1097 796 992 m 544 597 b 688 843 656 671 688 733 b 486 1036 688 963 600 1036 b 285 854 360 1036 285 964 b 435 654 285 753 339 704 m 424 544 b 253 275 286 453 253 392 b 485 44 253 142 339 44 b 726 264 629 44 726 136 b 572 465 726 375 658 419 "},"9":{"ha":972,"x_min":0,"x_max":0,"o":"m 229 29 b 692 533 483 124 651 304 b 406 404 644 469 529 404 b 93 721 224 404 93 528 b 446 1097 93 943 236 1097 b 824 656 686 1097 824 889 b 265 -14 824 329 586 76 m 451 494 b 697 585 556 494 647 535 b 701 675 701 607 701 649 b 446 1032 701 906 583 1032 b 207 764 293 1032 207 929 b 451 494 207 603 292 494 "}," ":{"ha":368,"x_min":0,"x_max":0,"o":""},"!":{"ha":438,"x_min":0,"x_max":0,"o":"m 293 1019 l 265 614 b 246 274 257 486 247 361 l 193 274 b 174 614 192 361 182 486 l 146 1019 l 146 1083 l 293 1083 m 131 74 b 218 163 131 122 169 163 b 307 74 267 163 307 122 b 218 -14 307 25 267 -14 b 131 74 169 -14 131 25 "},"\"":{"ha":463,"x_min":0,"x_max":0,"o":"m 96 728 l 60 1083 l 192 1083 l 156 728 m 307 728 l 271 1083 l 403 1083 l 367 728 "},"#":{"ha":889,"x_min":0,"x_max":0,"o":"m 676 757 l 833 757 l 833 699 l 664 699 l 600 393 l 771 393 l 771 335 l 588 335 l 517 0 l 456 0 l 526 335 l 269 335 l 199 0 l 138 0 l 208 335 l 56 335 l 56 393 l 221 393 l 285 699 l 118 699 l 118 757 l 297 757 l 367 1083 l 428 1083 l 358 757 l 615 757 l 685 1083 l 746 1083 m 282 393 l 539 393 l 603 699 l 346 699 "},"%":{"ha":1328,"x_min":0,"x_max":0,"o":"m 69 810 b 326 1097 69 1001 175 1097 b 583 810 478 1097 583 1001 b 326 522 583 618 478 522 b 69 810 175 522 69 618 m 343 0 l 267 0 l 985 1083 l 1061 1083 m 483 810 b 326 1039 483 950 438 1039 b 169 810 215 1039 169 950 b 326 581 169 669 215 581 b 483 810 438 581 483 669 m 1258 274 b 1001 -14 1258 82 1153 -14 b 744 274 850 -14 744 82 b 1001 561 744 465 850 561 b 1258 274 1153 561 1258 465 m 844 274 b 1001 44 844 133 890 44 b 1158 274 1113 44 1158 133 b 1001 503 1158 414 1113 503 b 844 274 890 503 844 414 "},"&":{"ha":1113,"x_min":0,"x_max":0,"o":"m 901 464 b 826 242 889 390 864 311 l 949 128 b 1106 40 1006 74 1035 47 l 1106 0 l 940 0 b 767 150 888 28 849 65 b 413 -14 688 54 568 -14 b 44 288 243 -14 44 61 b 301 590 44 444 153 522 b 172 835 243 646 172 726 b 451 1097 172 1006 297 1097 b 728 871 632 1097 728 997 b 449 594 728 718 601 661 l 778 286 b 821 472 806 344 821 408 b 651 578 821 560 756 574 l 651 626 l 1069 626 l 1069 578 b 901 464 965 574 917 558 m 281 863 b 411 631 281 751 356 683 b 615 876 549 686 615 750 b 453 1040 615 979 550 1040 b 281 863 343 1040 281 961 m 435 61 b 721 190 574 61 646 106 l 336 554 b 168 294 218 493 168 417 b 435 61 168 154 289 61 "},"'":{"ha":251,"x_min":0,"x_max":0,"o":"m 96 728 l 60 1083 l 192 1083 l 156 728 "},"(":{"ha":535,"x_min":0,"x_max":0,"o":"m 115 486 b 415 1153 115 764 213 974 l 464 1115 b 183 486 286 942 183 788 b 464 -143 183 185 286 31 l 415 -181 b 115 486 213 -1 115 208 "},")":{"ha":535,"x_min":0,"x_max":0,"o":"m 419 486 b 119 -181 419 208 322 -1 l 71 -143 b 351 486 249 31 351 185 b 71 1115 351 788 249 942 l 119 1153 b 419 486 322 974 419 764 "},"*":{"ha":518,"x_min":0,"x_max":0,"o":"m 35 951 l 224 896 l 232 1097 l 285 1097 l 293 896 l 482 951 l 499 908 l 313 842 l 424 674 l 381 649 l 260 808 l 138 647 l 94 674 l 206 840 l 19 907 "},"+":{"ha":972,"x_min":0,"x_max":0,"o":"m 447 361 l 111 361 l 111 432 l 447 432 l 447 771 l 525 771 l 525 432 l 861 432 l 861 361 l 525 361 l 525 21 l 447 21 "},",":{"ha":438,"x_min":0,"x_max":0,"o":"m 193 -6 b 131 76 156 4 131 33 b 219 163 131 128 168 163 b 322 28 292 163 322 92 b 86 -212 322 -75 253 -196 l 86 -164 b 244 -6 204 -136 244 -72 "},"-":{"ha":483,"x_min":0,"x_max":0,"o":"m 69 429 l 69 510 l 414 510 l 414 429 "},".":{"ha":438,"x_min":0,"x_max":0,"o":"m 131 74 b 218 163 131 122 169 163 b 307 74 267 163 307 122 b 218 -14 307 25 267 -14 b 131 74 169 -14 131 25 "},"/":{"ha":521,"x_min":0,"x_max":0,"o":"m 85 -168 l 7 -168 l 410 1153 l 488 1153 "},":":{"ha":438,"x_min":0,"x_max":0,"o":"m 131 521 b 218 610 131 569 169 610 b 307 521 267 610 307 569 b 218 433 307 472 267 433 b 131 521 169 433 131 472 m 131 74 b 218 163 131 122 169 163 b 307 74 267 163 307 122 b 218 -14 307 25 267 -14 b 131 74 169 -14 131 25 "},";":{"ha":438,"x_min":0,"x_max":0,"o":"m 131 521 b 218 610 131 569 169 610 b 307 521 267 610 307 569 b 218 433 307 472 267 433 b 131 521 169 433 131 472 m 192 -6 b 129 76 154 4 129 33 b 218 160 129 128 167 160 b 321 28 290 160 321 92 b 85 -212 321 -75 251 -196 l 85 -164 b 243 -6 203 -136 243 -72 "},"<":{"ha":972,"x_min":0,"x_max":0,"o":"m 376 303 l 861 90 l 861 14 l 111 353 l 111 440 l 861 779 l 861 703 l 158 396 "},"=":{"ha":972,"x_min":0,"x_max":0,"o":"m 111 442 l 111 511 l 861 511 l 861 442 m 111 239 l 111 308 l 861 308 l 861 239 "},">":{"ha":972,"x_min":0,"x_max":0,"o":"m 814 396 l 111 703 l 111 779 l 861 440 l 861 353 l 111 14 l 111 90 l 596 303 "},"?":{"ha":660,"x_min":0,"x_max":0,"o":"m 501 869 b 324 1038 501 971 432 1038 b 165 874 222 1038 165 968 l 165 831 l 75 831 b 47 904 57 849 47 874 b 317 1097 47 1015 169 1097 b 614 833 490 1097 614 1013 b 425 540 614 704 543 638 b 308 347 346 475 308 426 l 308 274 l 275 274 b 233 401 258 301 233 344 b 371 631 233 493 278 551 b 501 869 443 693 501 750 m 204 74 b 292 163 204 122 243 163 b 381 74 340 163 381 122 b 292 -14 381 25 340 -14 b 204 74 243 -14 204 25 "},"@":{"ha":1539,"x_min":0,"x_max":0,"o":"m 1025 128 b 1357 560 1213 128 1357 307 b 828 1086 1357 874 1179 1086 b 188 378 454 1086 188 768 b 769 -232 188 19 426 -232 b 1246 -100 953 -232 1099 -194 l 1268 -144 b 769 -297 1158 -233 963 -297 b 83 378 354 -297 83 -22 b 828 1147 83 797 408 1147 b 1456 560 1213 1147 1456 914 b 1000 74 1456 269 1272 74 b 886 153 925 74 886 103 b 940 417 886 193 925 342 l 935 417 b 850 254 911 367 903 325 b 599 74 746 114 679 74 b 449 283 492 74 449 161 b 864 778 449 539 636 778 b 999 704 943 778 986 738 l 1090 788 l 1125 788 l 1078 646 b 993 167 1038 485 993 236 b 1025 128 993 142 1003 128 m 625 136 b 806 272 676 136 725 167 b 965 653 897 392 963 565 b 864 718 947 699 914 718 b 554 283 685 718 556 507 b 625 136 554 200 569 136 "},"A":{"ha":1136,"x_min":0,"x_max":0,"o":"m 789 361 l 299 361 l 221 176 b 204 114 211 153 204 132 b 363 46 204 67 249 50 l 363 0 l 14 0 l 14 46 b 111 103 58 53 93 61 l 503 1013 l 461 1101 l 593 1101 l 1025 103 b 1122 46 1043 61 1078 53 l 1122 0 l 729 0 l 729 46 b 886 113 843 50 886 65 b 869 175 886 131 879 151 m 325 424 l 763 424 l 543 938 "},"B":{"ha":1093,"x_min":0,"x_max":0,"o":"m 64 46 b 236 161 168 50 236 64 l 236 922 b 64 1038 236 1019 168 1033 l 64 1083 l 556 1083 b 938 813 808 1083 938 993 b 671 560 938 656 817 578 b 996 292 885 549 996 438 b 601 0 996 122 853 0 l 64 0 m 349 1022 l 349 586 l 535 586 b 817 803 728 586 817 653 b 536 1022 817 938 735 1022 m 349 525 l 349 164 b 514 60 349 81 394 60 l 589 60 b 872 290 788 60 872 124 b 575 525 872 431 782 525 "},"C":{"ha":1136,"x_min":0,"x_max":0,"o":"m 675 51 b 1056 322 889 51 974 139 l 1089 322 l 1057 67 b 661 -14 946 17 818 -14 b 78 521 282 -14 78 236 b 653 1097 78 875 331 1097 b 1032 1011 813 1097 938 1065 l 1042 783 l 1011 783 b 649 1022 946 960 824 1022 b 194 556 356 1022 194 840 b 675 51 194 310 365 51 "},"D":{"ha":1278,"x_min":0,"x_max":0,"o":"m 621 1083 b 1200 572 1026 1083 1200 836 b 651 0 1200 201 943 0 l 64 0 l 64 46 b 236 161 168 50 236 64 l 236 922 b 64 1038 236 1019 168 1033 l 64 1083 m 349 1022 l 349 169 b 519 61 349 79 401 61 l 650 61 b 1075 522 876 61 1075 217 b 592 1022 1075 794 947 1022 "},"E":{"ha":1126,"x_min":0,"x_max":0,"o":"m 807 376 b 693 521 790 469 763 521 l 349 521 l 349 165 b 519 61 349 82 399 61 l 735 61 b 1001 263 881 61 900 99 l 1035 263 l 986 0 l 64 0 l 64 46 b 236 161 168 50 236 64 l 236 922 b 64 1038 236 1019 168 1033 l 64 1083 l 979 1083 l 983 839 l 957 839 b 726 1022 899 976 853 1022 l 349 1022 l 349 582 l 693 582 b 807 728 763 582 790 635 l 846 728 l 846 376 "},"F":{"ha":1040,"x_min":0,"x_max":0,"o":"m 64 0 l 64 46 b 236 161 168 50 236 64 l 236 922 b 64 1038 236 1019 168 1033 l 64 1083 l 967 1083 l 971 839 l 944 839 b 714 1022 886 976 840 1022 l 349 1022 l 349 549 l 665 549 b 779 694 735 549 763 601 l 818 694 l 818 343 l 779 343 b 665 488 763 436 735 488 l 349 488 l 349 161 b 558 46 349 64 436 53 l 558 0 "},"G":{"ha":1257,"x_min":0,"x_max":0,"o":"m 78 521 b 653 1097 78 875 331 1097 b 1032 1011 813 1097 938 1065 l 1042 783 l 1011 783 b 649 1022 946 960 824 1022 b 194 556 356 1022 194 840 b 669 51 194 304 369 51 b 967 157 824 51 917 93 l 967 365 b 797 476 967 463 901 472 l 797 521 l 1240 521 l 1240 476 b 1071 365 1136 472 1071 463 l 1071 97 b 657 -14 965 25 829 -14 b 78 521 279 -14 78 244 "},"H":{"ha":1365,"x_min":0,"x_max":0,"o":"m 1017 519 l 349 519 l 349 161 b 521 46 349 64 417 50 l 521 0 l 64 0 l 64 46 b 236 161 168 50 236 64 l 236 922 b 64 1038 236 1019 168 1033 l 64 1083 l 521 1083 l 521 1038 b 349 922 417 1033 349 1019 l 349 582 l 1017 582 l 1017 922 b 844 1038 1017 1019 949 1033 l 844 1083 l 1301 1083 l 1301 1038 b 1129 922 1197 1033 1129 1019 l 1129 161 b 1301 46 1129 64 1197 50 l 1301 0 l 844 0 l 844 46 b 1017 161 949 50 1017 64 "},"J":{"ha":768,"x_min":0,"x_max":0,"o":"m 569 301 b 271 -14 569 83 460 -14 b -4 158 108 -14 -4 46 b 31 238 -4 194 11 222 l 124 238 l 124 194 b 285 39 124 82 185 39 b 457 278 385 39 457 103 l 457 922 b 285 1038 457 1019 389 1033 l 285 1083 l 742 1083 l 742 1038 b 569 922 638 1033 569 1019 "},"K":{"ha":1142,"x_min":0,"x_max":0,"o":"m 236 922 b 64 1038 236 1019 168 1033 l 64 1083 l 521 1083 l 521 1038 b 349 922 417 1033 349 1019 l 349 161 b 521 46 349 64 417 50 l 521 0 l 64 0 l 64 46 b 236 161 168 50 236 64 m 942 140 b 1135 46 1006 78 1064 53 l 1135 0 l 957 0 b 794 125 904 26 857 63 l 361 551 l 825 942 b 860 993 846 958 860 974 b 724 1038 860 1025 840 1028 l 724 1083 l 1114 1083 l 1114 1038 b 929 947 1036 1038 997 1004 l 489 578 "},"L":{"ha":1051,"x_min":0,"x_max":0,"o":"m 349 165 b 519 61 349 82 399 61 l 708 61 b 968 282 856 61 892 139 l 1000 282 l 950 0 l 64 0 l 64 46 b 236 161 168 50 236 64 l 236 922 b 64 1038 236 1019 168 1033 l 64 1083 l 521 1083 l 521 1038 b 349 922 417 1033 349 1019 "},"M":{"ha":1513,"x_min":0,"x_max":0,"o":"m 1131 875 l 765 0 l 732 0 l 339 882 l 254 182 b 251 144 253 171 251 150 b 401 46 251 69 290 51 l 401 0 l 44 0 l 44 46 b 176 139 133 50 167 67 l 275 925 b 143 1038 275 1007 247 1033 l 143 1083 l 392 1083 b 414 1001 394 1049 401 1029 l 774 188 l 1108 1001 b 1129 1083 1119 1029 1126 1049 l 1369 1083 l 1369 1038 b 1238 925 1265 1033 1238 1007 l 1336 139 b 1468 46 1346 67 1379 50 l 1468 0 l 1069 0 l 1069 46 b 1219 144 1181 51 1219 69 b 1217 182 1219 150 1218 171 "},"N":{"ha":1356,"x_min":0,"x_max":0,"o":"m 235 946 b 64 1038 168 1025 146 1038 l 64 1083 l 289 1083 l 1063 189 l 1063 922 b 897 1038 1063 1019 1001 1033 l 897 1083 l 1306 1083 l 1306 1038 b 1136 922 1201 1033 1136 1019 l 1136 0 l 1085 0 l 308 889 l 308 161 b 474 46 308 64 369 50 l 474 0 l 64 0 l 64 46 b 235 161 168 50 235 64 "},"O":{"ha":1256,"x_min":0,"x_max":0,"o":"m 613 -14 b 78 521 285 -14 78 240 b 643 1097 78 875 328 1097 b 1178 563 971 1097 1178 843 b 613 -14 1178 208 928 -14 m 661 69 b 1063 504 917 69 1063 265 b 594 1014 1063 786 908 1014 b 193 579 339 1014 193 818 b 661 69 193 297 347 69 "},"P":{"ha":1013,"x_min":0,"x_max":0,"o":"m 349 467 l 349 161 b 558 46 349 64 436 53 l 558 0 l 64 0 l 64 46 b 236 161 168 50 236 64 l 236 922 b 64 1038 236 1019 168 1033 l 64 1083 l 565 1083 b 971 783 865 1083 971 933 b 599 467 971 614 858 467 m 349 528 l 551 528 b 846 775 758 528 846 599 b 554 1022 846 928 757 1022 l 349 1022 "},"Q":{"ha":1256,"x_min":0,"x_max":0,"o":"m 599 -12 b 78 521 279 -6 78 244 b 643 1097 78 875 328 1097 b 1178 563 971 1097 1178 843 b 721 -4 1178 250 983 40 l 981 -179 b 1160 -233 1040 -219 1096 -233 l 1200 -233 l 1200 -264 b 1063 -307 1174 -281 1124 -307 b 849 -225 981 -307 911 -278 m 661 69 b 1063 504 917 69 1063 265 b 594 1014 1063 786 908 1014 b 193 579 339 1014 193 818 b 661 69 193 297 347 69 "},"R":{"ha":1174,"x_min":0,"x_max":0,"o":"m 550 1083 b 957 789 875 1083 957 926 b 596 507 957 611 792 507 b 749 399 643 493 699 454 l 996 125 b 1167 46 1044 71 1097 50 l 1167 0 l 993 0 b 854 113 939 24 906 57 l 586 407 b 400 499 513 486 465 499 l 349 499 l 349 161 b 521 46 349 64 417 50 l 521 0 l 64 0 l 64 46 b 236 161 168 50 236 64 l 236 922 b 64 1038 236 1019 168 1033 l 64 1083 m 349 1022 l 349 558 l 533 558 b 832 785 757 558 832 633 b 533 1022 832 925 753 1022 "},"S":{"ha":882,"x_min":0,"x_max":0,"o":"m 414 -14 b 88 78 286 -14 156 21 l 78 338 l 115 338 b 424 50 156 150 264 50 b 689 264 590 50 689 131 b 483 485 689 383 614 438 l 326 542 b 92 819 201 588 92 658 b 429 1097 92 979 211 1097 b 746 1001 557 1097 672 1061 l 746 769 l 707 769 b 415 1033 665 965 582 1033 b 194 842 278 1033 194 956 b 365 644 194 725 258 685 l 540 579 b 794 282 692 524 794 446 b 414 -14 794 99 642 -14 "},"T":{"ha":1132,"x_min":0,"x_max":0,"o":"m 1050 1083 l 1075 811 l 1042 811 b 782 1024 961 978 942 1024 l 621 1024 l 621 161 b 794 46 621 64 690 50 l 794 0 l 336 0 l 336 46 b 510 161 440 50 510 64 l 510 1024 l 350 1024 b 90 811 190 1024 171 978 l 57 811 l 81 1083 "},"U":{"ha":1217,"x_min":0,"x_max":0,"o":"m 299 396 b 610 67 299 178 425 67 b 960 400 840 67 960 178 l 960 922 b 794 1038 960 1019 899 1033 l 794 1083 l 1203 1083 l 1203 1038 b 1033 922 1099 1033 1033 1019 l 1033 368 b 610 -14 1033 118 839 -14 b 186 371 358 -14 186 111 l 186 922 b 14 1038 186 1019 118 1033 l 14 1083 l 471 1083 l 471 1038 b 299 922 367 1033 299 1019 "},"V":{"ha":1122,"x_min":0,"x_max":0,"o":"m 903 907 b 919 969 913 931 919 951 b 761 1038 919 1017 875 1033 l 761 1083 l 1108 1083 l 1108 1038 b 1011 981 1064 1031 1029 1022 l 594 -17 l 558 -17 l 111 981 b 14 1038 92 1022 58 1031 l 14 1083 l 401 1083 l 401 1038 b 246 971 288 1033 246 1018 b 263 908 246 953 251 933 l 599 161 "},"W":{"ha":1594,"x_min":0,"x_max":0,"o":"m 1378 903 b 1396 969 1388 932 1396 951 b 1238 1038 1396 1017 1351 1033 l 1238 1083 l 1581 1083 l 1581 1038 b 1483 981 1536 1031 1499 1024 l 1122 -17 l 1094 -17 l 806 703 l 518 -17 l 490 -17 l 111 981 b 14 1038 94 1022 58 1031 l 14 1083 l 397 1083 l 397 1038 b 240 971 283 1033 240 1018 b 258 906 240 953 247 936 l 533 182 l 769 781 l 693 981 b 597 1038 678 1021 642 1031 l 597 1083 l 979 1083 l 979 1038 b 822 971 865 1033 822 1018 b 840 904 822 953 831 931 l 1125 181 "},"X":{"ha":1193,"x_min":0,"x_max":0,"o":"m 657 578 l 1021 132 b 1179 46 1078 63 1110 46 l 1179 0 l 738 0 l 738 46 b 889 96 867 46 889 61 b 843 179 889 126 867 150 l 578 510 l 301 179 b 256 93 276 149 256 121 b 394 46 256 61 281 46 l 394 0 l 14 0 l 14 46 b 176 132 81 46 118 61 l 536 561 l 219 951 b 58 1038 160 1025 125 1038 l 58 1083 l 499 1083 l 499 1038 b 350 989 376 1038 350 1022 b 396 904 350 964 371 936 l 615 628 l 846 907 b 889 988 868 935 889 963 b 740 1038 889 1022 860 1038 l 740 1083 l 1122 1083 l 1122 1038 b 968 951 1054 1038 1028 1024 "},"Y":{"ha":1022,"x_min":0,"x_max":0,"o":"m 789 911 b 813 976 806 936 813 956 b 665 1038 813 1018 785 1033 l 665 1083 l 1008 1083 l 1008 1038 b 911 981 964 1031 936 1019 l 569 457 l 569 161 b 736 46 569 64 632 50 l 736 0 l 293 0 l 293 46 b 460 161 397 50 460 64 l 460 451 l 111 981 b 14 1038 86 1019 58 1031 l 14 1083 l 403 1083 l 403 1038 b 254 975 286 1033 254 1017 b 274 918 254 957 263 936 l 538 519 "},"Z":{"ha":1032,"x_min":0,"x_max":0,"o":"m 674 61 b 929 282 819 61 854 136 l 965 282 l 915 0 l 50 0 l 50 26 l 789 1022 l 357 1022 b 126 808 231 1022 203 985 l 96 808 l 100 1083 l 944 1083 l 944 1056 l 208 61 "},"[":{"ha":460,"x_min":0,"x_max":0,"o":"m 208 -126 l 363 -126 l 363 -181 l 139 -181 l 139 1153 l 363 1153 l 363 1099 l 208 1099 "},"\\":{"ha":521,"x_min":0,"x_max":0,"o":"m 33 1153 l 111 1153 l 514 -168 l 436 -168 "},"]":{"ha":460,"x_min":0,"x_max":0,"o":"m 253 1099 l 97 1099 l 97 1153 l 321 1153 l 321 -181 l 97 -181 l 97 -126 l 253 -126 "},"^":{"ha":653,"x_min":0,"x_max":0,"o":"m 625 556 l 543 556 l 326 1025 l 110 556 l 28 556 l 285 1097 l 368 1097 "},"_":{"ha":417,"x_min":0,"x_max":0,"o":"m 28 -278 l 28 -208 l 389 -208 l 389 -278 "},"`":{"ha":833,"x_min":0,"x_max":0,"o":"m 426 1111 l 543 822 l 497 822 l 290 1111 "},"a":{"ha":843,"x_min":0,"x_max":0,"o":"m 667 157 b 738 60 667 96 692 60 b 799 72 756 60 778 64 l 813 46 b 686 -14 772 8 732 -14 b 565 122 619 -14 569 36 b 300 -15 514 65 438 -15 b 86 172 158 -15 86 69 b 288 361 86 304 185 332 l 561 440 l 561 474 b 369 676 561 581 504 676 b 239 565 283 676 239 643 b 247 510 239 549 240 531 l 156 500 b 126 567 138 513 126 542 b 396 740 126 674 249 740 b 667 488 557 740 667 665 m 332 60 b 561 174 424 60 490 111 l 561 383 l 289 300 b 201 190 236 283 201 250 b 332 60 201 103 256 60 "},"b":{"ha":882,"x_min":0,"x_max":0,"o":"m 10 1024 l 10 1050 l 186 1125 l 233 1125 l 226 1006 l 226 604 b 492 740 285 682 381 740 b 822 406 703 740 822 585 b 424 -14 822 144 635 -14 b 121 90 283 -14 178 35 l 121 1001 m 438 53 b 714 351 603 53 714 160 b 454 656 714 522 631 656 b 226 547 358 656 279 607 l 226 225 b 438 53 226 81 333 53 "},"c":{"ha":764,"x_min":0,"x_max":0,"o":"m 157 386 b 436 75 157 210 253 75 b 676 200 557 75 615 121 l 713 188 b 410 -14 674 81 581 -14 b 60 346 182 -14 60 154 b 444 740 60 588 217 740 b 693 572 608 740 693 664 b 647 490 693 533 675 504 l 592 490 l 592 518 b 407 674 592 621 526 674 b 157 386 268 674 157 563 "},"d":{"ha":926,"x_min":0,"x_max":0,"o":"m 657 -14 l 647 -14 l 654 113 b 397 -14 588 38 499 -14 b 60 328 179 -14 60 147 b 444 740 60 582 238 740 b 654 675 542 740 610 711 l 654 1001 l 543 1024 l 543 1050 l 718 1125 l 765 1125 l 758 1006 l 758 143 b 846 83 758 96 774 93 l 885 78 l 885 36 m 428 674 b 169 368 274 674 169 564 b 428 69 169 206 256 69 b 654 172 519 69 603 113 l 654 467 b 428 674 654 604 569 674 "},"e":{"ha":776,"x_min":0,"x_max":0,"o":"m 417 740 b 718 450 615 740 718 615 l 718 417 l 157 417 b 440 75 143 210 261 75 b 686 200 560 75 624 121 l 721 188 b 414 -14 682 81 588 -14 b 60 339 183 -14 60 154 b 417 740 60 575 203 740 m 389 669 b 167 476 275 669 190 590 l 603 476 b 389 669 603 586 528 669 "},"f":{"ha":543,"x_min":0,"x_max":0,"o":"m 297 128 b 443 40 297 56 335 51 l 443 0 l 74 0 l 74 40 b 192 119 138 49 192 56 l 192 667 l 85 667 l 85 699 l 192 740 l 192 796 b 478 1125 192 1004 294 1125 b 647 1007 582 1125 647 1082 b 608 942 647 975 629 951 l 546 942 l 546 967 b 442 1065 546 1036 510 1065 b 297 846 344 1065 297 990 l 297 726 l 494 726 l 494 667 l 297 667 "},"g":{"ha":821,"x_min":0,"x_max":0,"o":"m 410 740 b 528 721 456 740 497 732 l 782 726 l 782 643 l 729 643 l 571 664 l 571 661 b 690 468 639 632 690 557 b 397 213 690 303 564 213 b 246 239 339 213 275 226 b 183 147 211 211 183 188 b 253 85 183 107 208 85 l 574 85 b 792 -99 707 85 792 24 b 376 -347 792 -239 639 -347 b 49 -156 143 -347 49 -256 b 179 1 49 -74 104 -33 b 94 114 121 21 94 64 b 213 257 94 189 146 225 b 101 463 140 306 101 374 b 410 740 101 636 229 740 m 417 268 b 576 447 521 268 576 347 b 371 676 576 583 506 676 b 211 497 267 676 211 597 b 417 268 211 361 282 268 m 213 -10 b 154 -132 172 -44 154 -81 b 404 -289 154 -235 264 -289 b 700 -114 585 -289 700 -225 b 557 -10 700 -37 642 -10 "},"h":{"ha":965,"x_min":0,"x_max":0,"o":"m 65 1024 l 65 1050 l 242 1125 l 289 1125 l 282 1006 l 282 597 b 568 740 343 664 450 740 b 800 513 703 740 800 678 l 800 119 b 918 40 800 56 854 49 l 918 0 l 576 0 l 576 40 b 694 119 640 49 694 56 l 694 497 b 533 651 694 611 632 651 b 282 542 449 651 346 600 l 282 119 b 399 40 282 56 335 49 l 399 0 l 58 0 l 58 40 b 176 119 122 49 176 56 l 176 1001 "},"i":{"ha":483,"x_min":0,"x_max":0,"o":"m 161 963 b 242 1044 161 1008 196 1044 b 324 963 288 1044 324 1008 b 242 882 324 917 288 882 b 161 963 196 882 161 917 m 306 119 b 424 40 306 56 360 49 l 424 0 l 82 0 l 82 40 b 200 119 146 49 200 56 l 200 607 l 89 643 l 89 671 l 267 738 l 313 738 l 306 589 "},"j":{"ha":388,"x_min":0,"x_max":0,"o":"m 121 963 b 201 1044 121 1008 156 1044 b 283 963 247 1044 283 1008 b 201 882 283 917 247 882 b 121 963 156 882 121 917 m 49 643 l 49 671 l 226 738 l 272 738 l 265 589 l 265 68 b 239 -135 265 -43 264 -76 b 67 -347 211 -201 129 -285 l 38 -321 l 107 -211 b 160 46 153 -140 160 -62 l 160 607 "},"k":{"ha":840,"x_min":0,"x_max":0,"o":"m 282 119 b 399 40 282 56 335 49 l 399 0 l 58 0 l 58 40 b 176 119 122 49 176 56 l 176 1001 l 65 1024 l 65 1050 l 242 1125 l 289 1125 l 282 1006 m 556 606 b 575 639 567 617 575 626 b 478 686 575 671 551 676 l 478 726 l 788 726 l 788 686 b 681 642 731 671 710 668 l 408 396 l 835 31 l 835 0 l 718 0 l 290 365 "},"l":{"ha":460,"x_min":0,"x_max":0,"o":"m 282 119 b 400 40 282 56 336 49 l 400 0 l 58 0 l 58 40 b 176 119 122 49 176 56 l 176 1001 l 65 1024 l 65 1050 l 243 1125 l 289 1125 l 282 1006 "},"m":{"ha":1438,"x_min":0,"x_max":0,"o":"m 782 593 b 1067 740 843 660 940 740 b 1272 521 1200 740 1272 664 l 1272 119 b 1390 40 1272 56 1326 49 l 1390 0 l 1049 0 l 1049 40 b 1167 119 1113 49 1167 56 l 1167 497 b 1024 651 1167 606 1122 651 b 789 542 939 651 853 600 l 789 119 b 907 40 789 56 843 49 l 907 0 l 565 0 l 565 40 b 683 119 629 49 683 56 l 683 497 b 540 651 683 606 639 651 b 306 542 456 651 369 600 l 306 119 b 424 40 306 56 360 49 l 424 0 l 82 0 l 82 40 b 200 119 146 49 200 56 l 200 607 l 89 643 l 89 671 l 267 738 l 313 738 l 306 597 b 583 740 367 664 457 740 b 782 593 692 740 760 689 "},"n":{"ha":989,"x_min":0,"x_max":0,"o":"m 718 497 b 557 651 718 611 656 651 b 306 542 472 651 369 600 l 306 119 b 424 40 306 56 360 49 l 424 0 l 82 0 l 82 40 b 200 119 146 49 200 56 l 200 607 l 89 643 l 89 671 l 267 738 l 313 738 l 306 597 b 592 740 367 664 474 740 b 824 513 726 740 824 678 l 824 119 b 942 40 824 56 878 49 l 942 0 l 600 0 l 600 40 b 718 119 664 49 718 56 "},"o":{"ha":863,"x_min":0,"x_max":0,"o":"m 419 -14 b 60 349 207 -14 60 136 b 443 740 60 589 243 740 b 803 378 656 740 803 590 b 419 -14 803 138 619 -14 m 456 60 b 692 339 611 60 692 188 b 407 667 692 546 588 667 b 171 388 251 667 171 539 b 456 60 171 181 275 60 "},"p":{"ha":921,"x_min":0,"x_max":0,"o":"m 463 -14 b 265 39 376 -14 307 8 l 265 -214 b 383 -293 265 -278 319 -285 l 383 -333 l 42 -333 l 42 -293 b 160 -214 106 -285 160 -278 l 160 607 l 49 643 l 49 671 l 225 738 l 272 738 l 265 604 b 531 740 324 682 419 740 b 861 406 742 740 861 585 b 463 -14 861 144 674 -14 m 476 53 b 753 351 642 53 753 160 b 493 656 753 522 669 656 b 265 547 397 656 318 607 l 265 225 b 476 53 265 81 372 53 "},"q":{"ha":876,"x_min":0,"x_max":0,"o":"m 444 740 b 665 668 533 740 622 706 l 746 756 l 765 756 l 758 606 l 758 -214 b 876 -293 758 -278 813 -285 l 876 -333 l 535 -333 l 535 -293 b 653 -214 599 -285 653 -278 l 653 113 b 397 -14 586 38 499 -14 b 60 328 179 -14 60 147 b 444 740 60 582 238 740 m 428 674 b 169 368 274 674 169 564 b 428 69 169 206 256 69 b 653 172 519 69 601 113 l 653 467 b 428 674 653 604 569 674 "},"r":{"ha":622,"x_min":0,"x_max":0,"o":"m 306 538 b 528 740 361 628 429 740 b 589 721 560 740 578 732 l 589 632 l 546 632 b 306 483 444 632 397 597 l 306 128 b 451 40 306 56 343 51 l 451 0 l 82 0 l 82 40 b 200 119 146 49 200 56 l 200 607 l 89 643 l 89 671 l 265 738 l 313 738 "},"s":{"ha":688,"x_min":0,"x_max":0,"o":"m 336 -14 b 86 57 228 -14 140 17 l 78 244 l 119 244 b 343 47 150 117 224 47 b 513 179 439 47 513 86 b 365 317 513 261 450 289 l 271 346 b 90 547 157 381 90 428 b 333 740 90 663 186 740 b 568 681 428 740 503 717 l 568 501 l 522 501 b 326 679 501 626 435 679 b 185 561 246 679 185 643 b 304 442 185 493 225 465 l 410 410 b 607 189 540 371 607 313 b 336 -14 607 67 500 -14 "},"t":{"ha":553,"x_min":0,"x_max":0,"o":"m 257 726 l 481 726 l 481 667 l 257 667 l 257 207 b 394 61 257 110 301 61 b 503 86 431 61 464 68 l 515 60 b 344 -14 485 25 425 -14 b 153 172 236 -14 153 40 l 153 667 l 46 667 l 46 699 b 229 878 114 747 161 788 l 257 878 "},"u":{"ha":931,"x_min":0,"x_max":0,"o":"m 647 126 b 383 -14 586 60 507 -14 b 154 218 254 -14 154 49 l 154 611 b 51 679 154 664 128 671 l 26 681 l 26 726 l 236 740 l 267 740 l 260 593 l 260 229 b 417 67 260 115 325 67 b 647 185 508 67 583 126 l 647 611 b 544 679 647 664 621 671 l 518 681 l 518 726 l 729 740 l 760 740 l 753 593 l 753 143 b 840 83 753 96 769 93 l 879 78 l 879 36 l 651 -14 l 640 -14 "},"v":{"ha":819,"x_min":0,"x_max":0,"o":"m 806 686 b 719 631 753 668 733 661 l 431 -17 l 411 -17 l 100 631 b 14 686 85 661 68 667 l 14 726 l 324 726 l 324 686 b 219 636 250 676 219 669 b 229 599 219 625 221 617 l 439 150 l 632 599 b 642 636 638 617 642 625 b 536 686 642 669 610 676 l 536 726 l 806 726 "},"w":{"ha":1189,"x_min":0,"x_max":0,"o":"m 1001 586 b 1015 636 1013 617 1015 625 b 910 686 1015 669 983 676 l 910 726 l 1175 726 l 1175 686 b 1089 631 1106 664 1100 660 l 831 -17 l 813 -17 l 599 486 l 394 -17 l 376 -17 l 100 631 b 14 686 88 661 82 663 l 14 726 l 326 726 l 326 686 b 217 636 249 674 217 669 b 231 586 217 625 219 614 l 408 161 l 564 556 l 535 631 b 447 686 522 661 518 663 l 447 726 l 761 726 l 761 686 b 653 636 686 675 653 669 b 665 586 653 625 653 615 l 842 164 "},"x":{"ha":811,"x_min":0,"x_max":0,"o":"m 353 363 l 138 631 b 36 686 115 658 79 678 l 36 726 l 349 726 l 349 686 b 264 642 274 669 264 664 b 290 596 264 631 272 618 l 422 429 l 568 597 b 596 642 589 621 596 631 b 510 686 596 667 586 669 l 510 726 l 776 726 l 776 686 b 674 632 731 678 697 660 l 458 385 l 690 96 b 797 40 713 68 754 53 l 797 0 l 485 0 l 485 40 b 568 79 556 50 568 56 b 542 128 568 94 558 106 l 389 317 l 225 128 b 197 79 208 108 197 94 b 281 40 197 56 213 50 l 281 0 l 14 0 l 14 40 b 118 96 57 53 89 63 "},"y":{"ha":818,"x_min":0,"x_max":0,"o":"m 103 625 b 14 686 88 657 83 660 l 14 726 l 326 726 l 326 686 b 221 636 253 676 221 669 b 231 599 221 625 222 617 l 444 117 l 631 599 b 640 636 638 617 640 625 b 535 686 640 669 608 676 l 535 726 l 804 726 l 804 686 b 715 625 738 661 729 658 l 393 -179 b 201 -349 338 -318 271 -349 b 101 -300 154 -349 114 -328 l 101 -239 l 189 -239 b 343 -129 263 -239 310 -215 l 393 -1 "},"z":{"ha":729,"x_min":0,"x_max":0,"o":"m 63 24 l 511 669 l 269 669 b 124 525 199 669 153 646 l 78 525 l 97 761 l 143 761 l 160 726 l 650 726 l 650 701 l 210 57 l 460 57 b 625 219 529 57 599 89 l 667 219 l 649 0 l 63 0 "},"{":{"ha":582,"x_min":0,"x_max":0,"o":"m 161 486 b 310 288 264 456 310 376 b 275 43 310 213 275 136 b 485 -122 275 -65 325 -122 l 485 -181 b 207 43 264 -181 207 -75 b 239 288 207 136 239 214 b 38 456 239 376 197 456 l 38 517 b 239 685 197 517 239 596 b 207 929 239 758 207 836 b 485 1153 207 1047 264 1153 l 485 1094 b 275 929 325 1094 275 1038 b 310 685 275 836 310 760 b 161 486 310 596 264 517 "},"|":{"ha":353,"x_min":0,"x_max":0,"o":"m 214 -168 l 139 -168 l 139 1153 l 214 1153 "},"}":{"ha":582,"x_min":0,"x_max":0,"o":"m 421 486 b 272 685 318 517 272 596 b 307 929 272 760 307 836 b 97 1094 307 1038 257 1094 l 97 1153 b 375 929 318 1153 375 1047 b 343 685 375 836 343 758 b 544 517 343 596 385 517 l 544 456 b 343 288 385 456 343 376 b 375 43 343 214 375 136 b 97 -181 375 -75 318 -181 l 97 -122 b 307 43 257 -122 307 -65 b 272 288 307 136 272 213 b 421 486 272 376 318 456 "},"~":{"ha":718,"x_min":0,"x_max":0,"o":"m 57 406 b 217 538 93 492 136 538 b 529 457 340 538 436 457 b 621 526 575 457 590 467 l 661 514 b 501 383 626 429 582 383 b 190 464 378 383 282 464 b 97 394 144 464 129 453 "},"‚":{"ha":349,"x_min":0,"x_max":0,"o":"m 168 3 b 106 85 131 13 106 42 b 194 168 106 136 143 168 b 297 36 267 168 297 100 b 61 -204 297 -67 228 -187 l 61 -156 b 219 3 179 -128 219 -64 "},"„":{"ha":635,"x_min":0,"x_max":0,"o":"m 168 3 b 106 85 131 13 106 42 b 194 168 106 136 143 168 b 297 36 267 168 297 100 b 61 -204 297 -67 228 -187 l 61 -156 b 219 3 179 -128 219 -64 m 454 3 b 392 85 417 13 392 42 b 481 168 392 136 429 168 b 583 36 553 168 583 100 b 347 -204 583 -67 514 -187 l 347 -156 b 506 3 465 -128 506 -64 "},"†":{"ha":954,"x_min":0,"x_max":0,"o":"m 529 1083 l 543 1051 l 494 694 l 850 742 l 885 728 l 885 629 l 850 615 l 494 663 l 543 351 l 499 -347 l 456 -347 l 411 351 l 460 663 l 104 615 l 69 629 l 69 728 l 104 742 l 460 694 l 411 1051 l 425 1083 "},"‡":{"ha":954,"x_min":0,"x_max":0,"o":"m 460 663 l 104 615 l 69 629 l 69 728 l 104 742 l 460 694 l 411 1051 l 425 1083 l 529 1083 l 543 1051 l 494 694 l 850 742 l 885 728 l 885 629 l 850 615 l 494 663 l 544 374 l 494 88 l 850 135 l 885 121 l 885 22 l 850 8 l 494 56 l 543 -301 l 529 -333 l 425 -333 l 411 -301 l 460 56 l 104 8 l 69 22 l 69 121 l 104 135 l 460 88 l 413 374 "},"ˆ":{"ha":833,"x_min":0,"x_max":0,"o":"m 661 822 l 614 822 l 417 1008 l 219 822 l 172 822 l 378 1111 l 456 1111 "},"‰":{"ha":1921,"x_min":0,"x_max":0,"o":"m 69 810 b 326 1097 69 1001 175 1097 b 583 810 478 1097 583 1001 b 326 522 583 618 478 522 b 69 810 175 522 69 618 m 343 0 l 267 0 l 985 1083 l 1061 1083 m 483 810 b 326 1039 483 950 438 1039 b 169 810 215 1039 169 950 b 326 581 169 669 215 581 b 483 810 438 581 483 669 m 1258 274 b 1001 -14 1258 82 1153 -14 b 744 274 850 -14 744 82 b 1001 561 744 465 850 561 b 1258 274 1153 561 1258 465 m 1851 274 b 1594 -14 1851 82 1746 -14 b 1338 274 1443 -14 1338 82 b 1594 561 1338 465 1443 561 b 1851 274 1746 561 1851 465 m 844 274 b 1001 44 844 133 890 44 b 1158 274 1113 44 1158 133 b 1001 503 1158 414 1113 503 b 844 274 890 503 844 414 m 1438 274 b 1594 44 1438 133 1483 44 b 1751 274 1706 44 1751 133 b 1594 503 1751 414 1706 503 b 1438 274 1483 503 1438 414 "},"‹":{"ha":418,"x_min":0,"x_max":0,"o":"m 57 388 l 292 651 l 343 651 l 165 381 l 343 110 l 292 110 l 57 374 "},"Œ":{"ha":1806,"x_min":0,"x_max":0,"o":"m 613 -14 b 78 521 285 -14 78 240 b 643 1097 78 875 333 1097 b 769 1083 688 1097 729 1092 l 1658 1083 l 1663 839 l 1636 839 b 1406 1021 1578 976 1532 1021 l 926 1021 b 1176 582 1079 928 1171 761 l 1372 582 b 1486 728 1442 582 1469 635 l 1525 728 l 1525 376 l 1486 376 b 1372 521 1469 469 1442 521 l 1176 521 b 906 63 1164 310 1058 150 l 1414 63 b 1681 263 1560 63 1579 99 l 1714 263 l 1665 0 l 743 0 b 613 -14 701 -8 657 -14 m 661 69 b 1063 504 917 69 1063 265 b 594 1014 1063 786 908 1014 b 193 579 339 1014 193 818 b 661 69 193 297 347 69 "},"‘":{"ha":349,"x_min":0,"x_max":0,"o":"m 181 925 b 243 843 218 915 243 886 b 154 760 243 792 206 760 b 51 892 82 760 51 828 b 288 1132 51 994 121 1115 l 288 1083 b 129 925 169 1056 129 992 "},"’":{"ha":349,"x_min":0,"x_max":0,"o":"m 168 954 b 106 1036 131 964 106 993 b 194 1119 106 1088 143 1119 b 297 988 267 1119 297 1051 b 61 747 297 885 228 764 l 61 796 b 219 954 179 824 219 888 "},"“":{"ha":635,"x_min":0,"x_max":0,"o":"m 181 925 b 243 843 218 915 243 886 b 154 760 243 792 206 760 b 51 892 82 760 51 828 b 288 1132 51 994 121 1115 l 288 1083 b 129 925 169 1056 129 992 m 467 925 b 529 843 504 915 529 886 b 440 760 529 792 492 760 b 338 892 368 760 338 828 b 574 1132 338 994 407 1115 l 574 1083 b 415 925 456 1056 415 992 "},"”":{"ha":635,"x_min":0,"x_max":0,"o":"m 168 956 b 106 1038 131 965 106 994 b 194 1121 106 1089 143 1121 b 297 989 267 1121 297 1053 b 61 749 297 886 228 765 l 61 797 b 219 956 179 825 219 889 m 454 956 b 392 1038 417 965 392 994 b 481 1121 392 1089 429 1121 b 583 989 553 1121 583 1053 b 347 749 583 886 514 765 l 347 797 b 506 956 465 825 506 889 "},"•":{"ha":535,"x_min":0,"x_max":0,"o":"m 124 463 b 267 607 124 542 188 607 b 411 463 346 607 411 542 b 267 319 411 383 346 319 b 124 463 188 319 124 383 "},"–":{"ha":694,"x_min":0,"x_max":0,"o":"m 69 429 l 69 510 l 625 510 l 625 429 "},"—":{"ha":1389,"x_min":0,"x_max":0,"o":"m 69 429 l 69 510 l 1319 510 l 1319 429 "},"˜":{"ha":833,"x_min":0,"x_max":0,"o":"m 508 847 b 294 929 418 847 357 929 b 197 857 247 929 231 919 l 151 864 b 324 1010 185 954 239 1010 b 538 926 414 1010 475 926 b 635 999 585 926 601 938 l 681 993 b 508 847 647 901 593 847 "},"™":{"ha":1158,"x_min":0,"x_max":0,"o":"m 463 1083 l 474 958 l 444 958 b 344 1042 411 1025 404 1042 l 289 1042 l 289 701 b 360 661 289 669 317 664 l 360 628 l 138 628 l 138 661 b 210 701 181 664 210 669 l 210 1042 l 153 1042 b 56 958 94 1042 86 1025 l 25 958 l 35 1083 m 940 1039 b 954 1083 947 1054 951 1064 l 1074 1083 l 1074 1051 b 1021 1014 1035 1047 1022 1035 l 1060 692 b 1115 661 1063 669 1079 664 l 1115 628 l 917 628 l 917 661 b 979 693 964 664 979 669 b 975 738 979 700 976 724 l 949 957 l 806 628 l 764 628 l 624 957 l 596 736 b 592 693 593 721 592 699 b 653 661 592 669 607 664 l 653 628 l 493 628 l 493 661 b 546 692 525 663 544 678 l 586 1014 b 531 1051 583 1035 571 1047 l 531 1083 l 654 1083 b 668 1039 657 1064 661 1054 l 804 724 "},"›":{"ha":418,"x_min":0,"x_max":0,"o":"m 361 374 l 126 110 l 75 110 l 253 381 l 75 651 l 126 651 l 361 388 "},"œ":{"ha":1422,"x_min":0,"x_max":0,"o":"m 1063 740 b 1364 450 1261 740 1364 615 l 1364 417 l 803 417 b 1086 75 789 210 907 75 b 1332 200 1206 75 1269 121 l 1367 188 b 1060 -14 1328 81 1233 -14 b 740 165 906 -14 796 61 b 419 -14 672 51 551 -14 b 60 349 207 -14 60 136 b 443 740 60 589 243 740 b 753 563 586 740 696 672 b 1063 740 815 672 925 740 m 1035 669 b 813 476 921 669 836 590 l 1249 476 b 1035 669 1249 586 1174 669 m 456 60 b 692 339 611 60 692 188 b 407 667 692 546 588 667 b 171 388 251 667 171 539 b 456 60 171 181 275 60 "},"¡":{"ha":438,"x_min":0,"x_max":0,"o":"m 131 653 b 218 740 131 701 169 740 b 307 653 267 740 307 701 b 218 564 307 604 267 564 b 131 653 169 564 131 604 m 293 -357 l 146 -357 l 146 -293 l 174 113 b 193 453 182 240 192 365 l 246 453 b 265 113 247 365 257 240 l 293 -293 "},"¤":{"ha":867,"x_min":0,"x_max":0,"o":"m 118 428 b 182 626 118 506 140 574 l 97 711 l 150 764 l 235 679 b 433 743 289 719 354 743 b 631 679 513 743 578 719 l 717 764 l 769 711 l 685 629 b 751 428 726 574 751 506 b 685 228 751 349 726 282 l 769 146 l 715 92 l 631 174 b 433 110 578 132 513 110 b 235 174 354 110 289 132 l 151 92 l 97 146 l 182 229 b 118 428 140 282 118 350 m 224 428 b 433 175 224 290 288 175 b 644 428 579 175 644 290 b 433 678 644 564 579 678 b 224 428 288 678 224 564 "},"¦":{"ha":353,"x_min":0,"x_max":0,"o":"m 214 589 l 139 589 l 139 1153 l 214 1153 m 214 -168 l 139 -168 l 139 396 l 214 396 "},"§":{"ha":714,"x_min":0,"x_max":0,"o":"m 306 -347 b 104 -215 179 -347 104 -290 b 154 -137 104 -172 129 -150 l 229 -137 l 229 -150 b 350 -278 229 -232 281 -278 b 471 -162 426 -278 471 -229 b 246 249 471 -40 342 94 b 76 749 147 406 76 561 b 408 1136 76 986 213 1136 b 610 1004 535 1136 610 1079 b 560 926 610 961 585 939 l 485 926 l 485 939 b 364 1067 485 1021 433 1067 b 243 951 288 1067 243 1018 b 468 540 243 829 372 694 b 638 40 567 383 638 228 b 306 -347 638 -197 501 -347 m 182 967 b 138 749 160 926 138 844 b 303 285 138 601 201 442 b 532 -178 399 138 532 -43 b 576 40 554 -137 576 -56 b 410 504 576 188 511 347 b 182 967 314 651 182 832 "},"¨":{"ha":833,"x_min":0,"x_max":0,"o":"m 200 960 b 278 1039 200 1003 235 1039 b 357 960 321 1039 357 1003 b 278 882 357 917 321 882 b 200 960 235 882 200 917 m 476 960 b 554 1039 476 1003 511 1039 b 633 960 597 1039 633 1003 b 554 882 633 917 597 882 b 476 960 511 882 476 917 "},"©":{"ha":1236,"x_min":0,"x_max":0,"o":"m 63 542 b 618 1097 63 849 311 1097 b 1174 542 925 1097 1174 849 b 618 -14 1174 235 925 -14 b 63 542 311 -14 63 235 m 104 542 b 618 28 104 258 335 28 b 1132 542 901 28 1132 258 b 618 1056 1132 825 901 1056 b 104 542 335 1056 104 825 m 639 247 b 869 413 782 247 831 311 l 900 413 l 881 247 b 624 194 804 217 729 194 b 263 532 389 194 263 360 b 625 896 263 753 422 896 b 864 843 733 896 817 868 l 871 685 l 843 685 b 626 840 801 800 729 840 b 367 564 454 840 367 714 b 639 247 367 401 460 247 "},"«":{"ha":636,"x_min":0,"x_max":0,"o":"m 57 388 l 292 651 l 343 651 l 165 381 l 343 110 l 292 110 l 57 374 m 276 388 l 510 651 l 561 651 l 383 381 l 561 110 l 510 110 l 276 374 "},"¬":{"ha":972,"x_min":0,"x_max":0,"o":"m 789 729 l 111 729 l 111 794 l 861 794 l 861 289 l 789 289 "},"¯":{"ha":833,"x_min":0,"x_max":0,"o":"m 233 978 l 600 978 l 600 906 l 233 906 "},"°":{"ha":674,"x_min":0,"x_max":0,"o":"m 83 840 b 338 1097 83 982 179 1097 b 590 840 493 1097 590 982 b 338 582 590 697 493 582 b 83 840 179 582 83 697 m 504 840 b 336 1033 504 947 442 1033 b 168 840 232 1033 168 947 b 336 644 168 732 232 644 b 504 840 442 644 504 732 "},"±":{"ha":972,"x_min":0,"x_max":0,"o":"m 447 456 l 111 456 l 111 526 l 447 526 l 447 771 l 525 771 l 525 526 l 861 526 l 861 456 l 525 456 l 525 211 l 447 211 m 111 81 l 111 147 l 861 147 l 861 81 "},"²":{"ha":576,"x_min":0,"x_max":0,"o":"m 329 494 b 483 593 413 494 436 503 l 511 593 l 486 411 l 33 411 l 33 436 l 211 618 b 375 875 340 750 375 799 b 236 1008 375 963 322 1008 b 69 921 158 1008 113 963 l 49 944 b 274 1092 88 1019 161 1092 b 474 900 403 1092 474 1015 b 154 494 474 765 325 656 "},"³":{"ha":601,"x_min":0,"x_max":0,"o":"m 329 785 b 524 593 449 771 524 694 b 286 403 524 461 410 403 b 68 544 146 403 68 474 b 108 613 68 578 88 601 l 165 613 l 165 579 b 297 449 165 500 207 449 b 426 581 376 449 426 490 b 240 731 426 694 347 731 l 199 731 l 199 761 b 394 922 310 799 394 839 b 282 1018 394 983 358 1018 b 117 932 206 1018 154 971 l 94 956 b 310 1092 135 1032 200 1092 b 488 949 429 1092 488 1022 b 329 785 488 857 396 814 "},"´":{"ha":833,"x_min":0,"x_max":0,"o":"m 543 1111 l 336 822 l 290 822 l 403 1111 "},"¶":{"ha":989,"x_min":0,"x_max":0,"o":"m 468 517 b 75 800 221 517 75 618 b 468 1083 75 982 221 1083 l 886 1083 l 886 1038 b 726 925 782 1033 726 1018 l 726 -333 l 664 -333 l 664 1028 l 531 1028 l 531 -333 l 468 -333 "},"·":{"ha":438,"x_min":0,"x_max":0,"o":"m 131 457 b 218 546 131 506 169 546 b 307 457 267 546 307 506 b 218 369 307 408 267 369 b 131 457 169 369 131 408 "},"¸":{"ha":833,"x_min":0,"x_max":0,"o":"m 415 8 l 401 -58 b 563 -207 493 -85 563 -125 b 390 -347 563 -289 488 -347 b 269 -315 333 -347 296 -332 l 281 -278 b 379 -293 314 -290 350 -293 b 485 -219 443 -293 485 -264 b 350 -125 485 -165 426 -140 l 381 8 "},"¹":{"ha":571,"x_min":0,"x_max":0,"o":"m 332 1092 l 332 519 b 503 451 332 461 397 457 l 503 411 l 64 411 l 64 451 b 238 519 168 457 238 461 l 238 940 l 64 940 l 64 972 l 99 976 b 313 1092 182 989 256 1026 "},"»":{"ha":636,"x_min":0,"x_max":0,"o":"m 361 374 l 126 110 l 75 110 l 253 381 l 75 651 l 126 651 l 361 388 m 579 374 l 344 110 l 294 110 l 472 381 l 294 651 l 344 651 l 579 388 "},"¼":{"ha":1397,"x_min":0,"x_max":0,"o":"m 332 1092 l 332 519 b 503 451 332 461 397 457 l 503 411 l 64 411 l 64 451 b 238 519 168 457 238 461 l 238 940 l 64 940 l 64 972 l 99 976 b 313 1092 182 989 256 1026 m 1090 1083 l 1169 1083 l 444 0 l 365 0 m 1163 0 l 1163 175 l 806 175 l 806 217 l 1213 672 l 1261 672 l 1261 231 l 1368 231 l 1368 175 l 1261 175 l 1261 0 m 1163 231 l 1163 532 l 890 231 "},"½":{"ha":1485,"x_min":0,"x_max":0,"o":"m 332 1092 l 332 519 b 503 451 332 461 397 457 l 503 411 l 64 411 l 64 451 b 238 519 168 457 238 461 l 238 940 l 64 940 l 64 972 l 99 976 b 313 1092 182 989 256 1026 m 1090 1083 l 1169 1083 l 444 0 l 365 0 m 1238 83 b 1392 182 1321 83 1344 92 l 1419 182 l 1394 0 l 942 0 l 942 25 l 1119 207 b 1283 464 1249 339 1283 388 b 1144 597 1283 551 1231 597 b 978 510 1067 597 1021 551 l 957 533 b 1182 681 996 608 1069 681 b 1382 489 1311 681 1382 604 b 1063 83 1382 354 1233 244 "},"¾":{"ha":1344,"x_min":0,"x_max":0,"o":"m 329 785 b 524 593 449 771 524 694 b 286 403 524 461 410 403 b 68 544 146 403 68 474 b 108 613 68 578 88 601 l 165 613 l 165 579 b 297 449 165 500 207 449 b 426 581 376 449 426 490 b 240 731 426 694 347 731 l 199 731 l 199 761 b 394 922 310 799 394 839 b 282 1018 394 983 358 1018 b 117 932 206 1018 154 971 l 94 956 b 310 1092 135 1032 200 1092 b 488 949 429 1092 488 1022 b 329 785 488 857 396 814 m 1038 1083 l 1117 1083 l 392 0 l 313 0 m 1110 0 l 1110 175 l 753 175 l 753 217 l 1160 672 l 1208 672 l 1208 231 l 1315 231 l 1315 175 l 1208 175 l 1208 0 m 1110 231 l 1110 532 l 838 231 "},"¿":{"ha":660,"x_min":0,"x_max":0,"o":"m 456 653 b 368 564 456 604 417 564 b 279 653 319 564 279 604 b 368 740 279 701 319 740 b 456 653 417 740 456 701 m 158 -143 b 336 -311 158 -244 228 -311 b 494 -147 438 -311 494 -242 l 494 -104 l 585 -104 b 613 -178 603 -122 613 -147 b 343 -371 613 -289 490 -371 b 46 -107 169 -371 46 -286 b 235 186 46 22 117 89 b 351 379 314 251 351 300 l 351 453 l 385 453 b 426 325 401 425 426 382 b 289 96 426 233 382 175 b 158 -143 217 33 158 -24 "},"Æ":{"ha":1603,"x_min":0,"x_max":0,"o":"m 758 360 l 328 360 l 238 188 b 215 114 219 154 215 132 b 374 46 215 67 260 50 l 374 0 l 14 0 l 14 46 b 117 103 58 51 94 61 l 603 1019 b 464 1038 569 1031 513 1038 l 464 1083 l 1456 1083 l 1460 839 l 1433 839 b 1203 1022 1375 976 1329 1022 l 751 1022 l 835 582 l 1169 582 b 1283 728 1239 582 1267 635 l 1322 728 l 1322 374 l 1283 374 b 1169 518 1267 467 1239 518 l 847 518 l 917 165 b 1111 61 933 79 989 61 l 1211 61 b 1478 263 1357 61 1376 99 l 1511 263 l 1463 0 l 635 0 l 635 46 b 799 129 729 50 799 61 b 793 181 799 147 797 160 m 361 421 l 747 421 l 646 953 l 643 953 "},"Ð":{"ha":1278,"x_min":0,"x_max":0,"o":"m 64 582 l 236 582 l 236 922 b 64 1038 236 1019 168 1033 l 64 1083 l 621 1083 b 1200 572 1026 1083 1200 836 b 651 0 1200 201 943 0 l 64 0 l 64 46 b 236 161 168 50 236 64 l 236 521 l 64 521 m 349 1022 l 349 582 l 690 582 l 690 521 l 349 521 l 349 169 b 519 61 349 79 401 61 l 650 61 b 1075 522 876 61 1075 217 b 592 1022 1075 794 947 1022 "},"×":{"ha":972,"x_min":0,"x_max":0,"o":"m 536 397 l 833 99 l 782 50 l 486 350 l 190 50 l 139 97 l 436 396 l 139 693 l 190 742 l 486 442 l 782 742 l 833 694 "},"Ø":{"ha":1257,"x_min":0,"x_max":0,"o":"m 614 -14 b 256 117 468 -14 346 36 l 132 -14 l 85 22 l 214 158 b 79 521 126 256 79 385 b 644 1097 79 875 329 1097 b 986 979 782 1097 897 1053 l 1097 1097 l 1149 1060 l 1032 938 b 1179 563 1126 839 1179 704 b 614 -14 1179 208 929 -14 m 194 579 b 292 242 194 450 226 332 l 913 901 b 596 1014 836 971 731 1014 b 194 579 340 1014 194 818 m 663 69 b 1064 504 918 69 1064 265 b 954 856 1064 640 1028 764 l 331 196 b 663 69 408 117 518 69 "},"ß":{"ha":967,"x_min":0,"x_max":0,"o":"m 81 0 l 81 40 b 199 119 144 49 199 56 l 199 660 l 92 660 l 92 699 l 199 740 l 199 786 b 510 1128 199 985 299 1128 b 771 900 675 1128 771 1032 b 558 614 771 775 689 668 b 906 251 717 561 906 435 b 640 -14 906 94 818 -14 b 408 136 493 -14 408 53 b 450 208 408 164 422 194 l 525 208 l 525 176 b 654 39 525 100 560 39 b 813 219 754 39 813 99 b 428 572 813 389 619 501 l 428 603 b 663 868 621 672 663 758 b 472 1068 663 993 596 1068 b 304 832 353 1068 304 969 l 304 0 "},"æ":{"ha":1279,"x_min":0,"x_max":0,"o":"m 918 740 b 1219 450 1117 740 1219 615 l 1219 411 l 658 351 b 942 75 671 181 782 75 b 1188 200 1061 75 1125 121 l 1222 188 b 915 -14 1183 81 1089 -14 b 610 149 769 -14 667 53 b 300 -15 543 67 432 -15 b 86 172 158 -15 86 69 b 321 374 86 304 179 360 l 561 397 l 561 474 b 369 676 561 581 504 676 b 239 565 283 676 239 643 b 247 510 239 549 240 531 l 156 500 b 126 567 138 513 126 542 b 396 740 126 674 249 740 b 643 608 514 740 603 700 b 918 740 706 692 801 740 m 890 669 b 657 407 776 669 667 585 l 1104 451 b 890 669 1108 589 1029 669 m 332 60 b 586 199 422 60 507 108 b 561 339 569 242 561 290 l 561 342 l 322 317 b 201 190 235 307 201 250 b 332 60 201 103 256 60 "},"ð":{"ha":858,"x_min":0,"x_max":0,"o":"m 261 850 l 454 940 b 229 1097 385 1007 306 1061 l 229 1107 l 288 1129 b 535 978 376 1093 461 1042 l 671 1042 l 694 993 l 578 938 b 799 404 711 803 799 619 b 422 -14 799 136 640 -14 b 60 349 196 -14 60 158 b 440 740 60 589 236 740 b 646 669 524 740 594 713 b 496 900 615 750 563 829 l 285 800 m 171 388 b 461 60 171 181 276 60 b 700 339 618 60 700 188 b 410 667 700 546 594 667 b 171 388 253 667 171 539 "},"÷":{"ha":972,"x_min":0,"x_max":0,"o":"m 407 704 b 488 782 407 747 443 782 b 569 704 532 782 569 747 b 488 626 569 663 532 626 b 407 704 443 626 407 663 m 111 361 l 111 432 l 861 432 l 861 361 m 407 89 b 488 167 407 131 443 167 b 569 89 532 167 569 131 b 488 11 569 46 532 11 b 407 89 443 11 407 46 "},"ø":{"ha":863,"x_min":0,"x_max":0,"o":"m 419 -14 b 214 43 340 -14 271 6 l 140 -46 l 96 -8 l 168 79 b 60 349 100 143 60 238 b 443 740 60 589 243 740 b 661 674 528 740 603 715 l 739 767 l 788 729 l 707 633 b 803 378 768 569 803 481 b 419 -14 803 138 619 -14 m 171 388 b 235 158 171 292 193 214 l 599 599 b 407 667 551 643 486 667 b 171 388 251 667 171 539 m 456 60 b 692 339 611 60 692 188 b 639 551 692 425 674 497 l 275 117 b 456 60 322 79 382 60 "},"þ":{"ha":882,"x_min":0,"x_max":0,"o":"m 226 -214 b 344 -293 226 -278 281 -285 l 344 -333 l 3 -333 l 3 -293 b 121 -214 67 -285 121 -278 l 121 1001 l 10 1024 l 10 1050 l 186 1125 l 233 1125 l 226 1006 l 226 604 b 492 740 285 682 381 740 b 822 406 703 740 822 585 b 424 -14 822 144 635 -14 b 226 39 338 -14 268 8 m 438 53 b 714 351 603 53 714 160 b 454 656 714 522 631 656 b 226 547 358 656 279 607 l 226 225 b 438 53 226 81 333 53 "},"":{"ha":528,"x_min":0,"x_max":0,"o":"m 433 931 l 433 -69 l 363 -69 l 363 368 l 94 153 l 94 1153 l 165 1153 l 165 715 m 165 319 l 363 478 l 363 764 l 165 604 "},"☒":{"ha":986,"x_min":0,"x_max":0,"o":"m 125 736 l 861 736 l 861 0 l 125 0 m 222 644 l 222 92 l 764 92 l 764 644 m 431 368 l 250 547 l 314 611 l 493 431 l 672 611 l 736 547 l 556 368 l 736 189 l 672 125 l 493 306 l 314 125 l 250 189 "},"":{"ha":576,"x_min":0,"x_max":0,"o":"m 239 742 l 92 921 b 26 960 78 939 56 951 l 26 997 l 265 997 l 265 960 b 210 931 221 950 210 947 b 222 903 210 924 215 913 l 308 794 l 397 903 b 410 931 406 914 410 921 b 354 960 410 949 400 950 l 354 997 l 550 997 l 550 960 b 482 921 519 951 497 939 l 338 757 l 496 567 b 567 528 510 547 538 535 l 567 489 l 324 489 l 324 528 b 381 556 374 535 381 538 b 363 588 381 568 374 575 l 268 704 l 168 588 b 151 556 157 575 151 568 b 207 528 151 538 157 535 l 207 489 l 10 489 l 10 528 b 81 567 39 535 63 546 "},"":{"ha":708,"x_min":0,"x_max":0,"o":"m 461 653 b 374 564 461 604 422 564 b 285 653 325 564 285 604 b 374 740 285 701 325 740 b 461 653 422 740 461 701 m 160 -135 b 356 -310 160 -257 249 -310 b 525 -132 474 -310 525 -246 l 525 -110 l 615 -110 b 643 -187 632 -128 643 -150 b 368 -371 643 -282 540 -371 b 50 -124 178 -371 50 -296 b 228 172 50 1 115 88 b 354 381 322 243 354 282 l 354 456 l 389 456 b 435 329 411 426 435 382 b 396 207 435 279 422 243 l 424 -64 l 424 -128 l 299 -128 l 299 -64 l 318 126 l 306 117 b 160 -135 201 29 160 -18 "},"":{"ha":708,"x_min":0,"x_max":0,"o":"m 461 1010 b 374 921 461 961 422 921 b 285 1010 325 921 285 961 b 374 1097 285 1058 325 1097 b 461 1010 422 1097 461 1058 m 160 222 b 356 47 160 100 249 47 b 525 225 474 47 525 111 l 525 247 l 615 247 b 643 169 632 229 643 207 b 368 -14 643 75 540 -14 b 50 233 178 -14 50 61 b 228 529 50 358 115 444 b 354 738 322 600 354 639 l 354 813 l 389 813 b 435 686 411 783 435 739 b 396 564 435 636 422 600 l 424 293 l 424 229 l 299 229 l 299 293 l 318 483 l 306 474 b 160 222 201 386 160 339 "},"":{"ha":649,"x_min":0,"x_max":0,"o":"m 463 617 b 315 739 463 701 401 739 b 192 617 235 739 192 693 l 192 574 l 97 574 b 69 644 79 592 69 611 b 324 788 69 728 175 788 b 561 614 463 788 561 732 b 440 429 561 532 515 475 b 338 282 369 385 338 361 l 338 253 l 297 253 b 265 333 283 269 265 294 b 289 404 265 360 274 382 l 268 579 l 268 643 l 369 643 l 369 579 l 356 463 l 367 471 b 463 617 431 514 463 543 m 225 74 b 313 163 225 122 264 163 b 401 74 361 163 401 122 b 313 -14 401 25 361 -14 b 225 74 264 -14 225 25 "},"":{"ha":649,"x_min":0,"x_max":0,"o":"m 424 700 b 336 611 424 651 385 611 b 247 700 288 611 247 651 b 336 788 247 749 288 788 b 424 700 385 788 424 749 m 186 157 b 333 35 186 72 247 35 b 457 157 414 35 457 81 l 457 200 l 551 200 b 579 129 569 182 579 163 b 325 -14 579 46 474 -14 b 88 160 186 -14 88 42 b 208 344 88 242 133 299 b 311 492 279 389 311 413 l 311 521 l 351 521 b 383 440 365 504 383 479 b 358 369 383 413 375 390 l 360 369 l 381 194 l 381 131 l 279 131 l 279 194 l 293 310 l 282 303 b 186 157 218 260 186 231 "},"":{"ha":931,"x_min":0,"x_max":0,"o":"m 61 547 l 176 547 b 558 875 219 749 369 875 b 828 792 701 875 786 825 l 833 608 l 792 608 b 549 811 749 754 679 811 b 289 547 388 811 311 686 l 679 547 l 663 488 l 283 488 l 283 461 b 288 381 283 433 285 407 l 633 381 l 615 321 l 296 321 b 571 50 324 171 406 50 b 829 263 726 50 781 119 l 869 263 l 849 56 b 551 -14 772 17 682 -14 b 174 321 343 -14 208 129 l 61 321 l 61 381 l 165 381 b 164 424 164 394 164 408 b 167 488 164 446 165 467 l 61 488 "},"":{"ha":722,"x_min":0,"x_max":0,"o":"m 258 -3 b 99 64 192 10 132 33 l 88 274 l 122 274 b 275 68 151 172 203 101 l 347 400 l 299 415 b 92 643 175 451 92 507 b 383 874 92 776 203 874 b 450 869 406 874 428 872 l 481 1004 l 540 1004 l 508 860 b 656 796 569 846 621 822 l 656 604 l 619 604 b 493 788 596 696 560 757 l 426 482 l 474 468 b 693 226 601 429 693 363 b 364 -14 693 67 563 -14 b 318 -11 349 -14 333 -12 l 289 -146 l 228 -146 m 194 661 b 332 511 194 576 240 539 l 369 500 l 436 806 b 371 811 417 808 394 811 b 194 661 268 811 194 753 m 404 385 l 332 51 b 374 49 344 49 358 49 b 588 211 494 49 588 100 b 433 376 588 296 539 344 "},"":{"ha":967,"x_min":0,"x_max":0,"o":"m 146 481 l 311 481 l 332 590 b 657 875 371 799 489 875 b 860 757 792 875 860 822 b 806 679 860 718 835 689 l 739 679 l 739 718 b 635 819 739 769 721 819 b 443 565 506 819 468 713 l 428 481 l 701 481 l 701 422 l 415 422 b 360 188 399 342 379 258 b 661 79 450 129 546 79 b 833 235 771 79 833 111 l 868 235 b 904 140 890 211 904 181 b 696 -14 904 33 811 -14 b 338 129 554 -14 421 58 b 146 -14 304 58 263 -14 b 15 107 63 -14 15 38 b 172 244 15 183 75 244 b 267 229 207 244 243 238 l 301 422 l 146 422 m 146 46 b 249 171 189 46 228 78 b 172 186 231 179 194 186 b 88 107 115 186 88 153 b 146 46 88 71 113 46 "},"":{"ha":688,"x_min":0,"x_max":0,"o":"m 158 -147 l 214 449 l 57 449 l 63 501 l 219 501 l 229 603 b 506 875 246 776 329 875 b 674 767 615 875 674 833 b 629 692 674 729 647 700 l 543 692 b 547 731 546 704 547 721 b 468 811 547 782 521 811 b 340 606 385 811 350 725 l 331 501 l 553 501 l 547 449 l 324 449 l 271 -147 "},"":{"ha":842,"x_min":0,"x_max":0,"o":"m 93 475 l 289 475 l 94 783 b 14 818 75 813 47 818 l 14 861 l 350 861 l 350 818 b 232 771 271 818 232 806 b 246 729 232 756 236 744 l 443 401 l 639 728 b 654 771 649 743 654 756 b 535 818 654 806 613 818 l 535 861 l 828 861 l 828 818 b 747 783 793 818 767 811 l 556 475 l 761 475 l 761 418 l 521 418 l 475 344 l 475 303 l 761 303 l 761 246 l 475 246 l 475 113 b 614 43 475 54 547 44 l 614 0 l 233 0 l 233 43 b 372 113 300 44 372 54 l 372 246 l 93 246 l 93 303 l 372 303 l 372 343 l 325 418 l 93 418 "},"":{"ha":861,"x_min":0,"x_max":0,"o":"m 671 679 l 828 679 l 828 621 l 658 621 l 578 243 l 749 243 l 749 185 l 565 185 l 494 -150 l 433 -150 l 504 185 l 247 185 l 176 -150 l 115 -150 l 186 185 l 33 185 l 33 243 l 199 243 l 279 621 l 113 621 l 113 679 l 292 679 l 361 1006 l 422 1006 l 353 679 l 610 679 l 679 1006 l 740 1006 m 260 243 l 517 243 l 597 621 l 340 621 "},"Đ":{"ha":1278,"x_min":0,"x_max":0,"o":"m 64 582 l 236 582 l 236 922 b 64 1038 236 1019 168 1033 l 64 1083 l 621 1083 b 1200 572 1026 1083 1200 836 b 651 0 1200 201 943 0 l 64 0 l 64 46 b 236 161 168 50 236 64 l 236 521 l 64 521 m 349 1022 l 349 582 l 690 582 l 690 521 l 349 521 l 349 169 b 519 61 349 79 401 61 l 650 61 b 1075 522 876 61 1075 217 b 592 1022 1075 794 947 1022 "},"đ":{"ha":926,"x_min":0,"x_max":0,"o":"m 406 893 l 654 893 l 654 1001 l 543 1024 l 543 1050 l 718 1125 l 765 1125 l 758 1006 l 758 893 l 885 893 l 885 840 l 758 840 l 758 143 b 846 83 758 96 774 93 l 885 78 l 885 36 l 657 -14 l 647 -14 l 654 113 b 397 -14 588 38 499 -14 b 60 328 179 -14 60 147 b 444 740 60 582 238 740 b 654 675 542 740 610 711 l 654 840 l 406 840 m 428 674 b 169 368 274 674 169 564 b 428 69 169 206 256 69 b 654 172 519 69 603 113 l 654 467 b 428 674 654 604 569 674 "},"Ħ":{"ha":1365,"x_min":0,"x_max":0,"o":"m 85 836 l 236 836 l 236 922 b 64 1038 236 1019 168 1033 l 64 1083 l 521 1083 l 521 1038 b 349 922 417 1033 349 1019 l 349 836 l 1017 836 l 1017 922 b 844 1038 1017 1019 949 1033 l 844 1083 l 1301 1083 l 1301 1038 b 1129 922 1197 1033 1129 1019 l 1129 836 l 1281 836 l 1281 776 l 1129 776 l 1129 161 b 1301 46 1129 64 1197 50 l 1301 0 l 844 0 l 844 46 b 1017 161 949 50 1017 64 l 1017 519 l 349 519 l 349 161 b 521 46 349 64 417 50 l 521 0 l 64 0 l 64 46 b 236 161 168 50 236 64 l 236 776 l 85 776 m 1017 582 l 1017 776 l 349 776 l 349 582 "},"ħ":{"ha":965,"x_min":0,"x_max":0,"o":"m 65 1024 l 65 1050 l 242 1125 l 289 1125 l 282 1006 l 282 893 l 544 893 l 544 840 l 282 840 l 282 597 b 568 740 343 664 450 740 b 800 513 703 740 800 678 l 800 119 b 918 40 800 56 854 49 l 918 0 l 576 0 l 576 40 b 694 119 640 49 694 56 l 694 497 b 533 651 694 611 632 651 b 282 542 449 651 346 600 l 282 119 b 399 40 282 56 335 49 l 399 0 l 58 0 l 58 40 b 176 119 122 49 176 56 l 176 840 l 65 840 l 65 893 l 176 893 l 176 1001 "},"ı":{"ha":483,"x_min":0,"x_max":0,"o":"m 306 119 b 424 40 306 56 360 49 l 424 0 l 82 0 l 82 40 b 200 119 146 49 200 56 l 200 607 l 89 643 l 89 671 l 267 738 l 313 738 l 306 589 "},"Ĳ":{"ha":1244,"x_min":0,"x_max":0,"o":"m 233 922 b 64 1038 233 1019 168 1033 l 64 1083 l 521 1083 l 521 1038 b 353 922 417 1033 353 1019 l 353 161 b 521 46 353 64 417 50 l 521 0 l 64 0 l 64 46 b 233 161 168 50 233 64 m 1049 292 b 789 -14 1049 74 954 -14 b 544 156 639 -14 544 51 b 576 246 544 185 557 231 l 668 246 l 668 164 b 781 39 668 71 725 39 b 931 258 872 39 931 71 l 931 922 b 761 1038 931 1019 865 1033 l 761 1083 l 1218 1083 l 1218 1038 b 1049 922 1114 1033 1049 1019 "},"ĳ":{"ha":776,"x_min":0,"x_max":0,"o":"m 161 963 b 242 1044 161 1008 196 1044 b 324 963 288 1044 324 1008 b 242 882 324 917 288 882 b 161 963 196 882 161 917 m 510 963 b 590 1044 510 1008 544 1044 b 672 963 636 1044 672 1008 b 590 882 672 917 636 882 b 510 963 544 882 510 917 m 89 643 l 89 671 l 267 738 l 313 738 l 306 589 l 306 119 b 424 40 306 56 360 49 l 424 0 l 82 0 l 82 40 b 200 119 146 49 200 56 l 200 607 m 438 643 l 438 671 l 615 738 l 661 738 l 654 589 l 654 68 b 628 -135 654 -43 653 -76 b 456 -347 600 -201 518 -285 l 426 -321 l 496 -211 b 549 46 542 -140 549 -62 l 549 607 "},"ĸ":{"ha":867,"x_min":0,"x_max":0,"o":"m 89 643 l 89 671 l 267 738 l 313 738 l 306 589 l 306 119 b 424 40 306 56 360 49 l 424 0 l 82 0 l 82 40 b 200 119 146 49 200 56 l 200 607 m 582 606 b 601 639 593 617 601 626 b 504 686 601 671 578 676 l 504 726 l 814 726 l 814 686 b 707 642 757 671 736 668 l 435 396 l 861 31 l 861 0 l 744 0 l 317 365 "},"Ł":{"ha":1051,"x_min":0,"x_max":0,"o":"m 64 435 l 236 508 l 236 922 b 64 1038 236 1019 168 1033 l 64 1083 l 521 1083 l 521 1038 b 349 922 417 1033 349 1019 l 349 557 l 625 678 l 625 608 l 349 488 l 349 168 b 519 64 349 85 399 64 l 708 64 b 968 282 856 64 892 139 l 1000 282 l 950 0 l 64 0 l 64 46 b 236 161 168 50 236 64 l 236 439 l 64 365 "},"ł":{"ha":476,"x_min":0,"x_max":0,"o":"m 288 654 l 411 735 l 411 672 l 288 590 l 288 119 b 406 40 288 56 342 49 l 406 0 l 64 0 l 64 40 b 182 119 128 49 182 56 l 182 542 l 67 468 l 67 532 l 182 606 l 182 1001 l 71 1024 l 71 1050 l 247 1125 l 294 1125 l 288 1006 "},"Ŋ":{"ha":1356,"x_min":0,"x_max":0,"o":"m 308 889 l 308 161 b 474 46 308 64 369 50 l 474 0 l 64 0 l 64 46 b 235 161 168 50 235 64 l 235 946 b 64 1038 168 1025 146 1038 l 64 1083 l 289 1083 l 1063 189 l 1063 922 b 897 1038 1063 1019 1001 1033 l 897 1083 l 1306 1083 l 1306 1038 b 1136 922 1201 1033 1136 1019 l 1136 -96 b 900 -347 1136 -233 1096 -347 b 700 -215 800 -347 700 -306 b 746 -136 700 -181 724 -150 l 813 -136 l 813 -172 b 926 -289 813 -240 847 -289 b 1063 -118 1013 -289 1063 -244 l 1063 25 "},"ŋ":{"ha":919,"x_min":0,"x_max":0,"o":"m 718 497 b 557 651 718 611 656 651 b 306 542 472 651 369 600 l 306 119 b 424 40 306 56 360 49 l 424 0 l 82 0 l 82 40 b 200 119 146 49 200 56 l 200 607 l 89 643 l 89 671 l 267 738 l 313 738 l 306 597 b 592 740 367 664 474 740 b 824 513 726 740 824 678 l 824 -121 b 585 -347 824 -261 715 -347 b 393 -221 449 -347 393 -290 b 417 -165 393 -203 400 -179 l 497 -165 l 497 -193 b 599 -292 497 -246 533 -292 b 718 -140 683 -292 718 -249 "},"Ŧ":{"ha":1132,"x_min":0,"x_max":0,"o":"m 1050 1083 l 1075 811 l 1042 811 b 782 1024 961 978 942 1024 l 621 1024 l 621 551 l 863 551 l 863 486 l 621 486 l 621 161 b 794 46 621 64 690 50 l 794 0 l 336 0 l 336 46 b 510 161 440 50 510 64 l 510 486 l 272 486 l 272 551 l 510 551 l 510 1024 l 350 1024 b 90 811 190 1024 171 978 l 57 811 l 81 1083 "},"ŧ":{"ha":553,"x_min":0,"x_max":0,"o":"m 46 478 l 153 478 l 153 667 l 46 667 l 46 699 b 229 878 114 747 161 788 l 260 878 l 260 726 l 481 726 l 481 667 l 260 667 l 260 478 l 478 478 l 478 418 l 260 418 l 260 207 b 394 61 260 110 301 61 b 503 86 431 61 464 68 l 515 60 b 344 -14 485 25 425 -14 b 153 172 236 -14 153 40 l 153 418 l 46 418 "},"ȷ":{"ha":388,"x_min":0,"x_max":0,"o":"m 49 643 l 49 671 l 225 738 l 272 738 l 265 589 l 265 68 b 239 -135 265 -43 264 -76 b 67 -347 211 -201 129 -285 l 38 -321 l 107 -211 b 160 46 153 -140 160 -62 l 160 607 "},"ˇ":{"ha":833,"x_min":0,"x_max":0,"o":"m 172 1111 l 219 1111 l 417 925 l 614 1111 l 661 1111 l 456 822 l 378 822 "},"˘":{"ha":833,"x_min":0,"x_max":0,"o":"m 417 835 b 176 1111 244 835 176 936 l 226 1111 b 417 917 243 965 325 917 b 607 1111 508 917 590 965 l 657 1111 b 417 835 657 936 589 835 "},"˙":{"ha":833,"x_min":0,"x_max":0,"o":"m 335 963 b 415 1044 335 1008 369 1044 b 497 963 461 1044 497 1008 b 415 882 497 917 461 882 b 335 963 369 882 335 917 "},"˚":{"ha":833,"x_min":0,"x_max":0,"o":"m 261 963 b 417 1121 261 1050 324 1121 b 572 963 510 1121 572 1050 b 417 804 572 875 510 804 b 261 963 324 804 261 875 m 506 963 b 417 1067 506 1021 478 1067 b 329 963 356 1067 329 1021 b 417 860 329 906 356 860 b 506 963 478 860 506 906 "},"˛":{"ha":833,"x_min":0,"x_max":0,"o":"m 529 0 b 351 -179 438 -28 351 -82 b 463 -282 351 -243 394 -282 b 553 -261 501 -282 528 -272 l 568 -292 b 425 -347 532 -328 489 -347 b 265 -192 340 -347 265 -303 b 508 36 265 -72 372 -3 "},"˝":{"ha":833,"x_min":0,"x_max":0,"o":"m 421 1111 l 251 822 l 201 822 l 294 1111 m 631 1111 l 461 822 l 411 822 l 504 1111 "},"‒":{"ha":972,"x_min":0,"x_max":0,"o":"m 903 429 l 69 429 l 69 510 l 903 510 "},"―":{"ha":1944,"x_min":0,"x_max":0,"o":"m 1875 429 l 69 429 l 69 510 l 1875 510 "},"‖":{"ha":535,"x_min":0,"x_max":0,"o":"m 214 -168 l 139 -168 l 139 1153 l 214 1153 m 396 -168 l 321 -168 l 321 1153 l 396 1153 "},"′":{"ha":231,"x_min":0,"x_max":0,"o":"m 200 1083 l 136 736 l 97 736 l 97 1083 "},"″":{"ha":431,"x_min":0,"x_max":0,"o":"m 200 1083 l 136 736 l 97 736 l 97 1083 m 400 1083 l 336 736 l 297 736 l 297 1083 "},"‴":{"ha":674,"x_min":0,"x_max":0,"o":"m 96 728 l 60 1083 l 192 1083 l 156 728 m 307 728 l 271 1083 l 403 1083 l 367 728 m 518 728 l 482 1083 l 614 1083 l 578 728 "},"‽":{"ha":708,"x_min":0,"x_max":0,"o":"m 549 861 b 353 1036 549 983 460 1036 b 183 858 235 1036 183 972 l 183 836 l 93 836 b 65 914 76 854 65 876 b 340 1097 65 1008 168 1097 b 658 850 531 1097 658 1022 b 481 554 658 725 593 639 b 354 346 386 483 354 444 l 354 271 l 319 271 b 274 397 297 300 274 344 b 311 519 274 447 285 483 l 285 790 l 285 854 l 410 854 l 410 790 l 390 599 l 403 610 b 549 861 507 697 549 744 m 247 74 b 335 163 247 122 286 163 b 424 74 383 163 424 122 b 335 -14 424 25 383 -14 b 247 74 286 -14 247 25 "},"⁄":{"ha":393,"x_min":0,"x_max":0,"o":"m 519 1083 l 599 1083 l -126 0 l -206 0 "},"⁰":{"ha":615,"x_min":0,"x_max":0,"o":"m 558 747 b 308 403 558 538 476 403 b 58 747 140 403 58 538 b 308 1092 58 957 140 1092 b 558 747 476 1092 558 957 m 165 747 b 308 451 165 583 183 451 b 451 747 433 451 451 583 b 308 1043 451 911 433 1043 b 165 747 183 1043 165 911 "},"⁴":{"ha":614,"x_min":0,"x_max":0,"o":"m 379 411 l 379 586 l 22 586 l 22 628 l 429 1083 l 478 1083 l 478 642 l 585 642 l 585 586 l 478 586 l 478 411 m 379 642 l 379 943 l 107 642 "},"⁵":{"ha":607,"x_min":0,"x_max":0,"o":"m 290 447 b 428 592 378 447 428 496 b 129 781 428 724 299 781 l 181 1083 l 390 1083 b 474 1128 436 1083 446 1086 l 517 1128 l 478 992 l 214 992 l 192 858 b 513 621 379 849 513 769 b 279 403 513 486 410 403 b 65 542 135 403 65 472 b 104 613 65 576 85 601 l 163 613 l 163 575 b 290 447 163 500 194 447 "},"⁶":{"ha":590,"x_min":0,"x_max":0,"o":"m 461 1050 b 171 776 276 996 199 903 b 338 843 206 810 263 843 b 544 638 453 843 544 771 b 303 403 544 499 440 403 b 58 683 149 403 58 528 b 440 1089 58 878 197 1042 m 292 779 b 163 736 235 779 190 758 b 160 682 160 719 160 699 b 313 453 160 539 221 453 b 453 608 401 453 453 511 b 292 779 453 710 393 779 "},"⁷":{"ha":588,"x_min":0,"x_max":0,"o":"m 167 992 b 85 900 124 992 107 958 l 49 900 l 79 1083 l 538 1083 l 538 1056 l 265 411 l 161 411 l 468 992 "},"⁸":{"ha":590,"x_min":0,"x_max":0,"o":"m 507 931 b 367 774 507 856 433 793 l 401 758 b 533 590 478 725 533 676 b 296 403 533 488 460 403 b 56 579 151 403 56 475 b 206 754 56 665 121 729 l 194 760 b 81 918 129 793 81 832 b 292 1092 81 1015 158 1092 b 507 931 424 1092 507 1029 m 335 790 b 422 933 403 829 422 872 b 292 1040 422 1000 369 1040 b 168 938 215 1040 168 1004 b 263 824 168 882 201 851 m 243 738 b 143 586 165 697 143 635 b 297 453 143 500 206 453 b 443 572 385 453 443 500 b 343 694 443 633 410 665 "},"⁹":{"ha":590,"x_min":0,"x_max":0,"o":"m 129 442 b 419 715 314 496 392 589 b 253 649 385 682 328 649 b 46 854 138 649 46 721 b 288 1089 46 993 150 1089 b 532 808 442 1089 532 964 b 150 403 532 614 393 450 m 299 713 b 428 756 356 713 400 733 b 431 810 431 772 431 793 b 278 1039 431 953 369 1039 b 138 883 189 1039 138 981 b 299 713 138 782 197 713 "},"⁺":{"ha":608,"x_min":0,"x_max":0,"o":"m 274 697 l 69 697 l 69 751 l 274 751 l 274 958 l 335 958 l 335 751 l 539 751 l 539 697 l 335 697 l 335 488 l 274 488 "},"⁻":{"ha":608,"x_min":0,"x_max":0,"o":"m 69 697 l 69 751 l 539 751 l 539 697 "},"⁼":{"ha":608,"x_min":0,"x_max":0,"o":"m 69 758 l 69 813 l 539 813 l 539 758 m 69 635 l 69 690 l 539 690 l 539 635 "},"⁽":{"ha":339,"x_min":0,"x_max":0,"o":"m 56 733 b 257 1149 56 906 128 1036 l 293 1115 b 119 733 197 1019 119 906 b 293 351 119 561 197 447 l 257 318 b 56 733 128 431 56 561 "},"⁾":{"ha":335,"x_min":0,"x_max":0,"o":"m 279 733 b 82 318 279 561 210 431 l 46 351 b 215 733 140 447 215 561 b 46 1115 215 906 140 1019 l 82 1149 b 279 733 210 1036 279 906 "},"ⁿ":{"ha":688,"x_min":0,"x_max":0,"o":"m 482 836 b 383 928 482 907 447 928 b 226 869 332 928 267 901 l 226 582 b 303 528 226 538 260 533 l 303 489 l 53 489 l 53 528 b 128 582 97 533 128 538 l 128 901 l 57 936 l 57 958 l 197 1008 l 232 1008 l 226 914 b 421 1007 269 960 346 1007 b 581 849 515 1007 581 961 l 581 582 b 657 528 581 538 613 533 l 657 489 l 407 489 l 407 528 b 482 582 451 533 482 538 "},"₀":{"ha":615,"x_min":0,"x_max":0,"o":"m 558 336 b 308 -8 558 126 476 -8 b 58 336 140 -8 58 126 b 308 681 58 546 140 681 b 558 336 476 681 558 546 m 165 336 b 308 40 165 172 183 40 b 451 336 433 40 451 172 b 308 632 451 500 433 632 b 165 336 183 632 165 500 "},"₁":{"ha":571,"x_min":0,"x_max":0,"o":"m 332 681 l 332 108 b 503 40 332 50 397 46 l 503 0 l 64 0 l 64 40 b 238 108 168 46 238 50 l 238 529 l 64 529 l 64 561 l 99 565 b 313 681 182 578 256 615 "},"₂":{"ha":576,"x_min":0,"x_max":0,"o":"m 329 83 b 483 182 413 83 436 92 l 511 182 l 486 0 l 33 0 l 33 25 l 211 207 b 375 464 340 339 375 388 b 236 597 375 551 322 597 b 69 510 158 597 113 551 l 49 533 b 274 681 88 608 161 681 b 474 489 403 681 474 604 b 154 83 474 354 325 244 "},"₃":{"ha":601,"x_min":0,"x_max":0,"o":"m 329 374 b 524 182 449 360 524 283 b 286 -8 524 50 410 -8 b 68 133 146 -8 68 63 b 108 201 68 167 88 190 l 165 201 l 165 168 b 297 38 165 89 207 38 b 426 169 376 38 426 79 b 240 319 426 283 347 319 l 199 319 l 199 350 b 394 511 310 388 394 428 b 282 607 394 572 358 607 b 117 521 206 607 154 560 l 94 544 b 310 681 135 621 200 681 b 488 538 429 681 488 611 b 329 374 488 446 396 403 "},"₄":{"ha":614,"x_min":0,"x_max":0,"o":"m 379 0 l 379 175 l 22 175 l 22 217 l 429 672 l 478 672 l 478 231 l 585 231 l 585 175 l 478 175 l 478 0 m 379 231 l 379 532 l 107 231 "},"₅":{"ha":607,"x_min":0,"x_max":0,"o":"m 290 36 b 428 181 378 36 428 85 b 129 369 428 313 299 369 l 181 672 l 390 672 b 474 717 436 672 446 675 l 517 717 l 478 581 l 214 581 l 192 447 b 513 210 379 438 513 358 b 279 -8 513 75 410 -8 b 65 131 135 -8 65 61 b 104 201 65 165 85 190 l 163 201 l 163 164 b 290 36 163 89 194 36 "},"₆":{"ha":590,"x_min":0,"x_max":0,"o":"m 461 639 b 171 365 276 585 199 492 b 338 432 206 399 263 432 b 544 226 453 432 544 360 b 303 -8 544 88 440 -8 b 58 272 149 -8 58 117 b 440 678 58 467 197 631 m 292 368 b 163 325 235 368 190 347 b 160 271 160 308 160 288 b 313 42 160 128 221 42 b 453 197 401 42 453 100 b 292 368 453 299 393 368 "},"₇":{"ha":588,"x_min":0,"x_max":0,"o":"m 167 581 b 85 489 124 581 107 547 l 49 489 l 79 672 l 538 672 l 538 644 l 265 0 l 161 0 l 468 581 "},"₈":{"ha":590,"x_min":0,"x_max":0,"o":"m 507 519 b 367 363 507 444 433 382 l 401 347 b 533 179 478 314 533 265 b 296 -8 533 76 460 -8 b 56 168 151 -8 56 64 b 206 343 56 254 121 318 l 194 349 b 81 507 129 382 81 421 b 292 681 81 604 158 681 b 507 519 424 681 507 618 m 335 379 b 422 522 403 418 422 461 b 292 629 422 589 369 629 b 168 526 215 629 168 593 b 263 413 168 471 201 440 m 243 326 b 143 175 165 286 143 224 b 297 42 143 89 206 42 b 443 161 385 42 443 89 b 343 283 443 222 410 254 "},"₉":{"ha":590,"x_min":0,"x_max":0,"o":"m 129 31 b 419 304 314 85 392 178 b 253 238 385 271 328 238 b 46 443 138 238 46 310 b 288 678 46 582 150 678 b 532 397 442 678 532 553 b 150 -8 532 203 393 39 m 299 301 b 428 344 356 301 400 322 b 431 399 431 361 431 382 b 278 628 431 542 369 628 b 138 472 189 628 138 569 b 299 301 138 371 197 301 "},"₊":{"ha":608,"x_min":0,"x_max":0,"o":"m 274 286 l 69 286 l 69 340 l 274 340 l 274 547 l 335 547 l 335 340 l 539 340 l 539 286 l 335 286 l 335 76 l 274 76 "},"₋":{"ha":608,"x_min":0,"x_max":0,"o":"m 69 286 l 69 340 l 539 340 l 539 286 "},"₌":{"ha":608,"x_min":0,"x_max":0,"o":"m 69 347 l 69 401 l 539 401 l 539 347 m 69 224 l 69 279 l 539 279 l 539 224 "},"₍":{"ha":339,"x_min":0,"x_max":0,"o":"m 56 322 b 257 738 56 494 128 625 l 293 704 b 119 322 197 608 119 494 b 293 -60 119 150 197 36 l 257 -93 b 56 322 128 19 56 150 "},"₎":{"ha":335,"x_min":0,"x_max":0,"o":"m 279 322 b 82 -93 279 150 210 19 l 46 -60 b 215 322 140 36 215 150 b 46 704 215 494 140 608 l 82 738 b 279 322 210 625 279 494 "},"ℓ":{"ha":513,"x_min":0,"x_max":0,"o":"m 310 -14 b 115 154 182 -14 115 39 l 115 307 b 38 251 107 300 64 269 l 38 339 b 113 394 60 356 90 375 l 113 769 b 296 1076 113 1006 192 1076 b 449 881 393 1076 449 1008 b 204 365 449 672 315 468 l 204 188 b 311 71 204 100 231 71 b 397 86 346 71 376 78 l 408 1 b 310 -14 386 -7 354 -14 m 204 479 b 369 886 290 574 369 736 b 297 996 369 950 347 996 b 204 783 243 996 204 944 "},"℗":{"ha":1236,"x_min":0,"x_max":0,"o":"m 63 542 b 618 1097 63 849 311 1097 b 1174 542 925 1097 1174 849 b 618 -14 1174 235 925 -14 b 63 542 311 -14 63 235 m 104 542 b 618 28 104 258 335 28 b 1132 542 901 28 1132 258 b 618 1056 1132 825 901 1056 b 104 542 335 1056 104 825 m 549 494 l 549 324 b 674 256 549 265 599 254 l 674 221 l 361 221 l 361 256 b 456 324 424 257 456 265 l 456 768 b 361 839 456 828 424 836 l 361 874 l 667 874 b 918 682 851 874 918 785 b 667 494 918 567 844 494 m 549 540 l 664 540 b 815 683 764 540 815 582 b 649 828 815 774 763 828 l 549 828 "},"℠":{"ha":1110,"x_min":0,"x_max":0,"o":"m 199 618 b 58 660 143 618 86 636 l 53 771 l 79 771 b 208 656 100 697 147 656 b 307 735 264 656 307 679 b 236 814 307 779 289 793 l 165 838 b 56 963 106 857 56 886 b 214 1092 56 1040 115 1092 b 358 1050 288 1092 328 1074 l 358 946 l 331 946 b 208 1054 315 1013 282 1054 b 121 982 157 1054 121 1029 b 192 907 121 944 142 924 l 264 883 b 376 749 338 860 376 822 b 199 618 376 660 296 618 m 900 957 l 757 628 l 715 628 l 575 957 l 547 736 b 543 693 544 721 543 699 b 604 661 543 669 558 664 l 604 628 l 444 628 l 444 661 b 497 692 476 663 496 678 l 538 1014 b 482 1051 535 1035 522 1047 l 482 1083 l 606 1083 b 619 1039 608 1064 613 1054 l 756 724 l 892 1039 b 906 1083 899 1054 903 1064 l 1025 1083 l 1025 1051 b 972 1014 986 1047 974 1035 l 1011 692 b 1067 661 1014 669 1031 664 l 1067 628 l 868 628 l 868 661 b 931 693 915 664 931 669 b 926 738 931 700 928 724 "},"":{"ha":1189,"x_min":0,"x_max":0,"o":"m 563 1043 b 235 617 317 1043 235 818 b 493 74 235 389 326 215 l 493 0 l 76 0 l 38 242 l 74 242 b 333 82 151 96 189 82 l 425 82 b 110 622 283 164 110 340 b 563 1097 110 889 265 1097 b 1015 622 860 1097 1015 889 b 700 82 1015 340 842 164 l 792 82 b 1051 242 936 82 974 96 l 1088 242 l 1049 0 l 632 0 l 632 74 b 890 617 799 215 890 389 b 563 1043 890 818 808 1043 "},"℮":{"ha":1125,"x_min":0,"x_max":0,"o":"m 185 504 b 567 54 194 274 300 58 b 993 365 810 51 972 163 l 1083 365 b 563 -15 1044 100 847 -15 b 21 539 243 -15 21 200 b 563 1094 21 878 243 1094 b 1104 539 882 1094 1104 878 l 1104 504 m 563 1025 b 186 575 297 1025 194 804 l 940 575 b 563 1025 931 804 826 1025 "},"⅓":{"ha":1468,"x_min":0,"x_max":0,"o":"m 332 1092 l 332 519 b 503 451 332 461 397 457 l 503 411 l 64 411 l 64 451 b 238 519 168 457 238 461 l 238 940 l 64 940 l 64 972 l 99 976 b 313 1092 182 989 256 1026 m 1090 1083 l 1169 1083 l 444 0 l 365 0 m 1196 374 b 1390 182 1315 360 1390 283 b 1153 -8 1390 50 1276 -8 b 935 133 1013 -8 935 63 b 975 201 935 167 954 190 l 1032 201 l 1032 168 b 1164 38 1032 89 1074 38 b 1293 169 1243 38 1293 79 b 1107 319 1293 283 1214 319 l 1065 319 l 1065 350 b 1261 511 1176 388 1261 428 b 1149 607 1261 572 1225 607 b 983 521 1072 607 1021 560 l 961 544 b 1176 681 1001 621 1067 681 b 1354 538 1296 681 1354 611 b 1196 374 1354 446 1263 403 "},"⅔":{"ha":1446,"x_min":0,"x_max":0,"o":"m 329 494 b 483 593 413 494 436 503 l 511 593 l 486 411 l 33 411 l 33 436 l 211 618 b 375 875 340 750 375 799 b 236 1008 375 963 322 1008 b 69 921 158 1008 113 963 l 49 944 b 274 1092 88 1019 161 1092 b 474 900 403 1092 474 1015 b 154 494 474 765 325 656 m 1068 1083 l 1147 1083 l 422 0 l 343 0 m 1174 374 b 1368 182 1293 360 1368 283 b 1131 -8 1368 50 1254 -8 b 913 133 990 -8 913 63 b 953 201 913 167 932 190 l 1010 201 l 1010 168 b 1142 38 1010 89 1051 38 b 1271 169 1221 38 1271 79 b 1085 319 1271 283 1192 319 l 1043 319 l 1043 350 b 1239 511 1154 388 1239 428 b 1126 607 1239 572 1203 607 b 961 521 1050 607 999 560 l 939 544 b 1154 681 979 621 1044 681 b 1332 538 1274 681 1332 611 b 1174 374 1332 446 1240 403 "},"⅕":{"ha":1474,"x_min":0,"x_max":0,"o":"m 332 1092 l 332 519 b 503 451 332 461 397 457 l 503 411 l 64 411 l 64 451 b 238 519 168 457 238 461 l 238 940 l 64 940 l 64 972 l 99 976 b 313 1092 182 989 256 1026 m 1090 1083 l 1169 1083 l 444 0 l 365 0 m 1157 36 b 1294 181 1244 36 1294 85 b 996 369 1294 313 1165 369 l 1047 672 l 1257 672 b 1340 717 1303 672 1313 675 l 1383 717 l 1344 581 l 1081 581 l 1058 447 b 1379 210 1246 438 1379 358 b 1146 -8 1379 75 1276 -8 b 932 131 1001 -8 932 61 b 971 201 932 165 951 190 l 1029 201 l 1029 164 b 1157 36 1029 89 1061 36 "},"⅖":{"ha":1451,"x_min":0,"x_max":0,"o":"m 329 494 b 483 593 413 494 436 503 l 511 593 l 486 411 l 33 411 l 33 436 l 211 618 b 375 875 340 750 375 799 b 236 1008 375 963 322 1008 b 69 921 158 1008 113 963 l 49 944 b 274 1092 88 1019 161 1092 b 474 900 403 1092 474 1015 b 154 494 474 765 325 656 m 1068 1083 l 1147 1083 l 422 0 l 343 0 m 1135 36 b 1272 181 1222 36 1272 85 b 974 369 1272 313 1143 369 l 1025 672 l 1235 672 b 1318 717 1281 672 1290 675 l 1361 717 l 1322 581 l 1058 581 l 1036 447 b 1357 210 1224 438 1357 358 b 1124 -8 1357 75 1254 -8 b 910 131 979 -8 910 61 b 949 201 910 165 929 190 l 1007 201 l 1007 164 b 1135 36 1007 89 1039 36 "},"⅗":{"ha":1421,"x_min":0,"x_max":0,"o":"m 329 785 b 524 593 449 771 524 694 b 286 403 524 461 410 403 b 68 544 146 403 68 474 b 108 613 68 578 88 601 l 165 613 l 165 579 b 297 449 165 500 207 449 b 426 581 376 449 426 490 b 240 731 426 694 347 731 l 199 731 l 199 761 b 394 922 310 799 394 839 b 282 1018 394 983 358 1018 b 117 932 206 1018 154 971 l 94 956 b 310 1092 135 1032 200 1092 b 488 949 429 1092 488 1022 b 329 785 488 857 396 814 m 1038 1083 l 1117 1083 l 392 0 l 313 0 m 1104 36 b 1242 181 1192 36 1242 85 b 943 369 1242 313 1113 369 l 994 672 l 1204 672 b 1288 717 1250 672 1260 675 l 1331 717 l 1292 581 l 1028 581 l 1006 447 b 1326 210 1193 438 1326 358 b 1093 -8 1326 75 1224 -8 b 879 131 949 -8 879 61 b 918 201 879 165 899 190 l 976 201 l 976 164 b 1104 36 976 89 1008 36 "},"⅘":{"ha":1517,"x_min":0,"x_max":0,"o":"m 379 411 l 379 586 l 22 586 l 22 628 l 429 1083 l 478 1083 l 478 642 l 585 642 l 585 586 l 478 586 l 478 411 m 1133 1083 l 1213 1083 l 488 0 l 408 0 m 379 642 l 379 943 l 107 642 m 1200 36 b 1338 181 1288 36 1338 85 b 1039 369 1338 313 1208 369 l 1090 672 l 1300 672 b 1383 717 1346 672 1356 675 l 1426 717 l 1388 581 l 1124 581 l 1101 447 b 1422 210 1289 438 1422 358 b 1189 -8 1422 75 1319 -8 b 975 131 1044 -8 975 61 b 1014 201 975 165 994 190 l 1072 201 l 1072 164 b 1200 36 1072 89 1104 36 "},"⅙":{"ha":1429,"x_min":0,"x_max":0,"o":"m 332 1092 l 332 519 b 503 451 332 461 397 457 l 503 411 l 64 411 l 64 451 b 238 519 168 457 238 461 l 238 940 l 64 940 l 64 972 l 99 976 b 313 1092 182 989 256 1026 m 1090 1083 l 1169 1083 l 444 0 l 365 0 m 1300 639 b 1010 365 1115 585 1038 492 b 1176 432 1044 399 1101 432 b 1383 226 1292 432 1383 360 b 1142 -8 1383 88 1279 -8 b 897 272 988 -8 897 117 b 1279 678 897 467 1036 631 m 1131 368 b 1001 325 1074 368 1029 347 b 999 271 999 308 999 288 b 1151 42 999 128 1060 42 b 1292 197 1240 42 1292 100 b 1131 368 1292 299 1232 368 "},"⅚":{"ha":1368,"x_min":0,"x_max":0,"o":"m 290 447 b 428 592 378 447 428 496 b 129 781 428 724 299 781 l 181 1083 l 390 1083 b 474 1128 436 1083 446 1086 l 517 1128 l 478 992 l 214 992 l 192 858 b 513 621 379 849 513 769 b 279 403 513 486 410 403 b 65 542 135 403 65 472 b 104 613 65 576 85 601 l 163 613 l 163 575 b 290 447 163 500 194 447 m 1029 1083 l 1108 1083 l 383 0 l 304 0 m 1239 639 b 949 365 1054 585 976 492 b 1115 432 983 399 1040 432 b 1322 226 1231 432 1322 360 b 1081 -8 1322 88 1218 -8 b 836 272 926 -8 836 117 b 1218 678 836 467 975 631 m 1069 368 b 940 325 1013 368 968 347 b 938 271 938 308 938 288 b 1090 42 938 128 999 42 b 1231 197 1179 42 1231 100 b 1069 368 1231 299 1171 368 "},"⅛":{"ha":1485,"x_min":0,"x_max":0,"o":"m 332 1092 l 332 519 b 503 451 332 461 397 457 l 503 411 l 64 411 l 64 451 b 238 519 168 457 238 461 l 238 940 l 64 940 l 64 972 l 99 976 b 313 1092 182 989 256 1026 m 1090 1083 l 1169 1083 l 444 0 l 365 0 m 1401 519 b 1261 363 1401 444 1328 382 l 1296 347 b 1428 179 1372 314 1428 265 b 1190 -8 1428 76 1354 -8 b 950 168 1046 -8 950 64 b 1100 343 950 254 1015 318 l 1089 349 b 975 507 1024 382 975 421 b 1186 681 975 604 1053 681 b 1401 519 1318 681 1401 618 m 1229 379 b 1317 522 1297 418 1317 461 b 1186 629 1317 589 1264 629 b 1063 526 1110 629 1063 593 b 1157 413 1063 471 1096 440 m 1138 326 b 1038 175 1060 286 1038 224 b 1192 42 1038 89 1100 42 b 1338 161 1279 42 1338 89 b 1238 283 1338 222 1304 254 "},"⅜":{"ha":1432,"x_min":0,"x_max":0,"o":"m 329 785 b 524 593 449 771 524 694 b 286 403 524 461 410 403 b 68 544 146 403 68 474 b 108 613 68 578 88 601 l 165 613 l 165 579 b 297 449 165 500 207 449 b 426 581 376 449 426 490 b 240 731 426 694 347 731 l 199 731 l 199 761 b 394 922 310 799 394 839 b 282 1018 394 983 358 1018 b 117 932 206 1018 154 971 l 94 956 b 310 1092 135 1032 200 1092 b 488 949 429 1092 488 1022 b 329 785 488 857 396 814 m 1038 1083 l 1117 1083 l 392 0 l 313 0 m 1349 519 b 1208 363 1349 444 1275 382 l 1243 347 b 1375 179 1319 314 1375 265 b 1138 -8 1375 76 1301 -8 b 897 168 993 -8 897 64 b 1047 343 897 254 963 318 l 1036 349 b 922 507 971 382 922 421 b 1133 681 922 604 1000 681 b 1349 519 1265 681 1349 618 m 1176 379 b 1264 522 1244 418 1264 461 b 1133 629 1264 589 1211 629 b 1010 526 1057 629 1010 593 b 1104 413 1010 471 1043 440 m 1085 326 b 985 175 1007 286 985 224 b 1139 42 985 89 1047 42 b 1285 161 1226 42 1285 89 b 1185 283 1285 222 1251 254 "},"⅝":{"ha":1424,"x_min":0,"x_max":0,"o":"m 290 447 b 428 592 378 447 428 496 b 129 781 428 724 299 781 l 181 1083 l 390 1083 b 474 1128 436 1083 446 1086 l 517 1128 l 478 992 l 214 992 l 192 858 b 513 621 379 849 513 769 b 279 403 513 486 410 403 b 65 542 135 403 65 472 b 104 613 65 576 85 601 l 163 613 l 163 575 b 290 447 163 500 194 447 m 1029 1083 l 1108 1083 l 383 0 l 304 0 m 1340 519 b 1200 363 1340 444 1267 382 l 1235 347 b 1367 179 1311 314 1367 265 b 1129 -8 1367 76 1293 -8 b 889 168 985 -8 889 64 b 1039 343 889 254 954 318 l 1028 349 b 914 507 963 382 914 421 b 1125 681 914 604 992 681 b 1340 519 1257 681 1340 618 m 1168 379 b 1256 522 1236 418 1256 461 b 1125 629 1256 589 1203 629 b 1001 526 1049 629 1001 593 b 1096 413 1001 471 1035 440 m 1076 326 b 976 175 999 286 976 224 b 1131 42 976 89 1039 42 b 1276 161 1218 42 1276 89 b 1176 283 1276 222 1243 254 "},"⅞":{"ha":1324,"x_min":0,"x_max":0,"o":"m 167 992 b 85 900 124 992 107 958 l 49 900 l 79 1083 l 538 1083 l 538 1056 l 265 411 l 161 411 l 468 992 m 929 1083 l 1008 1083 l 283 0 l 204 0 m 1240 519 b 1100 363 1240 444 1167 382 l 1135 347 b 1267 179 1211 314 1267 265 b 1029 -8 1267 76 1193 -8 b 789 168 885 -8 789 64 b 939 343 789 254 854 318 l 928 349 b 814 507 863 382 814 421 b 1025 681 814 604 892 681 b 1240 519 1157 681 1240 618 m 1068 379 b 1156 522 1136 418 1156 461 b 1025 629 1156 589 1103 629 b 901 526 949 629 901 593 b 996 413 901 471 935 440 m 976 326 b 876 175 899 286 876 224 b 1031 42 876 89 939 42 b 1176 161 1118 42 1176 89 b 1076 283 1176 222 1143 254 "},"←":{"ha":1194,"x_min":0,"x_max":0,"o":"m 57 533 l 57 550 l 628 943 l 628 871 l 258 571 l 1154 571 l 1154 513 l 258 513 l 628 213 l 628 140 "},"↑":{"ha":1194,"x_min":0,"x_max":0,"o":"m 589 1097 l 606 1097 l 999 526 l 926 526 l 626 908 l 626 0 l 568 0 l 568 908 l 268 526 l 196 526 "},"→":{"ha":1194,"x_min":0,"x_max":0,"o":"m 583 140 l 583 213 l 953 513 l 57 513 l 57 571 l 953 571 l 583 871 l 583 943 l 1154 550 l 1154 533 "},"↓":{"ha":1194,"x_min":0,"x_max":0,"o":"m 196 557 l 268 557 l 568 175 l 568 1083 l 626 1083 l 626 175 l 926 557 l 999 557 l 606 -14 l 589 -14 "},"↖":{"ha":1194,"x_min":0,"x_max":0,"o":"m 40 1085 l 51 1097 l 733 971 l 682 919 l 208 978 l 843 336 l 801 294 l 169 936 l 217 454 l 165 403 "},"↗":{"ha":1194,"x_min":0,"x_max":0,"o":"m 1143 1097 l 1154 1085 l 1029 403 l 978 454 l 1025 936 l 393 294 l 351 336 l 986 978 l 513 919 l 461 971 "},"↘":{"ha":1194,"x_min":0,"x_max":0,"o":"m 1154 -1 l 1143 -14 l 461 113 l 513 164 l 986 106 l 351 747 l 393 789 l 1025 147 l 978 629 l 1029 681 "},"↙":{"ha":1194,"x_min":0,"x_max":0,"o":"m 51 -14 l 40 -1 l 165 681 l 217 629 l 168 147 l 801 789 l 843 747 l 208 106 l 682 164 l 733 113 "},"∂":{"ha":868,"x_min":0,"x_max":0,"o":"m 808 471 b 419 -14 808 142 638 -14 b 60 342 197 -14 60 153 b 439 740 60 596 246 740 b 703 592 565 740 672 665 b 324 1028 686 808 536 1028 b 110 972 221 1028 164 1006 l 88 999 b 357 1097 151 1057 244 1097 b 808 471 672 1097 808 825 m 456 60 b 692 339 611 60 692 188 b 407 667 692 546 588 667 b 171 388 251 667 171 539 b 456 60 171 181 275 60 "},"∆":{"ha":1194,"x_min":0,"x_max":0,"o":"m 76 51 l 567 1083 l 628 1083 l 1118 51 l 1118 0 l 76 0 m 561 933 l 156 63 l 971 63 "},"∏":{"ha":1336,"x_min":0,"x_max":0,"o":"m 349 1014 l 349 161 b 521 46 349 64 417 50 l 521 0 l 64 0 l 64 46 b 236 161 168 50 236 64 l 236 922 b 64 1038 236 1019 168 1033 l 64 1083 l 1272 1083 l 1272 1038 b 1100 922 1168 1033 1100 1019 l 1100 161 b 1272 46 1100 64 1168 50 l 1272 0 l 815 0 l 815 46 b 988 161 919 50 988 64 l 988 1014 "},"∑":{"ha":915,"x_min":0,"x_max":0,"o":"m 556 93 b 803 253 701 93 718 107 l 836 253 l 803 0 l 42 0 l 42 85 l 488 538 l 60 985 l 60 1083 l 806 1083 l 810 839 l 783 839 b 553 1019 725 976 679 1019 l 188 1019 l 601 590 l 601 551 l 147 93 "},"−":{"ha":972,"x_min":0,"x_max":0,"o":"m 111 361 l 111 432 l 861 432 l 861 361 "},"√":{"ha":1076,"x_min":0,"x_max":0,"o":"m 993 1061 l 1064 1061 l 438 0 l 344 0 l 193 654 l 46 654 l 46 703 l 294 742 l 433 107 "},"∞":{"ha":1221,"x_min":0,"x_max":0,"o":"m 599 401 b 303 214 536 292 431 214 b 56 449 169 214 56 290 b 299 694 56 611 172 694 b 511 604 381 694 436 667 l 622 511 b 918 699 685 621 790 699 b 1165 464 1051 699 1165 622 b 922 218 1165 301 1049 218 b 710 308 840 218 785 246 m 1081 464 b 907 626 1081 561 1015 626 b 661 476 810 626 732 575 l 796 369 b 940 310 857 319 892 310 b 1081 464 1017 310 1081 358 m 140 449 b 314 286 140 351 206 286 b 560 436 411 286 489 338 l 425 543 b 281 603 364 593 329 603 b 140 449 204 603 140 554 "},"∫":{"ha":847,"x_min":0,"x_max":0,"o":"m 378 768 b 681 1097 399 981 508 1097 b 840 990 782 1097 840 1057 b 801 914 840 951 818 922 l 714 914 b 717 942 715 922 717 935 b 635 1032 717 1004 686 1032 b 496 828 556 1032 510 974 l 418 33 b 115 -296 397 -179 288 -296 b -44 -189 14 -296 -44 -256 b -6 -112 -44 -150 -22 -121 l 82 -112 b 79 -140 81 -121 79 -133 b 161 -231 79 -203 110 -231 b 300 -26 240 -231 286 -172 "},"≈":{"ha":972,"x_min":0,"x_max":0,"o":"m 674 489 b 836 550 793 489 836 551 l 872 499 b 667 419 872 499 815 419 b 299 519 506 419 443 519 b 136 458 179 519 136 457 l 100 510 b 306 589 100 510 157 589 b 674 489 467 589 528 489 m 674 272 b 836 333 793 272 836 335 l 872 282 b 667 203 872 282 815 203 b 299 303 506 203 444 303 b 136 242 179 303 136 240 l 100 293 b 306 372 100 293 157 372 b 674 272 467 372 529 272 "},"≠":{"ha":972,"x_min":0,"x_max":0,"o":"m 351 260 l 111 260 l 111 329 l 404 329 l 496 463 l 111 463 l 111 533 l 547 533 l 636 661 l 719 661 l 631 533 l 861 533 l 861 463 l 579 463 l 488 329 l 865 329 l 865 260 l 435 260 l 347 132 l 264 132 "},"≡":{"ha":972,"x_min":0,"x_max":0,"o":"m 111 851 l 111 917 l 861 917 l 861 851 m 111 511 l 111 575 l 861 575 l 861 511 m 111 167 l 111 232 l 861 232 l 861 167 "},"≤":{"ha":972,"x_min":0,"x_max":0,"o":"m 379 424 l 861 274 l 861 204 l 111 440 l 111 544 l 861 779 l 861 710 l 379 560 l 153 492 m 111 269 l 111 338 l 861 103 l 861 36 "},"≥":{"ha":972,"x_min":0,"x_max":0,"o":"m 819 492 l 593 560 l 111 710 l 111 779 l 861 544 l 861 440 l 111 204 l 111 274 l 593 424 m 111 36 l 111 103 l 861 338 l 861 269 "},"⊠":{"ha":1356,"x_min":0,"x_max":0,"o":"m 136 1083 l 1219 1083 l 1219 0 l 136 0 m 229 996 l 229 88 l 1126 88 l 1126 996 m 613 542 l 300 854 l 365 919 l 678 607 l 989 919 l 1056 854 l 743 542 l 1056 229 l 989 164 l 678 476 l 365 164 l 300 229 "},"⌂":{"ha":1181,"x_min":0,"x_max":0,"o":"m 97 0 l 97 625 l 590 1097 l 1083 625 l 1083 0 "},"■":{"ha":1356,"x_min":0,"x_max":0,"o":"m 1219 0 l 136 0 l 136 1083 l 1219 1083 "},"":{"ha":1356,"x_min":0,"x_max":0,"o":"m 1219 1083 l 136 1083 l 136 0 l 1219 0 "},"□":{"ha":1356,"x_min":0,"x_max":0,"o":"m 136 1083 l 1219 1083 l 1219 0 l 136 0 m 229 996 l 229 88 l 1126 88 l 1126 996 "},"▪":{"ha":1008,"x_min":0,"x_max":0,"o":"m 872 0 l 136 0 l 136 736 l 872 736 "},"▫":{"ha":1008,"x_min":0,"x_max":0,"o":"m 136 736 l 872 736 l 872 0 l 136 0 m 229 649 l 229 88 l 779 88 l 779 649 "},"▲":{"ha":1111,"x_min":0,"x_max":0,"o":"m 14 0 l 556 939 l 1097 0 "},"►":{"ha":1111,"x_min":0,"x_max":0,"o":"m 47 1083 l 986 542 l 47 0 "},"▼":{"ha":1111,"x_min":0,"x_max":0,"o":"m 1097 1083 l 556 144 l 14 1083 "},"◄":{"ha":1111,"x_min":0,"x_max":0,"o":"m 986 0 l 47 542 l 986 1083 "},"◊":{"ha":1250,"x_min":0,"x_max":0,"o":"m 114 542 l 625 1097 l 1136 542 l 625 -14 m 625 94 l 1025 542 l 625 989 l 225 542 "},"◎":{"ha":1333,"x_min":0,"x_max":0,"o":"m 111 542 b 667 1097 111 849 360 1097 b 1222 542 974 1097 1222 849 b 667 -14 1222 235 974 -14 b 111 542 360 -14 111 235 m 218 471 b 596 93 218 261 386 93 b 975 471 806 93 975 261 b 596 850 975 681 806 850 b 218 471 386 850 218 681 m 458 542 b 667 750 458 657 551 750 b 875 542 782 750 875 657 b 667 333 875 426 782 333 b 458 542 551 333 458 426 "},"●":{"ha":1356,"x_min":0,"x_max":0,"o":"m 122 542 b 678 1097 122 849 371 1097 b 1233 542 985 1097 1233 849 b 678 -14 1233 235 985 -14 b 122 542 371 -14 122 235 "},"◢":{"ha":1111,"x_min":0,"x_max":0,"o":"m 803 1047 l 1083 0 l 36 281 "},"◣":{"ha":1111,"x_min":0,"x_max":0,"o":"m 1075 281 l 28 0 l 308 1047 "},"◤":{"ha":1111,"x_min":0,"x_max":0,"o":"m 308 36 l 28 1083 l 1075 803 "},"◥":{"ha":1111,"x_min":0,"x_max":0,"o":"m 36 803 l 1083 1083 l 803 36 "},"○":{"ha":1356,"x_min":0,"x_max":0,"o":"m 122 542 b 678 1097 122 849 371 1097 b 1233 542 985 1097 1233 849 b 678 -14 1233 235 985 -14 b 122 542 371 -14 122 235 m 1132 542 b 678 1004 1132 797 931 1004 b 224 542 424 1004 224 797 b 678 79 224 286 425 79 b 1132 542 932 79 1132 286 "},"◯":{"ha":1356,"x_min":0,"x_max":0,"o":"m 122 542 b 678 -14 122 235 371 -14 b 1233 542 985 -14 1233 235 b 678 1097 1233 849 985 1097 b 122 542 371 1097 122 849 m 1132 542 b 678 79 1132 286 932 79 b 224 542 425 79 224 286 b 678 1004 224 797 424 1004 b 1132 542 931 1004 1132 797 "},"★":{"ha":1222,"x_min":0,"x_max":0,"o":"m 250 -14 l 388 413 l 26 675 l 474 675 l 611 1100 l 749 675 l 1196 675 l 835 413 l 972 -14 l 611 250 "},"☼":{"ha":1333,"x_min":0,"x_max":0,"o":"m 988 500 l 1203 399 l 965 419 l 1149 264 l 924 346 l 1060 150 l 864 286 l 944 61 l 790 242 l 811 6 l 708 221 l 667 -14 l 625 221 l 522 6 l 543 242 l 389 61 l 469 286 l 274 150 l 410 346 l 185 264 l 368 419 l 131 399 l 346 500 l 111 542 l 346 583 l 131 685 l 368 664 l 185 819 l 410 738 l 274 933 l 469 797 l 389 1022 l 543 842 l 522 1078 l 625 863 l 667 1097 l 708 863 l 811 1078 l 790 842 l 944 1022 l 864 797 l 1060 933 l 924 738 l 1149 819 l 965 664 l 1203 685 l 988 583 l 1222 542 "},"☾":{"ha":1333,"x_min":0,"x_max":0,"o":"m 867 1011 b 417 542 618 1011 417 801 b 867 72 417 282 618 72 b 1000 93 913 72 957 79 b 667 -14 906 25 789 -14 b 111 542 360 -14 111 235 b 667 1097 111 849 360 1097 b 1000 990 789 1097 906 1057 b 867 1011 957 1003 913 1011 "},"♠":{"ha":1250,"x_min":0,"x_max":0,"o":"m 626 1097 b 950 778 672 1028 803 874 b 1178 464 1071 699 1178 608 b 933 222 1178 328 1069 222 b 656 446 796 222 703 331 l 651 444 b 765 0 667 257 696 139 l 485 0 b 599 444 554 139 583 257 l 594 446 b 317 222 547 331 454 222 b 72 464 181 222 72 328 b 300 778 72 608 179 699 b 624 1097 447 874 578 1028 "},"♣":{"ha":1250,"x_min":0,"x_max":0,"o":"m 485 0 b 599 444 554 139 583 257 l 594 446 b 317 222 547 331 454 222 b 72 464 181 222 72 328 b 314 714 72 608 169 714 b 431 682 361 714 399 699 l 433 685 b 381 847 403 731 381 786 b 625 1097 381 985 485 1097 b 869 847 765 1097 869 985 b 817 685 869 786 847 731 l 819 682 b 936 714 851 699 889 714 b 1178 464 1081 714 1178 608 b 933 222 1178 328 1069 222 b 656 446 796 222 703 331 l 651 444 b 765 0 667 257 696 139 "},"♥":{"ha":1250,"x_min":0,"x_max":0,"o":"m 624 -14 b 300 393 578 56 447 226 b 72 811 204 501 72 667 b 338 1097 72 975 174 1097 b 622 879 510 1097 582 994 l 628 879 b 913 1097 668 994 740 1097 b 1178 811 1076 1097 1178 975 b 950 393 1178 667 1046 501 b 626 -14 803 226 672 56 "},"♦":{"ha":1250,"x_min":0,"x_max":0,"o":"m 1135 542 b 626 -14 938 388 750 182 l 624 -14 b 115 542 500 182 313 388 b 624 1097 313 696 500 901 l 626 1097 b 1135 542 750 901 938 696 "},"♭":{"ha":667,"x_min":0,"x_max":0,"o":"m 94 1139 l 167 1139 l 167 626 b 381 754 203 697 297 754 b 618 499 542 754 618 661 b 94 -58 618 224 361 15 m 167 47 b 535 486 300 96 535 231 b 371 674 535 585 501 674 b 167 476 260 674 175 564 "},"♯":{"ha":647,"x_min":0,"x_max":0,"o":"m 493 931 l 619 1032 l 619 922 l 493 819 l 493 535 l 619 636 l 619 526 l 493 424 l 493 0 l 422 0 l 422 368 l 225 210 l 225 -139 l 154 -139 l 154 153 l 28 51 l 28 161 l 154 264 l 154 549 l 28 447 l 28 557 l 154 660 l 154 1083 l 225 1083 l 225 715 l 422 874 l 422 1222 l 493 1222 m 225 319 l 422 478 l 422 764 l 225 604 "},"♻":{"ha":1333,"x_min":0,"x_max":0,"o":"m 561 1083 l 829 1083 b 957 1018 882 1082 921 1081 l 996 950 l 1056 983 l 971 753 l 731 796 l 788 829 l 688 1003 b 561 1082 646 1075 561 1082 m 371 996 b 418 1039 378 1008 396 1026 b 647 990 500 1088 618 1043 l 486 711 l 278 831 m 1215 569 b 1229 508 1222 557 1229 533 b 1074 333 1231 413 1132 333 l 913 613 l 1119 732 m 256 169 l 122 403 b 117 546 99 447 79 483 l 156 614 l 97 647 l 339 690 l 421 460 l 364 493 b 264 319 364 493 267 326 b 258 169 222 249 258 169 m 1200 367 l 1067 135 b 944 57 1038 92 1018 57 l 865 57 l 865 -11 l 708 178 l 865 365 l 865 297 l 1067 297 b 1199 369 1149 297 1199 369 m 432 57 b 371 75 417 57 392 63 b 297 297 286 124 267 246 l 619 297 l 619 57 "},"♼":{"ha":1333,"x_min":0,"x_max":0,"o":"m 1222 540 b 668 -14 1222 233 975 -14 b 111 540 360 -14 111 233 b 668 1097 111 849 360 1097 b 1222 540 975 1097 1222 849 m 576 963 b 675 901 576 963 643 956 l 753 767 l 708 740 l 894 707 l 960 886 l 914 860 l 883 913 b 785 964 856 961 825 964 l 576 964 m 363 768 l 524 675 l 649 892 b 471 929 626 932 535 967 b 435 896 454 919 440 906 m 1015 692 l 854 599 l 979 382 b 1100 518 1025 382 1101 443 b 1089 565 1100 538 1094 556 m 347 256 b 351 372 347 256 319 317 l 429 507 l 474 481 l 410 660 l 222 626 l 268 600 l 238 547 b 242 436 208 499 224 471 l 346 256 m 1076 410 b 974 354 1076 410 1038 354 l 818 354 l 818 407 l 696 261 l 818 115 l 818 168 l 879 168 b 974 228 936 168 954 194 l 1078 408 m 622 168 l 622 354 l 372 354 b 429 182 349 314 364 219 b 476 168 446 172 465 168 "},"♽":{"ha":1333,"x_min":0,"x_max":0,"o":"m 1222 540 b 668 -14 1222 233 975 -14 b 111 540 360 -14 111 233 b 668 1097 111 849 360 1097 b 1222 540 975 1097 1222 849 m 1194 540 b 668 1069 1194 833 960 1069 b 139 540 375 1069 139 833 b 668 14 139 249 375 14 b 1194 540 960 14 1194 249 m 576 964 l 785 964 b 883 913 825 964 856 961 l 914 860 l 960 886 l 894 707 l 708 740 l 753 767 l 675 901 b 576 963 643 956 576 963 m 435 896 b 471 929 440 906 454 919 b 649 892 535 967 626 932 l 524 675 l 363 768 m 1089 565 b 1100 518 1094 556 1100 538 b 979 382 1101 443 1025 382 l 854 599 l 1015 692 m 346 256 l 242 436 b 238 547 224 471 208 499 l 268 600 l 222 626 l 410 660 l 474 481 l 429 507 l 351 372 b 347 256 319 317 347 256 m 1078 408 l 974 228 b 879 168 954 194 936 168 l 818 168 l 818 115 l 696 261 l 818 407 l 818 354 l 974 354 b 1076 410 1038 354 1076 410 m 476 168 b 429 182 465 168 446 172 b 372 354 364 219 349 314 l 622 354 l 622 168 "},"〈":{"ha":506,"x_min":0,"x_max":0,"o":"m 106 486 l 354 1153 l 422 1153 l 179 486 l 422 -181 l 354 -181 "},"〉":{"ha":506,"x_min":0,"x_max":0,"o":"m 151 -181 l 83 -181 l 326 486 l 83 1153 l 151 1153 l 400 486 "},"":{"ha":924,"x_min":0,"x_max":0,"o":"m 640 113 b 390 -14 575 38 489 -14 b 60 328 176 -14 60 147 b 436 740 60 582 233 740 b 653 668 524 740 611 706 l 733 756 l 753 756 l 746 606 l 746 143 b 833 83 746 96 763 93 l 872 78 l 872 36 l 644 -14 l 633 -14 m 421 674 b 167 368 269 674 167 564 b 421 69 167 206 251 69 b 640 172 510 69 590 113 l 640 467 b 421 674 640 604 558 674 "},"":{"ha":875,"x_min":0,"x_max":0,"o":"m 653 113 b 397 -14 586 38 499 -14 b 60 328 179 -14 60 147 b 444 740 60 582 238 740 b 665 668 533 740 622 706 l 746 756 l 765 756 l 758 606 l 758 -32 b 396 -347 758 -239 603 -347 b 110 -175 258 -347 110 -293 b 161 -90 110 -131 132 -104 l 224 -90 l 224 -124 b 415 -290 224 -240 292 -290 b 653 4 569 -290 653 -212 m 428 674 b 169 368 274 674 169 564 b 428 69 169 206 256 69 b 653 172 519 69 601 113 l 653 467 b 428 674 653 604 569 674 "},"":{"ha":872,"x_min":0,"x_max":0,"o":"m 414 -347 b 140 -175 276 -347 140 -293 b 192 -90 140 -131 163 -104 l 253 -90 l 253 -124 b 433 -290 253 -240 310 -290 b 647 19 588 -290 647 -196 l 647 132 b 383 -8 586 65 507 -8 b 154 224 254 -8 154 54 l 154 611 b 51 679 154 664 128 671 l 26 681 l 26 726 l 236 740 l 267 740 l 260 593 l 260 235 b 417 72 260 121 325 72 b 647 190 508 72 583 132 l 647 611 b 544 679 647 664 621 671 l 518 681 l 518 726 l 729 740 l 760 740 l 753 593 l 753 -29 b 414 -347 753 -232 621 -347 "},"":{"ha":817,"x_min":0,"x_max":0,"o":"m 329 113 b 497 43 329 54 406 47 l 497 0 l 82 0 l 82 43 b 221 113 149 44 221 54 l 221 661 b 82 731 221 718 149 729 l 82 774 l 471 774 b 753 544 678 774 753 661 b 478 318 753 415 656 318 l 329 318 m 329 374 l 464 374 b 633 540 581 374 633 433 b 451 718 633 656 576 718 l 329 718 "},"":{"ha":817,"x_min":0,"x_max":0,"o":"m 329 318 l 478 318 b 753 544 656 318 753 415 b 471 774 753 661 678 774 l 82 774 l 82 731 b 221 661 149 729 221 718 l 221 113 b 82 43 221 54 149 44 l 82 0 l 497 0 l 497 43 b 329 113 406 47 329 54 m 329 718 l 451 718 b 633 540 576 718 633 656 b 464 374 633 433 581 374 l 329 374 "},"":{"ha":919,"x_min":0,"x_max":0,"o":"m 610 253 l 254 253 l 206 136 b 193 90 199 121 193 103 b 308 43 193 56 229 47 l 308 0 l 28 0 l 28 43 b 108 78 63 43 94 47 l 385 722 l 357 783 l 478 783 l 811 79 b 892 43 826 49 857 43 l 892 0 l 561 0 l 561 43 b 676 90 640 47 676 56 b 664 136 676 103 671 121 m 278 308 l 585 308 l 425 657 "},"":{"ha":919,"x_min":0,"x_max":0,"o":"m 664 136 b 676 90 671 121 676 103 b 561 43 676 56 640 47 l 561 0 l 892 0 l 892 43 b 811 79 857 43 826 49 l 478 783 l 357 783 l 385 722 l 108 78 b 28 43 94 47 63 43 l 28 0 l 308 0 l 308 43 b 193 90 229 47 193 56 b 206 136 193 103 199 121 l 254 253 l 610 253 m 425 657 l 585 308 l 278 308 "},"":{"ha":886,"x_min":0,"x_max":0,"o":"m 482 774 b 749 585 654 774 749 708 b 561 407 749 467 660 429 b 793 206 710 392 793 318 b 504 0 793 90 693 0 l 82 0 l 82 43 b 221 113 149 44 221 54 l 221 661 b 82 731 221 718 149 729 l 82 774 m 329 718 l 329 429 l 446 429 b 633 581 569 429 633 474 b 456 718 633 661 574 718 m 490 56 b 674 201 614 56 674 101 b 471 375 674 296 626 375 l 329 375 l 329 125 b 439 56 329 65 363 56 "},"":{"ha":886,"x_min":0,"x_max":0,"o":"m 82 774 l 82 731 b 221 661 149 729 221 718 l 221 113 b 82 43 221 54 149 44 l 82 0 l 504 0 b 793 206 693 0 793 90 b 561 407 793 318 710 392 b 749 585 660 429 749 467 b 482 774 749 708 654 774 m 456 718 b 633 581 574 718 633 661 b 446 429 633 474 569 429 l 329 429 l 329 718 m 439 56 b 329 125 363 56 329 65 l 329 375 l 471 375 b 674 201 626 375 674 296 b 490 56 674 101 614 56 "},"":{"ha":856,"x_min":0,"x_max":0,"o":"m 486 51 b 757 246 638 51 708 117 l 790 246 l 769 49 b 467 -14 693 13 600 -14 b 65 371 210 -14 65 171 b 478 788 65 624 250 788 b 749 714 618 788 703 744 l 751 539 l 718 539 b 463 722 663 676 589 722 b 182 411 261 722 182 571 b 486 51 182 226 279 51 "},"":{"ha":856,"x_min":0,"x_max":0,"o":"m 486 51 b 182 411 279 51 182 226 b 463 722 182 571 261 722 b 718 539 589 722 663 676 l 751 539 l 749 714 b 478 788 703 744 618 788 b 65 371 250 788 65 624 b 467 -14 65 171 210 -14 b 769 49 600 -14 693 13 l 790 246 l 757 246 b 486 51 708 117 638 51 "},"":{"ha":972,"x_min":0,"x_max":0,"o":"m 82 39 b 221 108 149 40 221 50 l 221 665 b 82 735 221 722 149 733 l 82 774 l 485 774 b 907 413 782 774 907 589 b 508 0 907 150 732 0 l 82 0 m 331 719 l 331 132 b 438 54 331 68 361 54 l 504 54 b 785 367 656 54 785 143 b 446 719 785 567 700 719 "},"":{"ha":972,"x_min":0,"x_max":0,"o":"m 82 0 l 508 0 b 907 413 732 0 907 150 b 485 774 907 589 782 774 l 82 774 l 82 735 b 221 665 149 733 221 722 l 221 108 b 82 39 221 50 149 40 m 446 719 b 785 367 700 719 785 567 b 504 54 785 143 656 54 l 438 54 b 331 132 361 54 331 68 l 331 719 "},"":{"ha":897,"x_min":0,"x_max":0,"o":"m 757 774 l 760 594 l 732 594 b 568 718 689 694 656 718 l 329 718 l 329 429 l 542 429 b 618 531 592 429 613 463 l 657 531 l 657 274 l 618 274 b 542 375 613 340 592 375 l 329 375 l 329 129 b 436 56 329 69 363 56 l 575 56 b 768 217 668 56 699 101 l 799 217 l 761 0 l 82 0 l 82 43 b 221 113 149 44 221 54 l 221 661 b 82 731 221 718 149 729 l 82 774 "},"":{"ha":897,"x_min":0,"x_max":0,"o":"m 82 774 l 82 731 b 221 661 149 729 221 718 l 221 113 b 82 43 221 54 149 44 l 82 0 l 761 0 l 799 217 l 768 217 b 575 56 699 101 668 56 l 436 56 b 329 129 363 56 329 69 l 329 375 l 542 375 b 618 274 592 375 613 340 l 657 274 l 657 531 l 618 531 b 542 429 613 463 592 429 l 329 429 l 329 718 l 568 718 b 732 594 656 718 689 694 l 760 594 l 757 774 "},"":{"ha":810,"x_min":0,"x_max":0,"o":"m 329 108 b 497 43 329 50 406 47 l 497 0 l 82 0 l 82 43 b 221 113 149 44 221 54 l 221 661 b 82 731 221 718 149 729 l 82 774 l 729 774 l 732 594 l 704 594 b 540 718 661 694 628 718 l 329 718 l 329 401 l 528 401 b 604 503 578 401 599 435 l 643 503 l 643 246 l 604 246 b 528 347 599 313 578 347 l 329 347 "},"":{"ha":810,"x_min":0,"x_max":0,"o":"m 329 347 l 528 347 b 604 246 578 347 599 313 l 643 246 l 643 503 l 604 503 b 528 401 599 435 578 401 l 329 401 l 329 718 l 540 718 b 704 594 628 718 661 694 l 732 594 l 729 774 l 82 774 l 82 731 b 221 661 149 729 221 718 l 221 113 b 82 43 221 54 149 44 l 82 0 l 497 0 l 497 43 b 329 108 406 47 329 50 "},"":{"ha":928,"x_min":0,"x_max":0,"o":"m 765 64 b 467 -14 688 19 597 -14 b 65 371 210 -14 65 171 b 478 788 65 624 250 788 b 749 714 618 788 703 744 l 751 539 l 718 539 b 463 722 663 676 589 722 b 182 411 261 722 182 571 b 488 46 182 226 281 46 b 657 104 575 46 622 64 l 657 250 b 518 319 657 308 585 318 l 518 363 l 904 363 l 904 319 b 765 250 838 318 765 308 "},"":{"ha":928,"x_min":0,"x_max":0,"o":"m 765 250 b 904 319 765 308 838 318 l 904 363 l 518 363 l 518 319 b 657 250 585 318 657 308 l 657 104 b 488 46 622 64 575 46 b 182 411 281 46 182 226 b 463 722 182 571 261 722 b 718 539 589 722 663 676 l 751 539 l 749 714 b 478 788 703 744 618 788 b 65 371 250 788 65 624 b 467 -14 65 171 210 -14 b 765 64 597 -14 688 19 "},"":{"ha":1113,"x_min":0,"x_max":0,"o":"m 329 375 l 329 113 b 468 43 329 54 401 44 l 468 0 l 82 0 l 82 43 b 221 113 149 44 221 54 l 221 661 b 82 731 221 719 149 729 l 82 774 l 468 774 l 468 731 b 329 661 401 729 329 719 l 329 431 l 783 431 l 783 661 b 644 731 783 719 711 729 l 644 774 l 1031 774 l 1031 731 b 892 661 964 729 892 719 l 892 113 b 1031 43 892 54 964 44 l 1031 0 l 644 0 l 644 43 b 783 113 711 44 783 54 l 783 375 "},"":{"ha":1113,"x_min":0,"x_max":0,"o":"m 783 375 l 783 113 b 644 43 783 54 711 44 l 644 0 l 1031 0 l 1031 43 b 892 113 964 44 892 54 l 892 661 b 1031 731 892 719 964 729 l 1031 774 l 644 774 l 644 731 b 783 661 711 729 783 719 l 783 431 l 329 431 l 329 661 b 468 731 329 719 401 729 l 468 774 l 82 774 l 82 731 b 221 661 149 729 221 719 l 221 113 b 82 43 221 54 149 44 l 82 0 l 468 0 l 468 43 b 329 113 401 44 329 54 l 329 375 "},"":{"ha":551,"x_min":0,"x_max":0,"o":"m 329 113 b 468 43 329 54 401 44 l 468 0 l 82 0 l 82 43 b 221 113 149 44 221 54 l 221 661 b 82 731 221 719 149 729 l 82 774 l 468 774 l 468 731 b 329 661 401 729 329 719 "},"":{"ha":551,"x_min":0,"x_max":0,"o":"m 329 661 b 468 731 329 719 401 729 l 468 774 l 82 774 l 82 731 b 221 661 149 729 221 719 l 221 113 b 82 43 221 54 149 44 l 82 0 l 468 0 l 468 43 b 329 113 401 44 329 54 "},"":{"ha":667,"x_min":0,"x_max":0,"o":"m 390 661 b 251 731 390 719 318 729 l 251 774 l 638 774 l 638 731 b 499 661 571 729 499 719 l 499 213 b 244 -14 499 72 397 -14 b 14 131 111 -14 14 42 b 57 206 14 164 32 193 l 131 206 l 131 165 b 251 36 131 90 171 36 b 390 207 342 36 390 96 "},"":{"ha":667,"x_min":0,"x_max":0,"o":"m 390 207 b 251 36 390 96 342 36 b 131 165 171 36 131 90 l 131 206 l 57 206 b 14 131 32 193 14 164 b 244 -14 14 42 111 -14 b 499 213 397 -14 499 72 l 499 661 b 638 731 499 719 571 729 l 638 774 l 251 774 l 251 731 b 390 661 318 729 390 719 "},"":{"ha":926,"x_min":0,"x_max":0,"o":"m 329 113 b 468 43 329 54 401 44 l 468 0 l 82 0 l 82 43 b 221 113 149 44 221 54 l 221 661 b 82 731 221 719 149 729 l 82 774 l 468 774 l 468 731 b 329 661 401 729 329 719 m 643 656 b 672 699 658 669 672 682 b 583 731 672 719 658 731 l 583 774 l 867 774 l 867 731 b 758 681 822 731 794 711 l 458 426 l 763 108 b 908 43 817 53 851 46 l 908 0 l 740 0 b 626 96 703 19 678 40 l 342 400 "},"":{"ha":926,"x_min":0,"x_max":0,"o":"m 329 661 b 468 731 329 719 401 729 l 468 774 l 82 774 l 82 731 b 221 661 149 729 221 719 l 221 113 b 82 43 221 54 149 44 l 82 0 l 468 0 l 468 43 b 329 113 401 44 329 54 m 342 400 l 626 96 b 740 0 678 40 703 19 l 908 0 l 908 43 b 763 108 851 46 817 53 l 458 426 l 758 681 b 867 731 794 711 822 731 l 867 774 l 583 774 l 583 731 b 672 699 658 731 672 719 b 643 656 672 682 658 669 "},"":{"ha":843,"x_min":0,"x_max":0,"o":"m 329 129 b 436 56 329 71 363 56 l 561 56 b 761 229 657 56 689 99 l 796 229 l 754 0 l 82 0 l 82 43 b 221 113 149 44 221 54 l 221 661 b 82 731 221 718 149 729 l 82 774 l 468 774 l 468 731 b 329 661 401 729 329 718 "},"":{"ha":843,"x_min":0,"x_max":0,"o":"m 329 661 b 468 731 329 718 401 729 l 468 774 l 82 774 l 82 731 b 221 661 149 729 221 718 l 221 113 b 82 43 221 54 149 44 l 82 0 l 754 0 l 796 229 l 761 229 b 561 56 689 99 657 56 l 436 56 b 329 129 363 56 329 71 "},"":{"ha":1242,"x_min":0,"x_max":0,"o":"m 894 613 l 633 0 l 585 0 l 306 614 l 249 164 b 243 107 246 143 243 121 b 368 43 243 56 275 47 l 368 0 l 64 0 l 64 43 b 175 106 131 44 169 58 l 246 664 b 135 731 246 713 201 729 l 135 774 l 361 774 b 379 708 364 749 369 731 l 632 143 l 869 708 b 888 774 881 735 885 749 l 1107 774 l 1107 731 b 996 664 1040 729 996 713 l 1067 106 b 1178 43 1072 58 1111 44 l 1178 0 l 833 0 l 833 43 b 958 107 926 47 958 56 b 953 164 958 121 956 143 "},"":{"ha":1242,"x_min":0,"x_max":0,"o":"m 953 164 b 958 107 956 143 958 121 b 833 43 958 56 926 47 l 833 0 l 1178 0 l 1178 43 b 1067 106 1111 44 1072 58 l 996 664 b 1107 731 996 713 1040 729 l 1107 774 l 888 774 b 869 708 885 749 881 735 l 632 143 l 379 708 b 361 774 369 731 364 749 l 135 774 l 135 731 b 246 664 201 729 246 713 l 175 106 b 64 43 169 58 131 44 l 64 0 l 368 0 l 368 43 b 243 107 275 47 243 56 b 249 164 243 121 246 143 l 306 614 l 585 0 l 633 0 l 894 613 "},"":{"ha":1092,"x_min":0,"x_max":0,"o":"m 818 661 b 679 731 818 718 744 729 l 679 774 l 1022 774 l 1022 731 b 883 661 956 729 883 718 l 883 0 l 835 0 l 286 644 l 286 113 b 425 43 286 54 358 44 l 425 0 l 82 0 l 82 43 b 221 113 149 44 221 54 l 221 678 b 86 731 182 724 151 731 l 86 774 l 318 774 l 818 183 "},"":{"ha":1092,"x_min":0,"x_max":0,"o":"m 818 183 l 318 774 l 86 774 l 86 731 b 221 678 151 731 182 724 l 221 113 b 82 43 221 54 149 44 l 82 0 l 425 0 l 425 43 b 286 113 358 44 286 54 l 286 644 l 835 0 l 883 0 l 883 661 b 1022 731 883 718 956 729 l 1022 774 l 679 774 l 679 731 b 818 661 744 729 818 718 "},"":{"ha":951,"x_min":0,"x_max":0,"o":"m 464 -14 b 65 371 213 -14 65 181 b 488 788 65 622 251 788 b 886 403 739 788 886 593 b 464 -14 886 151 700 -14 m 497 54 b 769 374 678 54 769 196 b 454 719 769 569 653 719 b 182 400 274 719 182 578 b 497 54 182 204 299 54 "},"":{"ha":951,"x_min":0,"x_max":0,"o":"m 464 -14 b 886 403 700 -14 886 151 b 488 788 886 593 739 788 b 65 371 251 788 65 622 b 464 -14 65 181 213 -14 m 497 54 b 182 400 299 54 182 204 b 454 719 182 578 274 719 b 769 374 653 719 769 569 b 497 54 769 196 678 54 "},"":{"ha":951,"x_min":0,"x_max":0,"o":"m 440 -12 b 65 371 203 -1 65 186 b 488 788 65 622 251 788 b 886 403 739 788 886 593 b 551 -6 886 183 744 29 l 724 -115 b 846 -146 767 -143 804 -146 l 885 -146 l 885 -174 b 754 -208 864 -190 808 -208 b 579 -139 682 -208 629 -183 m 497 54 b 769 374 678 54 769 196 b 454 719 769 569 653 719 b 182 400 274 719 182 578 b 497 54 182 204 299 54 "},"":{"ha":951,"x_min":0,"x_max":0,"o":"m 579 -139 b 754 -208 629 -183 682 -208 b 885 -174 808 -208 864 -190 l 885 -146 l 846 -146 b 724 -115 804 -146 767 -143 l 551 -6 b 886 403 744 29 886 183 b 488 788 886 593 739 788 b 65 371 251 788 65 622 b 440 -12 65 186 203 -1 m 497 54 b 182 400 299 54 182 204 b 454 719 182 578 274 719 b 769 374 653 719 769 569 b 497 54 769 196 678 54 "},"":{"ha":942,"x_min":0,"x_max":0,"o":"m 328 113 b 468 43 328 54 401 44 l 468 0 l 82 0 l 82 43 b 221 113 149 44 221 54 l 221 661 b 82 731 221 718 149 729 l 82 774 l 469 774 b 761 567 715 774 761 660 b 519 369 761 438 644 376 b 643 281 563 360 610 321 l 786 107 b 919 43 825 60 867 50 l 919 0 l 765 0 b 660 94 728 22 700 46 l 488 299 b 364 363 451 342 421 363 l 328 363 m 328 718 l 328 414 l 450 414 b 643 571 586 414 643 458 b 450 718 643 657 592 718 "},"":{"ha":942,"x_min":0,"x_max":0,"o":"m 328 363 l 364 363 b 488 299 421 363 451 342 l 660 94 b 765 0 700 46 728 22 l 919 0 l 919 43 b 786 107 867 50 825 60 l 643 281 b 519 369 610 321 563 360 b 761 567 644 376 761 438 b 469 774 761 660 715 774 l 82 774 l 82 731 b 221 661 149 729 221 718 l 221 113 b 82 43 221 54 149 44 l 82 0 l 468 0 l 468 43 b 328 113 401 44 328 54 m 450 718 b 643 571 592 718 643 657 b 450 414 643 458 586 414 l 328 414 l 328 718 "},"":{"ha":722,"x_min":0,"x_max":0,"o":"m 338 -14 b 97 57 243 -14 144 15 l 88 251 l 122 251 b 346 49 160 122 232 49 b 532 189 456 49 532 89 b 400 331 532 265 494 301 l 278 368 b 92 579 167 401 92 457 b 354 788 92 700 192 788 b 600 717 456 788 550 757 l 600 536 l 564 536 b 343 725 533 661 481 725 b 193 596 250 725 193 678 b 308 464 193 519 232 488 l 436 425 b 635 204 551 390 635 328 b 338 -14 635 60 517 -14 "},"":{"ha":722,"x_min":0,"x_max":0,"o":"m 338 -14 b 635 204 517 -14 635 60 b 436 425 635 328 551 390 l 308 464 b 193 596 232 488 193 519 b 343 725 193 678 250 725 b 564 536 481 725 533 661 l 600 536 l 600 717 b 354 788 550 757 456 788 b 92 579 192 788 92 700 b 278 368 92 457 167 401 l 400 331 b 532 189 494 301 532 265 b 346 49 532 89 456 49 b 122 251 232 49 160 122 l 88 251 l 97 57 b 338 -14 144 15 243 -14 "},"":{"ha":853,"x_min":0,"x_max":0,"o":"m 372 719 l 261 719 b 81 553 161 719 138 668 l 47 553 l 64 774 l 789 774 l 806 553 l 772 553 b 592 719 715 668 692 719 l 481 719 l 481 113 b 619 43 481 54 553 44 l 619 0 l 233 0 l 233 43 b 372 113 300 44 372 54 "},"":{"ha":853,"x_min":0,"x_max":0,"o":"m 372 113 b 233 43 372 54 300 44 l 233 0 l 619 0 l 619 43 b 481 113 553 44 481 54 l 481 719 l 592 719 b 772 553 692 719 715 668 l 806 553 l 789 774 l 64 774 l 47 553 l 81 553 b 261 719 138 668 161 719 l 372 719 "},"":{"ha":976,"x_min":0,"x_max":0,"o":"m 807 263 b 497 -14 807 88 656 -14 b 169 272 300 -14 169 89 l 169 661 b 31 731 169 719 97 729 l 31 774 l 417 774 l 417 731 b 278 661 350 729 278 719 l 278 299 b 499 56 278 139 368 56 b 742 300 638 56 742 125 l 742 661 b 603 731 742 718 668 729 l 603 774 l 946 774 l 946 731 b 807 661 879 729 807 718 "},"":{"ha":976,"x_min":0,"x_max":0,"o":"m 807 661 b 946 731 807 718 879 729 l 946 774 l 603 774 l 603 731 b 742 661 668 729 742 718 l 742 300 b 499 56 742 125 638 56 b 278 299 368 56 278 139 l 278 661 b 417 731 278 719 350 729 l 417 774 l 31 774 l 31 731 b 169 661 97 729 169 719 l 169 272 b 497 -14 169 89 300 -14 b 807 263 656 -14 807 88 "},"":{"ha":903,"x_min":0,"x_max":0,"o":"m 694 638 b 707 683 701 653 707 671 b 592 731 707 718 671 726 l 592 774 l 875 774 l 875 731 b 794 696 840 731 808 726 l 483 -8 l 450 -8 l 108 696 b 28 731 93 726 63 731 l 28 774 l 358 774 l 358 731 b 243 683 279 726 243 718 b 256 638 243 671 249 653 l 485 143 "},"":{"ha":903,"x_min":0,"x_max":0,"o":"m 485 143 l 256 638 b 243 683 249 653 243 671 b 358 731 243 718 279 726 l 358 774 l 28 774 l 28 731 b 108 696 63 731 93 726 l 450 -8 l 483 -8 l 794 696 b 875 731 808 726 840 731 l 875 774 l 592 774 l 592 731 b 707 683 671 726 707 718 b 694 638 707 671 701 653 "},"":{"ha":1240,"x_min":0,"x_max":0,"o":"m 639 461 l 436 -8 l 406 -8 l 108 696 b 28 731 94 728 63 731 l 28 774 l 349 774 l 349 731 b 233 683 269 726 233 718 b 246 638 233 671 239 653 l 450 157 l 610 532 l 543 696 b 463 731 529 728 497 731 l 463 774 l 781 774 l 781 731 b 665 683 701 726 665 718 b 678 636 665 671 672 651 l 867 160 l 1040 636 b 1053 683 1046 651 1053 671 b 938 731 1053 718 1017 726 l 938 774 l 1213 774 l 1213 731 b 1132 696 1178 731 1144 728 l 864 -8 l 833 -8 "},"":{"ha":1240,"x_min":0,"x_max":0,"o":"m 833 -8 l 864 -8 l 1132 696 b 1213 731 1144 728 1178 731 l 1213 774 l 938 774 l 938 731 b 1053 683 1017 726 1053 718 b 1040 636 1053 671 1046 651 l 867 160 l 678 636 b 665 683 672 651 665 671 b 781 731 665 718 701 726 l 781 774 l 463 774 l 463 731 b 543 696 497 731 529 728 l 610 532 l 450 157 l 246 638 b 233 683 239 653 233 671 b 349 731 233 718 269 726 l 349 774 l 28 774 l 28 731 b 108 696 63 731 94 728 l 406 -8 l 436 -8 l 639 461 "},"":{"ha":842,"x_min":0,"x_max":0,"o":"m 372 311 l 108 696 b 28 731 89 725 61 731 l 28 774 l 364 774 l 364 731 b 246 683 285 731 246 718 b 260 642 246 668 250 657 l 443 369 l 625 640 b 640 683 635 656 640 668 b 521 731 640 718 599 731 l 521 774 l 814 774 l 814 731 b 733 696 779 731 753 724 l 475 313 l 475 113 b 614 43 475 54 547 44 l 614 0 l 233 0 l 233 43 b 372 113 300 44 372 54 "},"":{"ha":842,"x_min":0,"x_max":0,"o":"m 372 113 b 233 43 372 54 300 44 l 233 0 l 614 0 l 614 43 b 475 113 547 44 475 54 l 475 313 l 733 696 b 814 731 753 724 779 731 l 814 774 l 521 774 l 521 731 b 640 683 599 731 640 718 b 625 640 640 668 635 656 l 443 369 l 260 642 b 246 683 250 657 246 668 b 364 731 246 718 285 731 l 364 774 l 28 774 l 28 731 b 108 696 61 731 89 725 l 372 311 "},"":{"ha":836,"x_min":0,"x_max":0,"o":"m 107 774 l 728 774 l 728 751 l 213 56 l 526 56 b 722 226 621 56 642 93 l 754 226 l 713 0 l 68 0 l 68 25 l 579 718 l 294 718 b 136 579 206 718 176 671 l 103 579 "},"":{"ha":836,"x_min":0,"x_max":0,"o":"m 103 579 l 136 579 b 294 718 176 671 206 718 l 579 718 l 68 25 l 68 0 l 713 0 l 754 226 l 722 226 b 526 56 642 93 621 56 l 213 56 l 728 751 l 728 774 l 107 774 "},"":{"ha":1958,"x_min":0,"x_max":0,"o":"m 694 796 b 986 1125 694 1004 810 1125 b 1186 1064 1075 1125 1149 1093 l 1264 1125 l 1310 1125 l 1303 1006 l 1303 604 b 1568 740 1361 682 1457 740 b 1899 406 1779 740 1899 585 b 1500 -14 1899 144 1711 -14 b 1197 90 1360 -14 1254 35 l 1197 935 b 974 1069 1165 1004 1083 1069 b 800 833 846 1069 800 981 l 800 726 l 997 726 l 997 667 l 800 667 l 800 128 b 946 40 800 56 838 51 l 946 0 l 576 0 l 576 40 b 694 119 640 49 694 56 l 694 667 l 297 667 l 297 128 b 443 40 297 56 335 51 l 443 0 l 74 0 l 74 40 b 192 119 138 49 192 56 l 192 667 l 85 667 l 85 699 l 192 740 l 192 782 b 467 1111 192 986 283 1111 b 636 993 571 1111 636 1068 b 597 928 636 961 618 938 l 535 928 l 535 953 b 431 1051 535 1022 499 1051 b 297 832 333 1051 297 976 l 297 726 l 694 726 m 1514 53 b 1790 351 1679 53 1790 160 b 1531 656 1790 522 1707 656 b 1303 547 1435 656 1356 607 l 1303 225 b 1514 53 1303 81 1410 53 "},"":{"ha":1986,"x_min":0,"x_max":0,"o":"m 1197 935 b 974 1069 1165 1004 1083 1069 b 800 833 846 1069 800 981 l 800 726 l 997 726 l 997 667 l 800 667 l 800 128 b 946 40 800 56 838 51 l 946 0 l 576 0 l 576 40 b 694 119 640 49 694 56 l 694 667 l 297 667 l 297 128 b 443 40 297 56 335 51 l 443 0 l 74 0 l 74 40 b 192 119 138 49 192 56 l 192 667 l 85 667 l 85 699 l 192 740 l 192 782 b 467 1111 192 986 283 1111 b 636 993 571 1111 636 1068 b 597 928 636 961 618 938 l 535 928 l 535 953 b 431 1051 535 1022 499 1051 b 297 832 333 1051 297 976 l 297 726 l 694 726 l 694 796 b 986 1125 694 1004 810 1125 b 1186 1064 1075 1125 1149 1093 l 1264 1125 l 1310 1125 l 1303 1006 l 1303 597 b 1589 740 1364 664 1471 740 b 1821 513 1724 740 1821 678 l 1821 119 b 1939 40 1821 56 1875 49 l 1939 0 l 1597 0 l 1597 40 b 1715 119 1661 49 1715 56 l 1715 497 b 1554 651 1715 611 1653 651 b 1303 542 1469 651 1367 600 l 1303 119 b 1419 40 1303 56 1356 49 l 1419 0 l 1079 0 l 1079 40 b 1197 119 1143 49 1197 56 "},"":{"ha":1425,"x_min":0,"x_max":0,"o":"m 1075 -321 l 1144 -211 b 1197 46 1190 -140 1197 -62 l 1197 667 l 800 667 l 800 128 b 946 40 800 56 838 51 l 946 0 l 576 0 l 576 40 b 694 119 640 49 694 56 l 694 667 l 297 667 l 297 128 b 443 40 297 56 335 51 l 443 0 l 74 0 l 74 40 b 192 119 138 49 192 56 l 192 667 l 85 667 l 85 699 l 192 740 l 192 782 b 467 1111 192 986 283 1111 b 636 993 571 1111 636 1068 b 597 928 636 961 618 938 l 535 928 l 535 953 b 431 1051 535 1022 499 1051 b 297 832 333 1051 297 976 l 297 726 l 694 726 l 694 779 b 1022 1125 694 990 828 1125 b 1225 1000 1138 1125 1225 1075 b 1186 929 1225 968 1207 939 l 1107 929 l 1107 954 b 986 1065 1107 1024 1065 1065 b 800 794 861 1065 800 963 l 800 726 l 1310 726 l 1303 589 l 1303 68 b 1276 -135 1303 -43 1301 -76 b 1104 -347 1249 -201 1167 -285 "},"":{"ha":1425,"x_min":0,"x_max":0,"o":"m 1104 -347 b 1276 -135 1167 -285 1249 -201 b 1303 68 1301 -76 1303 -43 l 1303 589 l 1310 726 l 800 726 l 800 794 b 986 1065 800 963 861 1065 b 1107 954 1065 1065 1107 1024 l 1107 929 l 1186 929 b 1225 1000 1207 939 1225 968 b 1022 1125 1225 1075 1138 1125 b 694 779 828 1125 694 990 l 694 726 l 297 726 l 297 832 b 431 1051 297 976 333 1051 b 535 953 499 1051 535 1022 l 535 928 l 597 928 b 636 993 618 938 636 961 b 467 1111 636 1068 571 1111 b 192 782 283 1111 192 986 l 192 740 l 85 699 l 85 667 l 192 667 l 192 119 b 74 40 192 56 138 49 l 74 0 l 443 0 l 443 40 b 297 128 335 51 297 56 l 297 667 l 694 667 l 694 119 b 576 40 694 56 640 49 l 576 0 l 946 0 l 946 40 b 800 128 838 51 800 56 l 800 667 l 1197 667 l 1197 46 b 1144 -211 1197 -62 1190 -140 l 1075 -321 "},"":{"ha":1861,"x_min":0,"x_max":0,"o":"m 1197 935 b 974 1069 1165 1004 1083 1069 b 800 833 846 1069 800 981 l 800 726 l 997 726 l 997 667 l 800 667 l 800 128 b 946 40 800 56 838 51 l 946 0 l 576 0 l 576 40 b 694 119 640 49 694 56 l 694 667 l 297 667 l 297 128 b 443 40 297 56 335 51 l 443 0 l 74 0 l 74 40 b 192 119 138 49 192 56 l 192 667 l 85 667 l 85 699 l 192 740 l 192 782 b 467 1111 192 986 283 1111 b 636 993 571 1111 636 1068 b 597 928 636 961 618 938 l 535 928 l 535 953 b 431 1051 535 1022 499 1051 b 297 832 333 1051 297 976 l 297 726 l 694 726 l 694 796 b 986 1125 694 1004 810 1125 b 1186 1064 1075 1125 1149 1093 l 1264 1125 l 1310 1125 l 1303 1006 l 1303 119 b 1419 40 1303 56 1356 49 l 1419 0 l 1081 0 l 1081 40 b 1197 119 1144 49 1197 56 m 1576 606 b 1596 639 1588 617 1596 626 b 1499 686 1596 671 1572 676 l 1499 726 l 1808 726 l 1808 686 b 1701 642 1751 671 1731 668 l 1429 396 l 1856 31 l 1856 0 l 1739 0 l 1311 365 "},"":{"ha":1861,"x_min":0,"x_max":0,"o":"m 1197 119 b 1081 40 1197 56 1144 49 l 1081 0 l 1419 0 l 1419 40 b 1303 119 1356 49 1303 56 l 1303 1006 l 1310 1125 l 1264 1125 l 1186 1064 b 986 1125 1149 1093 1075 1125 b 694 796 810 1125 694 1004 l 694 726 l 297 726 l 297 832 b 431 1051 297 976 333 1051 b 535 953 499 1051 535 1022 l 535 928 l 597 928 b 636 993 618 938 636 961 b 467 1111 636 1068 571 1111 b 192 782 283 1111 192 986 l 192 740 l 85 699 l 85 667 l 192 667 l 192 119 b 74 40 192 56 138 49 l 74 0 l 443 0 l 443 40 b 297 128 335 51 297 56 l 297 667 l 694 667 l 694 119 b 576 40 694 56 640 49 l 576 0 l 946 0 l 946 40 b 800 128 838 51 800 56 l 800 667 l 997 667 l 997 726 l 800 726 l 800 833 b 974 1069 800 981 846 1069 b 1197 935 1083 1069 1165 1004 m 1311 365 l 1739 0 l 1856 0 l 1856 31 l 1429 396 l 1701 642 b 1808 686 1731 668 1751 671 l 1808 726 l 1499 726 l 1499 686 b 1596 639 1572 676 1596 671 b 1576 606 1596 626 1588 617 "},"":{"ha":1244,"x_min":0,"x_max":0,"o":"m 261 232 l 211 136 b 199 90 203 121 199 103 b 314 43 199 56 235 47 l 314 0 l 28 0 l 28 43 b 108 78 63 43 93 49 l 443 711 b 335 731 414 724 388 728 l 335 774 l 1104 774 l 1107 594 l 1079 594 b 915 718 1036 694 1003 718 l 606 718 l 663 429 l 889 429 b 965 531 939 429 960 463 l 1004 531 l 1004 274 l 965 274 b 889 375 960 340 939 375 l 672 375 l 722 111 b 793 56 729 79 757 56 l 922 56 b 1115 217 1015 56 1046 101 l 1146 217 l 1108 0 l 481 0 l 481 39 b 608 101 561 39 608 46 b 600 158 608 110 608 119 l 585 232 m 290 286 l 575 286 l 500 675 l 497 675 "},"":{"ha":1244,"x_min":0,"x_max":0,"o":"m 585 232 l 600 158 b 608 101 608 119 608 110 b 481 39 608 46 561 39 l 481 0 l 1108 0 l 1146 217 l 1115 217 b 922 56 1046 101 1015 56 l 793 56 b 722 111 757 56 729 79 l 672 375 l 889 375 b 965 274 939 375 960 340 l 1004 274 l 1004 531 l 965 531 b 889 429 960 463 939 429 l 663 429 l 606 718 l 915 718 b 1079 594 1003 718 1036 694 l 1107 594 l 1104 774 l 335 774 l 335 731 b 443 711 388 728 414 724 l 108 78 b 28 43 93 49 63 43 l 28 0 l 314 0 l 314 43 b 199 90 235 47 199 56 b 211 136 199 103 203 121 l 261 232 m 497 675 l 500 675 l 575 286 l 290 286 "},"":{"ha":972,"x_min":0,"x_max":0,"o":"m 82 428 l 221 428 l 221 665 b 82 735 221 722 149 733 l 82 774 l 485 774 b 907 413 782 774 907 589 b 508 0 907 150 732 0 l 82 0 l 82 39 b 221 108 149 40 221 50 l 221 374 l 82 374 m 331 719 l 331 428 l 533 428 l 533 374 l 331 374 l 331 132 b 438 54 331 68 361 54 l 504 54 b 785 367 656 54 785 143 b 446 719 785 567 700 719 "},"":{"ha":972,"x_min":0,"x_max":0,"o":"m 82 374 l 221 374 l 221 108 b 82 39 221 50 149 40 l 82 0 l 508 0 b 907 413 732 0 907 150 b 485 774 907 589 782 774 l 82 774 l 82 735 b 221 665 149 733 221 722 l 221 428 l 82 428 m 446 719 b 785 367 700 719 785 567 b 504 54 785 143 656 54 l 438 54 b 331 132 361 54 331 68 l 331 374 l 533 374 l 533 428 l 331 428 l 331 719 "},"":{"ha":1113,"x_min":0,"x_max":0,"o":"m 96 607 l 221 607 l 221 661 b 82 731 221 719 149 729 l 82 774 l 468 774 l 468 731 b 329 661 401 729 329 719 l 329 607 l 783 607 l 783 661 b 644 731 783 719 711 729 l 644 774 l 1031 774 l 1031 731 b 892 661 964 729 892 719 l 892 607 l 1017 607 l 1017 551 l 892 551 l 892 113 b 1031 43 892 54 964 44 l 1031 0 l 644 0 l 644 43 b 783 113 711 44 783 54 l 783 375 l 329 375 l 329 113 b 468 43 329 54 401 44 l 468 0 l 82 0 l 82 43 b 221 113 149 44 221 54 l 221 551 l 96 551 m 783 431 l 783 551 l 329 551 l 329 431 "},"":{"ha":1113,"x_min":0,"x_max":0,"o":"m 96 551 l 221 551 l 221 113 b 82 43 221 54 149 44 l 82 0 l 468 0 l 468 43 b 329 113 401 44 329 54 l 329 375 l 783 375 l 783 113 b 644 43 783 54 711 44 l 644 0 l 1031 0 l 1031 43 b 892 113 964 44 892 54 l 892 551 l 1017 551 l 1017 607 l 892 607 l 892 661 b 1031 731 892 719 964 729 l 1031 774 l 644 774 l 644 731 b 783 661 711 729 783 719 l 783 607 l 329 607 l 329 661 b 468 731 329 719 401 729 l 468 774 l 82 774 l 82 731 b 221 661 149 729 221 719 l 221 607 l 96 607 m 329 431 l 329 551 l 783 551 l 783 431 "},"":{"ha":843,"x_min":0,"x_max":0,"o":"m 329 406 l 550 504 l 550 443 l 329 344 l 329 129 b 436 56 329 71 363 56 l 561 56 b 761 229 657 56 689 99 l 796 229 l 754 0 l 82 0 l 82 43 b 221 113 149 44 221 54 l 221 296 l 82 235 l 82 296 l 221 357 l 221 661 b 82 731 221 718 149 729 l 82 774 l 468 774 l 468 731 b 329 661 401 729 329 718 "},"":{"ha":843,"x_min":0,"x_max":0,"o":"m 329 661 b 468 731 329 718 401 729 l 468 774 l 82 774 l 82 731 b 221 661 149 729 221 718 l 221 357 l 82 296 l 82 235 l 221 296 l 221 113 b 82 43 221 54 149 44 l 82 0 l 754 0 l 796 229 l 761 229 b 561 56 689 99 657 56 l 436 56 b 329 129 363 56 329 71 l 329 344 l 550 443 l 550 504 l 329 406 "},"":{"ha":951,"x_min":0,"x_max":0,"o":"m 464 -14 b 218 64 364 -14 282 17 l 111 -46 l 72 -6 l 175 101 b 65 371 104 174 65 272 b 488 788 65 622 251 788 b 749 696 594 788 683 751 l 843 794 l 886 754 l 790 656 b 886 403 853 585 886 493 b 464 -14 886 151 700 -14 m 182 400 b 247 176 182 313 204 236 l 681 625 b 454 719 626 683 550 719 b 182 400 274 719 182 578 m 497 54 b 769 374 678 54 769 196 b 717 579 769 451 751 522 l 285 133 b 497 54 338 83 410 54 "},"":{"ha":951,"x_min":0,"x_max":0,"o":"m 464 -14 b 886 403 700 -14 886 151 b 790 656 886 493 853 585 l 886 754 l 843 794 l 749 696 b 488 788 683 751 594 788 b 65 371 251 788 65 622 b 175 101 65 272 104 174 l 72 -6 l 111 -46 l 218 64 b 464 -14 282 17 364 -14 m 182 400 b 454 719 182 578 274 719 b 681 625 550 719 626 683 l 247 176 b 182 400 204 236 182 313 m 497 54 b 285 133 410 54 338 83 l 717 579 b 769 374 751 522 769 451 b 497 54 769 196 678 54 "},"":{"ha":1383,"x_min":0,"x_max":0,"o":"m 464 -14 b 65 371 213 -14 65 181 b 488 788 65 622 251 788 b 599 774 526 788 564 782 l 1243 774 l 1246 594 l 1218 594 b 1054 718 1175 694 1142 718 l 721 718 b 885 429 819 650 876 540 l 1028 429 b 1104 531 1078 429 1099 463 l 1143 531 l 1143 274 l 1104 274 b 1028 375 1099 340 1078 375 l 885 375 b 707 56 878 233 810 122 l 1061 56 b 1254 217 1154 56 1185 101 l 1285 217 l 1247 0 l 579 0 b 464 -14 542 -8 504 -14 m 497 54 b 769 374 678 54 769 196 b 454 719 769 569 653 719 b 182 400 274 719 182 578 b 497 54 182 204 299 54 "},"":{"ha":1383,"x_min":0,"x_max":0,"o":"m 464 -14 b 579 0 504 -14 542 -8 l 1247 0 l 1285 217 l 1254 217 b 1061 56 1185 101 1154 56 l 707 56 b 885 375 810 122 878 233 l 1028 375 b 1104 274 1078 375 1099 340 l 1143 274 l 1143 531 l 1104 531 b 1028 429 1099 463 1078 429 l 885 429 b 721 718 876 540 819 650 l 1054 718 b 1218 594 1142 718 1175 694 l 1246 594 l 1243 774 l 599 774 b 488 788 564 782 526 788 b 65 371 251 788 65 622 b 464 -14 65 181 213 -14 m 497 54 b 182 400 299 54 182 204 b 454 719 182 578 274 719 b 769 374 653 719 769 569 b 497 54 769 196 678 54 "},"":{"ha":853,"x_min":0,"x_max":0,"o":"m 231 401 l 372 401 l 372 719 l 261 719 b 81 553 161 719 138 668 l 47 553 l 64 774 l 789 774 l 806 553 l 772 553 b 592 719 715 668 692 719 l 481 719 l 481 401 l 621 401 l 621 347 l 481 347 l 481 113 b 619 43 481 54 553 44 l 619 0 l 233 0 l 233 43 b 372 113 300 44 372 54 l 372 347 l 231 347 "},"":{"ha":853,"x_min":0,"x_max":0,"o":"m 231 347 l 372 347 l 372 113 b 233 43 372 54 300 44 l 233 0 l 619 0 l 619 43 b 481 113 553 44 481 54 l 481 347 l 621 347 l 621 401 l 481 401 l 481 719 l 592 719 b 772 553 692 719 715 668 l 806 553 l 789 774 l 64 774 l 47 553 l 81 553 b 261 719 138 668 161 719 l 372 719 l 372 401 l 231 401 "},"":{"ha":1167,"x_min":0,"x_max":0,"o":"m 329 113 b 468 43 329 54 401 44 l 468 0 l 82 0 l 82 43 b 221 113 149 44 221 54 l 221 661 b 82 731 221 719 149 729 l 82 774 l 468 774 l 468 731 b 329 661 401 729 329 719 m 890 661 b 751 731 890 719 818 729 l 751 774 l 1138 774 l 1138 731 b 999 661 1071 729 999 719 l 999 213 b 744 -14 999 72 897 -14 b 514 131 611 -14 514 42 b 557 206 514 164 532 193 l 631 206 l 631 165 b 751 36 631 90 671 36 b 890 207 842 36 890 96 "},"":{"ha":1167,"x_min":0,"x_max":0,"o":"m 329 661 b 468 731 329 719 401 729 l 468 774 l 82 774 l 82 731 b 221 661 149 729 221 719 l 221 113 b 82 43 221 54 149 44 l 82 0 l 468 0 l 468 43 b 329 113 401 44 329 54 m 890 207 b 751 36 890 96 842 36 b 631 165 671 36 631 90 l 631 206 l 557 206 b 514 131 532 193 514 164 b 744 -14 514 42 611 -14 b 999 213 897 -14 999 72 l 999 661 b 1138 731 999 719 1071 729 l 1138 774 l 751 774 l 751 731 b 890 661 818 729 890 719 "},"":{"ha":1092,"x_min":0,"x_max":0,"o":"m 286 644 l 286 113 b 425 43 286 54 358 44 l 425 0 l 82 0 l 82 43 b 221 113 149 44 221 54 l 221 678 b 86 731 182 724 151 731 l 86 774 l 318 774 l 818 183 l 818 661 b 679 731 818 718 744 729 l 679 774 l 1022 774 l 1022 731 b 883 661 956 729 883 718 l 883 -96 b 647 -347 883 -233 843 -347 b 447 -215 547 -347 447 -306 b 493 -136 447 -181 471 -150 l 560 -136 l 560 -172 b 674 -289 560 -240 594 -289 b 818 -118 760 -289 818 -244 l 818 21 "},"":{"ha":1092,"x_min":0,"x_max":0,"o":"m 818 21 l 818 -118 b 674 -289 818 -244 760 -289 b 560 -172 594 -289 560 -240 l 560 -136 l 493 -136 b 447 -215 471 -150 447 -181 b 647 -347 447 -306 547 -347 b 883 -96 843 -347 883 -233 l 883 661 b 1022 731 883 718 956 729 l 1022 774 l 679 774 l 679 731 b 818 661 744 729 818 718 l 818 183 l 318 774 l 86 774 l 86 731 b 221 678 151 731 182 724 l 221 113 b 82 43 221 54 149 44 l 82 0 l 425 0 l 425 43 b 286 113 358 44 286 54 l 286 644 "},"":{"ha":972,"x_min":0,"x_max":0,"o":"m 82 428 l 221 428 l 221 665 b 82 735 221 722 149 733 l 82 774 l 485 774 b 907 413 782 774 907 589 b 508 0 907 150 732 0 l 82 0 l 82 39 b 221 108 149 40 221 50 l 221 374 l 82 374 m 331 719 l 331 428 l 533 428 l 533 374 l 331 374 l 331 132 b 438 54 331 68 361 54 l 504 54 b 785 367 656 54 785 143 b 446 719 785 567 700 719 "},"":{"ha":972,"x_min":0,"x_max":0,"o":"m 82 374 l 221 374 l 221 108 b 82 39 221 50 149 40 l 82 0 l 508 0 b 907 413 732 0 907 150 b 485 774 907 589 782 774 l 82 774 l 82 735 b 221 665 149 733 221 722 l 221 428 l 82 428 m 446 719 b 785 367 700 719 785 567 b 504 54 785 143 656 54 l 438 54 b 331 132 361 54 331 68 l 331 374 l 533 374 l 533 428 l 331 428 l 331 719 "},"":{"ha":621,"x_min":0,"x_max":0,"o":"m 308 1007 b 469 953 372 1007 435 986 l 522 1014 l 549 1014 l 544 907 l 544 353 b 621 297 544 308 576 303 l 621 258 l 369 258 l 369 297 b 447 353 414 303 447 308 l 447 568 b 268 479 406 515 342 479 b 39 719 119 479 39 586 b 308 1007 39 896 163 1007 m 306 951 b 139 750 204 951 139 881 b 306 556 139 660 181 556 b 447 614 363 556 414 582 l 447 810 b 306 951 447 901 381 951 "},"":{"ha":585,"x_min":0,"x_max":0,"o":"m 472 615 b 518 550 472 574 489 550 b 558 557 525 550 546 553 l 568 525 b 468 479 535 493 504 479 b 378 567 418 479 394 514 b 200 479 342 528 288 479 b 54 611 104 479 54 536 b 189 742 54 700 115 721 l 374 796 l 374 817 b 257 957 374 896 338 957 b 174 886 203 957 174 935 b 179 840 174 878 176 858 l 97 831 b 76 882 85 843 76 858 b 275 1007 76 960 168 1007 b 472 822 394 1007 472 958 m 244 550 b 374 608 299 550 329 575 l 374 750 l 210 697 b 157 632 176 686 157 667 b 244 550 157 578 192 550 "},"":{"ha":625,"x_min":0,"x_max":0,"o":"m 10 1194 l 10 1217 l 150 1265 l 183 1265 l 179 1183 l 179 918 b 361 1007 221 971 286 1007 b 588 767 508 1007 588 899 b 311 479 588 589 461 479 b 82 542 203 479 122 513 l 82 1167 m 321 535 b 488 726 421 535 488 603 b 325 932 488 825 449 932 b 179 871 267 932 211 904 l 179 656 b 321 535 179 565 249 535 "},"":{"ha":533,"x_min":0,"x_max":0,"o":"m 132 763 b 314 564 132 639 194 564 b 479 640 392 564 447 601 l 507 628 b 283 479 485 557 419 479 b 39 726 115 479 39 606 b 314 1007 39 896 156 1007 b 496 882 425 1007 496 953 b 458 821 496 853 481 831 l 390 821 l 390 861 b 297 951 390 919 364 951 b 132 763 201 951 132 883 "},"":{"ha":654,"x_min":0,"x_max":0,"o":"m 456 479 l 442 479 l 447 568 b 268 479 406 515 342 479 b 39 719 119 479 39 586 b 308 1007 39 896 163 1007 b 447 967 372 1007 415 989 l 447 1167 l 375 1194 l 375 1217 l 515 1265 l 549 1265 l 544 1183 l 544 600 b 600 556 544 567 554 558 l 625 553 l 625 513 m 306 951 b 139 750 204 951 139 881 b 306 556 139 660 181 556 b 447 614 363 556 414 582 l 447 824 b 306 951 447 915 375 951 "},"":{"ha":543,"x_min":0,"x_max":0,"o":"m 292 1007 b 507 803 432 1007 507 918 l 507 776 l 131 776 b 315 564 132 646 188 564 b 478 640 393 564 449 601 l 507 628 b 283 479 486 557 421 479 b 39 726 129 479 39 589 b 292 1007 39 896 146 1007 m 268 947 b 133 824 193 947 144 896 l 399 824 b 268 947 399 892 353 947 "},"":{"ha":389,"x_min":0,"x_max":0,"o":"m 226 586 b 322 528 226 538 251 535 l 322 489 l 53 489 l 53 528 b 129 582 97 533 129 538 l 129 944 l 56 944 l 56 978 l 129 1011 l 129 1038 b 347 1265 129 1182 215 1265 b 481 1179 436 1265 481 1232 b 454 1122 481 1156 468 1132 l 381 1122 l 381 1153 b 324 1214 381 1204 356 1214 b 226 1072 260 1214 226 1172 l 226 997 l 358 997 l 358 944 l 226 944 "},"":{"ha":571,"x_min":0,"x_max":0,"o":"m 286 1007 b 371 993 319 1007 349 1000 l 558 997 l 558 931 l 519 931 l 406 946 b 489 818 453 924 489 876 b 276 642 489 704 399 642 b 172 657 236 642 196 650 b 139 603 157 646 139 624 b 185 561 139 575 156 561 l 400 561 b 557 431 500 561 557 517 b 264 249 557 329 456 249 b 29 378 94 249 29 315 b 126 478 29 435 79 456 b 58 565 86 492 58 526 b 143 672 58 624 101 651 b 65 814 93 704 65 751 b 286 1007 65 935 157 1007 m 290 690 b 386 807 357 690 386 740 b 263 956 386 872 351 956 b 165 839 197 956 165 906 b 290 690 165 774 204 690 m 146 467 b 122 397 125 443 122 421 b 268 300 122 336 172 300 b 469 400 393 300 469 333 b 379 467 469 457 433 467 "},"":{"ha":672,"x_min":0,"x_max":0,"o":"m 42 1194 l 42 1217 l 182 1265 l 217 1265 l 211 1183 l 211 914 b 406 1007 253 960 331 1007 b 565 849 500 1007 565 961 l 565 582 b 643 528 565 538 599 533 l 643 489 l 392 489 l 392 528 b 467 582 436 533 467 538 l 467 836 b 368 928 467 907 431 928 b 211 869 317 928 251 901 l 211 582 b 288 528 211 538 244 533 l 288 489 l 38 489 l 38 528 b 113 582 82 533 113 538 l 113 1167 "},"":{"ha":340,"x_min":0,"x_max":0,"o":"m 110 1157 b 178 1225 110 1194 139 1225 b 244 1157 215 1225 244 1194 b 178 1089 244 1118 215 1089 b 110 1157 139 1089 110 1118 m 226 582 b 303 528 226 538 260 533 l 303 489 l 53 489 l 53 528 b 128 582 97 533 128 538 l 128 901 l 57 936 l 57 958 l 197 1008 l 232 1008 l 226 908 "},"":{"ha":281,"x_min":0,"x_max":0,"o":"m 82 1157 b 151 1225 82 1194 113 1225 b 218 1157 189 1225 218 1194 b 151 1089 218 1118 189 1089 b 82 1157 113 1089 82 1118 m 31 936 l 31 958 l 171 1008 l 204 1008 l 200 908 l 200 550 b 172 392 200 463 194 435 b 44 251 147 344 88 289 l 13 279 l 58 353 b 103 526 90 403 103 451 l 103 901 "},"":{"ha":603,"x_min":0,"x_max":0,"o":"m 42 1194 l 42 1217 l 182 1265 l 217 1265 l 211 1183 l 211 582 b 288 528 211 538 244 533 l 288 489 l 38 489 l 38 528 b 113 582 82 533 113 538 l 113 1167 m 383 897 b 400 926 394 910 400 917 b 333 960 400 950 385 953 l 333 997 l 565 997 l 565 960 b 485 922 525 949 510 943 l 318 778 l 599 521 l 599 489 l 490 489 l 217 751 "},"":{"ha":332,"x_min":0,"x_max":0,"o":"m 217 582 b 293 528 217 538 250 533 l 293 489 l 43 489 l 43 528 b 119 582 88 533 119 538 l 119 1167 l 47 1194 l 47 1217 l 189 1265 l 222 1265 l 217 1183 "},"":{"ha":988,"x_min":0,"x_max":0,"o":"m 549 913 b 726 1007 583 960 654 1007 b 881 863 822 1007 881 951 l 881 582 b 957 528 881 538 914 533 l 957 489 l 707 489 l 707 528 b 783 582 751 533 783 538 l 783 836 b 689 928 783 897 750 928 b 554 874 644 928 588 904 l 554 582 b 629 528 554 538 586 533 l 629 489 l 379 489 l 379 528 b 456 582 424 533 456 538 l 456 836 b 361 928 456 897 422 928 b 226 874 317 928 260 904 l 226 582 b 303 528 226 538 260 533 l 303 489 l 53 489 l 53 528 b 128 582 97 533 128 538 l 128 901 l 57 936 l 57 958 l 197 1008 l 232 1008 l 226 917 b 400 1007 263 961 329 1007 b 549 913 475 1007 529 974 "},"":{"ha":607,"x_min":0,"x_max":0,"o":"m 293 479 b 39 733 142 479 39 586 b 313 1007 39 901 165 1007 b 568 753 465 1007 568 900 b 293 479 568 585 442 479 m 324 540 b 464 719 418 540 464 615 b 283 947 464 842 399 947 b 142 767 189 947 142 872 b 324 540 142 644 208 540 "},"":{"ha":649,"x_min":0,"x_max":0,"o":"m 335 479 b 203 518 278 479 233 494 l 203 353 b 279 297 203 308 235 303 l 279 258 l 29 258 l 29 297 b 106 353 72 303 106 308 l 106 901 l 33 936 l 33 958 l 174 1008 l 207 1008 l 203 918 b 386 1007 244 971 311 1007 b 611 767 533 1007 611 899 b 335 479 611 589 486 479 m 346 535 b 510 726 444 535 510 603 b 347 932 510 825 472 932 b 203 871 290 932 235 904 l 203 656 b 346 535 203 565 272 535 "},"":{"ha":454,"x_min":0,"x_max":0,"o":"m 226 860 b 385 1007 272 940 315 1007 b 432 993 408 1007 422 1000 l 432 903 l 393 903 b 226 815 331 903 290 888 l 226 586 b 322 528 226 538 251 535 l 322 489 l 53 489 l 53 528 b 128 582 97 533 128 538 l 128 901 l 57 936 l 57 958 l 197 1008 l 232 1008 "},"":{"ha":485,"x_min":0,"x_max":0,"o":"m 236 479 b 57 529 160 479 97 500 l 51 657 l 93 657 b 236 532 114 574 157 532 b 343 615 304 532 343 561 b 257 694 343 660 311 678 l 190 715 b 60 861 110 740 60 774 b 236 1007 60 951 128 1007 b 403 965 306 1007 358 993 l 403 847 l 361 847 b 235 956 346 924 304 956 b 147 882 183 956 147 932 b 217 810 147 843 169 825 l 293 788 b 432 633 383 761 432 724 b 236 479 432 536 356 479 "},"":{"ha":394,"x_min":0,"x_max":0,"o":"m 197 997 l 347 997 l 347 944 l 197 944 l 197 650 b 286 550 197 582 228 550 b 363 568 313 550 336 556 l 374 542 b 239 479 350 513 307 479 b 100 615 167 479 100 517 l 100 944 l 26 944 l 26 978 b 169 1107 78 1008 121 1046 l 197 1107 "},"":{"ha":651,"x_min":0,"x_max":0,"o":"m 438 574 b 261 479 397 524 335 479 b 100 636 165 479 100 525 l 100 896 b 36 946 100 931 85 940 l 19 947 l 19 988 l 178 1007 l 203 1007 l 197 908 l 197 650 b 293 554 197 581 238 554 b 438 617 351 554 399 583 l 438 896 b 375 946 438 931 422 940 l 357 947 l 357 988 l 517 1007 l 540 1007 l 536 908 l 536 600 b 592 556 536 567 547 558 l 618 553 l 618 513 l 449 479 l 435 479 "},"":{"ha":576,"x_min":0,"x_max":0,"o":"m 567 960 b 508 921 521 943 518 942 l 308 479 l 285 479 l 68 921 b 10 960 57 942 54 943 l 10 997 l 249 997 l 249 960 b 179 925 197 953 179 949 b 186 899 179 917 181 911 l 315 618 l 436 899 b 443 925 440 911 443 917 b 372 960 443 949 422 953 l 372 997 l 567 997 "},"":{"ha":849,"x_min":0,"x_max":0,"o":"m 708 893 b 717 925 715 911 717 917 b 646 960 717 949 697 953 l 646 997 l 839 997 l 839 960 b 781 921 793 944 789 942 l 597 479 l 575 479 l 429 814 l 288 479 l 264 479 l 68 921 b 10 960 58 942 54 943 l 10 997 l 246 997 l 246 960 b 175 925 194 953 175 949 b 183 893 175 917 176 911 l 296 625 l 400 875 l 382 921 b 324 960 374 942 368 944 l 324 997 l 554 997 l 554 960 b 483 925 503 953 483 949 b 492 893 483 917 483 911 l 603 622 "},"":{"ha":576,"x_min":0,"x_max":0,"o":"m 68 921 b 10 960 58 942 54 943 l 10 997 l 250 997 l 250 960 b 181 925 200 953 181 949 b 188 899 181 917 182 911 l 319 593 l 436 899 b 443 925 440 911 443 917 b 372 960 443 949 422 953 l 372 997 l 567 997 l 567 960 b 508 921 524 944 517 942 l 288 388 b 136 249 240 274 193 249 b 64 282 97 249 72 268 l 64 340 l 121 340 b 247 424 183 340 217 353 l 271 488 "},"":{"ha":525,"x_min":0,"x_max":0,"o":"m 42 510 l 342 949 l 196 949 b 92 842 147 949 119 929 l 51 842 l 65 1024 l 104 1024 l 115 997 l 468 997 l 468 972 l 175 539 l 326 539 b 442 654 378 539 415 560 l 482 654 l 467 489 l 42 489 "},"":{"ha":1456,"x_min":0,"x_max":0,"o":"m 694 935 b 471 1069 663 1004 581 1069 b 297 833 343 1069 297 981 l 297 726 l 494 726 l 494 667 l 297 667 l 297 128 b 443 40 297 56 335 51 l 443 0 l 74 0 l 74 40 b 192 119 138 49 192 56 l 192 667 l 85 667 l 85 699 l 192 740 l 192 796 b 483 1125 192 1004 307 1125 b 683 1064 572 1125 646 1093 l 761 1125 l 807 1125 l 800 1006 l 800 604 b 1065 740 858 682 954 740 b 1396 406 1276 740 1396 585 b 997 -14 1396 144 1208 -14 b 694 90 857 -14 751 35 m 1011 53 b 1288 351 1176 53 1288 160 b 1028 656 1288 522 1204 656 b 800 547 932 656 853 607 l 800 225 b 1011 53 800 81 907 53 "},"":{"ha":1483,"x_min":0,"x_max":0,"o":"m 694 935 b 471 1069 663 1004 581 1069 b 297 833 343 1069 297 981 l 297 726 l 494 726 l 494 667 l 297 667 l 297 128 b 443 40 297 56 335 51 l 443 0 l 74 0 l 74 40 b 192 119 138 49 192 56 l 192 667 l 85 667 l 85 699 l 192 740 l 192 796 b 483 1125 192 1004 307 1125 b 683 1064 572 1125 646 1093 l 761 1125 l 807 1125 l 800 1006 l 800 597 b 1086 740 861 664 968 740 b 1318 513 1221 740 1318 678 l 1318 119 b 1436 40 1318 56 1372 49 l 1436 0 l 1094 0 l 1094 40 b 1213 119 1158 49 1213 56 l 1213 497 b 1051 651 1213 611 1150 651 b 800 542 967 651 864 600 l 800 119 b 917 40 800 56 853 49 l 917 0 l 576 0 l 576 40 b 694 119 640 49 694 56 "},"":{"ha":922,"x_min":0,"x_max":0,"o":"m 800 589 l 800 68 b 774 -135 800 -43 799 -76 b 601 -347 746 -201 664 -285 l 572 -321 l 642 -211 b 694 46 688 -140 694 -62 l 694 667 l 297 667 l 297 128 b 443 40 297 56 335 51 l 443 0 l 74 0 l 74 40 b 192 119 138 49 192 56 l 192 667 l 85 667 l 85 699 l 192 740 l 192 779 b 519 1125 192 990 325 1125 b 722 1000 635 1125 722 1075 b 683 929 722 968 704 939 l 604 929 l 604 954 b 483 1065 604 1024 563 1065 b 297 794 358 1065 297 963 l 297 726 l 807 726 "},"":{"ha":1358,"x_min":0,"x_max":0,"o":"m 694 935 b 471 1069 663 1004 581 1069 b 297 833 343 1069 297 981 l 297 726 l 494 726 l 494 667 l 297 667 l 297 128 b 443 40 297 56 335 51 l 443 0 l 74 0 l 74 40 b 192 119 138 49 192 56 l 192 667 l 85 667 l 85 699 l 192 740 l 192 796 b 483 1125 192 1004 307 1125 b 683 1064 572 1125 646 1093 l 761 1125 l 807 1125 l 800 1006 l 800 119 b 917 40 800 56 853 49 l 917 0 l 578 0 l 578 40 b 694 119 642 49 694 56 m 1074 606 b 1093 639 1085 617 1093 626 b 996 686 1093 671 1069 676 l 996 726 l 1306 726 l 1306 686 b 1199 642 1249 671 1228 668 l 926 396 l 1353 31 l 1353 0 l 1236 0 l 808 365 "},"":{"ha":1046,"x_min":0,"x_max":0,"o":"m 297 128 b 443 40 297 56 335 51 l 443 0 l 74 0 l 74 40 b 192 119 138 49 192 56 l 192 667 l 85 667 l 85 699 l 192 740 l 192 782 b 467 1111 192 986 283 1111 b 636 993 571 1111 636 1068 b 597 928 636 961 618 938 l 535 928 l 535 953 b 431 1051 535 1022 499 1051 b 297 832 333 1051 297 976 l 297 726 l 694 726 l 694 796 b 981 1125 694 1004 797 1125 b 1150 1007 1085 1125 1150 1082 b 1111 942 1150 975 1132 951 l 1049 942 l 1049 967 b 944 1065 1049 1036 1013 1065 b 800 846 847 1065 800 990 l 800 726 l 997 726 l 997 667 l 800 667 l 800 128 b 946 40 800 56 838 51 l 946 0 l 576 0 l 576 40 b 694 119 640 49 694 56 l 694 667 l 297 667 "},"ﬀ":{"ha":1046,"x_min":0,"x_max":0,"o":"m 297 667 l 694 667 l 694 119 b 576 40 694 56 640 49 l 576 0 l 946 0 l 946 40 b 800 128 838 51 800 56 l 800 667 l 997 667 l 997 726 l 800 726 l 800 846 b 944 1065 800 990 847 1065 b 1049 967 1013 1065 1049 1036 l 1049 942 l 1111 942 b 1150 1007 1132 951 1150 975 b 981 1125 1150 1082 1085 1125 b 694 796 797 1125 694 1004 l 694 726 l 297 726 l 297 832 b 431 1051 297 976 333 1051 b 535 953 499 1051 535 1022 l 535 928 l 597 928 b 636 993 618 938 636 961 b 467 1111 636 1068 571 1111 b 192 782 283 1111 192 986 l 192 740 l 85 699 l 85 667 l 192 667 l 192 119 b 74 40 192 56 138 49 l 74 0 l 443 0 l 443 40 b 297 128 335 51 297 56 "},"":{"ha":1481,"x_min":0,"x_max":0,"o":"m 694 779 b 1022 1125 694 990 828 1125 b 1225 1000 1138 1125 1225 1075 b 1186 929 1225 968 1207 939 l 1107 929 l 1107 954 b 986 1065 1107 1024 1065 1065 b 800 794 861 1065 800 963 l 800 726 l 1310 726 l 1303 589 l 1303 119 b 1421 40 1303 56 1357 49 l 1421 0 l 1079 0 l 1079 40 b 1197 119 1143 49 1197 56 l 1197 667 l 800 667 l 800 128 b 946 40 800 56 838 51 l 946 0 l 576 0 l 576 40 b 694 119 640 49 694 56 l 694 667 l 297 667 l 297 128 b 443 40 297 56 335 51 l 443 0 l 74 0 l 74 40 b 192 119 138 49 192 56 l 192 667 l 85 667 l 85 699 l 192 740 l 192 782 b 467 1111 192 986 283 1111 b 636 993 571 1111 636 1068 b 597 928 636 961 618 938 l 535 928 l 535 953 b 431 1051 535 1022 499 1051 b 297 832 333 1051 297 976 l 297 726 l 694 726 "},"ﬃ":{"ha":1481,"x_min":0,"x_max":0,"o":"m 694 726 l 297 726 l 297 832 b 431 1051 297 976 333 1051 b 535 953 499 1051 535 1022 l 535 928 l 597 928 b 636 993 618 938 636 961 b 467 1111 636 1068 571 1111 b 192 782 283 1111 192 986 l 192 740 l 85 699 l 85 667 l 192 667 l 192 119 b 74 40 192 56 138 49 l 74 0 l 443 0 l 443 40 b 297 128 335 51 297 56 l 297 667 l 694 667 l 694 119 b 576 40 694 56 640 49 l 576 0 l 946 0 l 946 40 b 800 128 838 51 800 56 l 800 667 l 1197 667 l 1197 119 b 1079 40 1197 56 1143 49 l 1079 0 l 1421 0 l 1421 40 b 1303 119 1357 49 1303 56 l 1303 589 l 1310 726 l 800 726 l 800 794 b 986 1065 800 963 861 1065 b 1107 954 1065 1065 1107 1024 l 1107 929 l 1186 929 b 1225 1000 1207 939 1225 968 b 1022 1125 1225 1075 1138 1125 b 694 779 828 1125 694 990 "},"":{"ha":1481,"x_min":0,"x_max":0,"o":"m 694 796 b 986 1125 694 1004 810 1125 b 1186 1064 1075 1125 1149 1093 l 1264 1125 l 1310 1125 l 1303 1006 l 1303 119 b 1421 40 1303 56 1357 49 l 1421 0 l 1079 0 l 1079 40 b 1197 119 1143 49 1197 56 l 1197 935 b 974 1069 1165 1004 1083 1069 b 800 833 846 1069 800 981 l 800 726 l 997 726 l 997 667 l 800 667 l 800 128 b 946 40 800 56 838 51 l 946 0 l 576 0 l 576 40 b 694 119 640 49 694 56 l 694 667 l 297 667 l 297 128 b 443 40 297 56 335 51 l 443 0 l 74 0 l 74 40 b 192 119 138 49 192 56 l 192 667 l 85 667 l 85 699 l 192 740 l 192 782 b 467 1111 192 986 283 1111 b 636 993 571 1111 636 1068 b 597 928 636 961 618 938 l 535 928 l 535 953 b 431 1051 535 1022 499 1051 b 297 832 333 1051 297 976 l 297 726 l 694 726 "},"ﬄ":{"ha":1481,"x_min":0,"x_max":0,"o":"m 694 726 l 297 726 l 297 832 b 431 1051 297 976 333 1051 b 535 953 499 1051 535 1022 l 535 928 l 597 928 b 636 993 618 938 636 961 b 467 1111 636 1068 571 1111 b 192 782 283 1111 192 986 l 192 740 l 85 699 l 85 667 l 192 667 l 192 119 b 74 40 192 56 138 49 l 74 0 l 443 0 l 443 40 b 297 128 335 51 297 56 l 297 667 l 694 667 l 694 119 b 576 40 694 56 640 49 l 576 0 l 946 0 l 946 40 b 800 128 838 51 800 56 l 800 667 l 997 667 l 997 726 l 800 726 l 800 833 b 974 1069 800 981 846 1069 b 1197 935 1083 1069 1165 1004 l 1197 119 b 1079 40 1197 56 1143 49 l 1079 0 l 1421 0 l 1421 40 b 1303 119 1357 49 1303 56 l 1303 1006 l 1310 1125 l 1264 1125 l 1186 1064 b 986 1125 1149 1093 1075 1125 b 694 796 810 1125 694 1004 "},"":{"ha":978,"x_min":0,"x_max":0,"o":"m 800 589 l 800 119 b 918 40 800 56 854 49 l 918 0 l 576 0 l 576 40 b 694 119 640 49 694 56 l 694 667 l 297 667 l 297 128 b 443 40 297 56 335 51 l 443 0 l 74 0 l 74 40 b 192 119 138 49 192 56 l 192 667 l 85 667 l 85 699 l 192 740 l 192 779 b 519 1125 192 990 325 1125 b 722 1000 635 1125 722 1075 b 683 929 722 968 704 939 l 604 929 l 604 954 b 483 1065 604 1024 563 1065 b 297 794 358 1065 297 963 l 297 726 l 807 726 "},"ﬁ":{"ha":978,"x_min":0,"x_max":0,"o":"m 807 726 l 297 726 l 297 794 b 483 1065 297 963 358 1065 b 604 954 563 1065 604 1024 l 604 929 l 683 929 b 722 1000 704 939 722 968 b 519 1125 722 1075 635 1125 b 192 779 325 1125 192 990 l 192 740 l 85 699 l 85 667 l 192 667 l 192 119 b 74 40 192 56 138 49 l 74 0 l 443 0 l 443 40 b 297 128 335 51 297 56 l 297 667 l 694 667 l 694 119 b 576 40 694 56 640 49 l 576 0 l 918 0 l 918 40 b 800 119 854 49 800 56 l 800 589 "},"":{"ha":978,"x_min":0,"x_max":0,"o":"m 761 1125 l 807 1125 l 800 1006 l 800 119 b 918 40 800 56 854 49 l 918 0 l 576 0 l 576 40 b 694 119 640 49 694 56 l 694 935 b 471 1069 663 1004 581 1069 b 297 833 343 1069 297 981 l 297 726 l 494 726 l 494 667 l 297 667 l 297 128 b 443 40 297 56 335 51 l 443 0 l 74 0 l 74 40 b 192 119 138 49 192 56 l 192 667 l 85 667 l 85 699 l 192 740 l 192 796 b 483 1125 192 1004 307 1125 b 683 1064 572 1125 646 1093 "},"ﬂ":{"ha":978,"x_min":0,"x_max":0,"o":"m 683 1064 b 483 1125 646 1093 572 1125 b 192 796 307 1125 192 1004 l 192 740 l 85 699 l 85 667 l 192 667 l 192 119 b 74 40 192 56 138 49 l 74 0 l 443 0 l 443 40 b 297 128 335 51 297 56 l 297 667 l 494 667 l 494 726 l 297 726 l 297 833 b 471 1069 297 981 343 1069 b 694 935 581 1069 663 1004 l 694 119 b 576 40 694 56 640 49 l 576 0 l 918 0 l 918 40 b 800 119 854 49 800 56 l 800 1006 l 807 1125 l 761 1125 "},"":{"ha":931,"x_min":0,"x_max":0,"o":"m 739 332 b 689 176 731 275 714 222 l 774 110 b 908 43 819 72 853 47 l 908 0 l 767 0 b 635 100 726 19 682 57 b 356 -14 564 25 472 -14 b 68 201 219 -14 68 40 b 253 415 68 319 153 375 b 157 594 206 454 157 507 b 385 788 157 717 257 788 b 592 618 521 788 592 707 b 400 422 592 511 496 467 l 640 215 b 669 338 658 251 669 290 b 549 410 669 400 638 407 l 549 450 l 857 450 l 857 410 b 739 332 764 407 747 399 m 254 617 b 360 453 254 536 303 499 b 496 619 457 499 496 547 b 379 738 496 690 451 738 b 254 617 297 738 254 683 m 369 47 b 590 136 472 47 525 74 l 292 386 b 178 207 213 347 178 297 b 369 47 178 107 264 47 "},"":{"ha":931,"x_min":0,"x_max":0,"o":"m 739 332 b 857 410 747 399 764 407 l 857 450 l 549 450 l 549 410 b 669 338 638 407 669 400 b 640 215 669 290 658 251 l 400 422 b 592 618 496 467 592 511 b 385 788 592 707 521 788 b 157 594 257 788 157 717 b 253 415 157 507 206 454 b 68 201 153 375 68 319 b 356 -14 68 40 219 -14 b 635 100 472 -14 564 25 b 767 0 682 57 726 19 l 908 0 l 908 43 b 774 110 853 47 819 72 l 689 176 b 739 332 714 222 731 275 m 254 617 b 379 738 254 683 297 738 b 496 619 451 738 496 690 b 360 453 496 547 457 499 b 254 617 303 499 254 536 m 369 47 b 178 207 264 47 178 107 b 292 386 178 297 213 347 l 590 136 b 369 47 525 74 472 47 "},"":{"ha":833,"x_min":0,"x_max":0,"o":"m 417 1094 b 657 818 589 1094 657 993 l 607 818 b 417 1013 590 964 508 1013 b 226 818 325 1013 243 964 l 176 818 b 417 1094 176 993 244 1094 "},"":{"ha":833,"x_min":0,"x_max":0,"o":"m 328 1111 l 421 822 l 372 822 l 203 1111 m 538 1111 l 631 822 l 582 822 l 413 1111 "},"":{"ha":833,"x_min":0,"x_max":0,"o":"m 478 1111 l 400 822 l 356 822 l 374 1111 "},"":{"ha":0,"x_min":0,"x_max":0,"o":"m -443 -228 b -504 -156 -482 -218 -504 -193 b -422 -78 -504 -111 -472 -78 b -329 -183 -358 -78 -329 -129 b -497 -347 -329 -261 -365 -343 l -497 -300 b -396 -228 -429 -293 -407 -262 "},"":{"ha":0,"x_min":0,"x_max":0,"o":"m -396 -228 b -497 -300 -407 -262 -429 -293 l -497 -347 b -329 -183 -365 -343 -329 -261 b -422 -78 -329 -129 -358 -78 b -504 -156 -472 -78 -504 -111 b -443 -228 -504 -193 -482 -218 "},"":{"ha":833,"x_min":0,"x_max":0,"o":"m 335 -150 b 415 -68 335 -104 369 -68 b 497 -150 461 -68 497 -104 b 415 -231 497 -196 461 -231 b 335 -150 369 -231 335 -196 "},"":{"ha":833,"x_min":0,"x_max":0,"o":"m 367 -54 b 563 -207 483 -78 563 -125 b 390 -347 563 -289 488 -347 b 269 -315 333 -347 296 -332 l 281 -278 b 379 -293 314 -290 350 -293 b 485 -219 443 -293 485 -264 b 350 -125 485 -165 426 -140 "},"":{"ha":438,"x_min":0,"x_max":0,"o":"m 131 1010 b 218 1097 131 1058 169 1097 b 307 1010 267 1097 307 1058 b 218 921 307 961 267 921 b 131 1010 169 921 131 961 m 293 0 l 146 0 l 146 64 l 174 469 b 193 810 182 597 192 722 l 246 810 b 265 469 247 722 257 597 l 293 64 "},"":{"ha":438,"x_min":0,"x_max":0,"o":"m 292 732 l 261 467 b 244 251 251 378 244 297 l 193 251 b 176 467 193 297 186 378 l 146 732 l 146 774 l 292 774 m 131 74 b 218 163 131 122 169 163 b 307 74 267 163 307 122 b 218 -14 307 25 267 -14 b 131 74 169 -14 131 25 "},"":{"ha":438,"x_min":0,"x_max":0,"o":"m 292 774 l 146 774 l 146 732 l 176 467 b 193 251 186 378 193 297 l 244 251 b 261 467 244 297 251 378 l 292 732 m 131 74 b 218 -14 131 25 169 -14 b 307 74 267 -14 307 25 b 218 163 307 122 267 163 b 131 74 169 163 131 122 "},"":{"ha":438,"x_min":0,"x_max":0,"o":"m 131 700 b 218 788 131 749 169 788 b 307 700 267 788 307 749 b 218 611 307 651 267 611 b 131 700 169 611 131 651 m 292 0 l 146 0 l 146 42 l 176 307 b 193 522 186 396 193 476 l 244 522 b 261 307 244 476 251 396 l 292 42 "},"":{"ha":438,"x_min":0,"x_max":0,"o":"m 131 700 b 218 611 131 651 169 611 b 307 700 267 611 307 651 b 218 788 307 749 267 788 b 131 700 169 788 131 749 m 292 42 l 261 307 b 244 522 251 396 244 476 l 193 522 b 176 307 193 476 186 396 l 146 42 l 146 0 l 292 0 "},"":{"ha":660,"x_min":0,"x_max":0,"o":"m 456 1010 b 368 921 456 961 417 921 b 279 1010 319 921 279 961 b 368 1097 279 1058 319 1097 b 456 1010 417 1097 456 1058 m 158 214 b 336 46 158 113 228 46 b 494 210 438 46 494 115 l 494 253 l 585 253 b 613 179 603 235 613 210 b 343 -14 613 68 490 -14 b 46 250 169 -14 46 71 b 235 543 46 379 117 446 b 351 736 314 608 351 657 l 351 810 l 385 810 b 426 682 401 782 426 739 b 289 453 426 590 382 532 b 158 214 217 390 158 333 "},"":{"ha":611,"x_min":0,"x_max":0,"o":"m 413 632 b 297 739 413 690 372 739 b 183 625 217 739 183 697 l 183 576 l 89 576 b 65 638 72 594 65 614 b 293 788 65 731 183 788 b 526 624 429 788 526 733 b 390 424 526 533 486 488 b 300 282 319 376 300 350 l 300 251 l 263 251 b 229 347 247 275 229 303 b 336 501 229 408 260 446 b 413 632 389 540 413 569 m 199 74 b 286 163 199 122 238 163 b 375 74 335 163 375 122 b 286 -14 375 25 335 -14 b 199 74 238 -14 199 25 "},"":{"ha":611,"x_min":0,"x_max":0,"o":"m 413 632 b 336 501 413 569 389 540 b 229 347 260 446 229 408 b 263 251 229 303 247 275 l 300 251 l 300 282 b 390 424 300 350 319 376 b 526 624 486 488 526 533 b 293 788 526 733 429 788 b 65 638 183 788 65 731 b 89 576 65 614 72 594 l 183 576 l 183 625 b 297 739 183 697 217 739 b 413 632 372 739 413 690 m 199 74 b 286 -14 199 25 238 -14 b 375 74 335 -14 375 25 b 286 163 375 122 335 163 b 199 74 238 163 199 122 "},"":{"ha":611,"x_min":0,"x_max":0,"o":"m 413 700 b 325 611 413 651 374 611 b 236 700 276 611 236 651 b 325 788 236 749 276 788 b 413 700 374 788 413 749 m 199 142 b 314 35 199 83 239 35 b 428 149 394 35 428 76 l 428 197 l 522 197 b 546 136 539 179 546 160 b 318 -14 546 43 428 -14 b 85 150 182 -14 85 40 b 221 350 85 240 125 286 b 311 492 292 397 311 424 l 311 522 l 349 522 b 382 426 364 499 382 471 b 275 272 382 365 351 328 b 199 142 222 233 199 204 "},"":{"ha":611,"x_min":0,"x_max":0,"o":"m 413 700 b 325 788 413 749 374 788 b 236 700 276 788 236 749 b 325 611 236 651 276 611 b 413 700 374 611 413 651 m 199 142 b 275 272 199 204 222 233 b 382 426 351 328 382 365 b 349 522 382 471 364 499 l 311 522 l 311 492 b 221 350 311 424 292 397 b 85 150 125 286 85 240 b 318 -14 85 40 182 -14 b 546 136 428 -14 546 43 b 522 197 546 160 539 179 l 428 197 l 428 149 b 314 35 428 76 394 35 b 199 142 239 35 199 83 "},"":{"ha":418,"x_min":0,"x_max":0,"o":"m 57 546 l 292 810 l 343 810 l 165 539 l 343 268 l 292 268 l 57 532 "},"":{"ha":418,"x_min":0,"x_max":0,"o":"m 361 532 l 126 268 l 75 268 l 253 539 l 75 810 l 126 810 l 361 546 "},"":{"ha":636,"x_min":0,"x_max":0,"o":"m 57 546 l 292 810 l 343 810 l 165 539 l 343 268 l 292 268 l 57 532 m 276 546 l 510 810 l 561 810 l 383 539 l 561 268 l 510 268 l 276 532 "},"":{"ha":636,"x_min":0,"x_max":0,"o":"m 361 532 l 126 268 l 75 268 l 253 539 l 75 810 l 126 810 l 361 546 m 579 532 l 344 268 l 294 268 l 472 539 l 294 810 l 344 810 l 579 546 "},"":{"ha":518,"x_min":0,"x_max":0,"o":"m 97 -125 l 19 -125 l 422 1196 l 500 1196 "},"":{"ha":518,"x_min":0,"x_max":0,"o":"m 19 1196 l 97 1196 l 500 -125 l 422 -125 "},"":{"ha":353,"x_min":0,"x_max":0,"o":"m 214 -125 l 139 -125 l 139 1196 l 214 1196 "},"":{"ha":535,"x_min":0,"x_max":0,"o":"m 214 -125 l 139 -125 l 139 1196 l 214 1196 m 396 -125 l 321 -125 l 321 1196 l 396 1196 "},"":{"ha":353,"x_min":0,"x_max":0,"o":"m 214 632 l 139 632 l 139 1196 l 214 1196 m 214 -125 l 139 -125 l 139 439 l 214 439 "},"":{"ha":535,"x_min":0,"x_max":0,"o":"m 124 538 b 267 682 124 617 188 682 b 411 538 346 682 411 617 b 267 394 411 458 346 394 b 124 538 188 394 124 458 "},"":{"ha":518,"x_min":0,"x_max":0,"o":"m 115 -106 l 36 -106 l 404 868 l 482 868 "},"":{"ha":518,"x_min":0,"x_max":0,"o":"m 36 868 l 115 868 l 482 -106 l 404 -106 "},"":{"ha":354,"x_min":0,"x_max":0,"o":"m 215 -106 l 139 -106 l 139 868 l 215 868 "},"":{"ha":536,"x_min":0,"x_max":0,"o":"m 215 -106 l 139 -106 l 139 868 l 215 868 m 397 -106 l 321 -106 l 321 868 l 397 868 "},"":{"ha":354,"x_min":0,"x_max":0,"o":"m 215 417 l 139 417 l 139 867 l 215 867 m 215 -106 l 139 -106 l 139 344 l 215 344 "},"":{"ha":535,"x_min":0,"x_max":0,"o":"m 124 389 b 267 533 124 468 188 533 b 411 389 346 533 411 468 b 267 246 411 310 346 246 b 124 389 188 246 124 310 "},"":{"ha":463,"x_min":0,"x_max":0,"o":"m 393 429 l 69 429 l 69 510 l 393 510 "},"":{"ha":1042,"x_min":0,"x_max":0,"o":"m 972 429 l 69 429 l 69 510 l 972 510 "},"":{"ha":438,"x_min":0,"x_max":0,"o":"m 131 543 b 218 632 131 592 169 632 b 307 543 267 632 307 592 b 218 456 307 494 267 456 b 131 543 169 456 131 494 "},"":{"ha":483,"x_min":0,"x_max":0,"o":"m 69 501 l 69 582 l 414 582 l 414 501 "},"":{"ha":463,"x_min":0,"x_max":0,"o":"m 393 501 l 69 501 l 69 582 l 393 582 "},"":{"ha":479,"x_min":0,"x_max":0,"o":"m 139 -161 l 65 -161 l 300 392 l 65 944 l 139 944 l 382 392 "},"":{"ha":535,"x_min":0,"x_max":0,"o":"m 115 546 b 415 1213 115 824 213 1033 l 464 1175 b 183 546 286 1000 183 847 b 464 -85 183 243 286 90 l 415 -121 b 115 546 213 58 115 268 "},"":{"ha":535,"x_min":0,"x_max":0,"o":"m 419 546 b 119 -121 419 268 322 58 l 71 -85 b 351 546 249 90 351 243 b 71 1175 351 847 249 1000 l 119 1213 b 419 546 322 1033 419 824 "},"":{"ha":460,"x_min":0,"x_max":0,"o":"m 208 -67 l 363 -67 l 363 -121 l 139 -121 l 139 1213 l 363 1213 l 363 1157 l 208 1157 "},"":{"ha":460,"x_min":0,"x_max":0,"o":"m 253 1157 l 97 1157 l 97 1213 l 321 1213 l 321 -121 l 97 -121 l 97 -67 l 253 -67 "},"":{"ha":582,"x_min":0,"x_max":0,"o":"m 161 546 b 310 347 264 515 310 436 b 275 103 310 272 275 196 b 485 -62 275 -6 325 -62 l 485 -121 b 207 103 264 -121 207 -15 b 239 347 207 196 239 274 b 38 515 239 436 197 515 l 38 576 b 239 744 197 576 239 656 b 207 989 239 818 207 896 b 485 1213 207 1107 264 1213 l 485 1154 b 275 989 325 1154 275 1097 b 310 744 275 896 310 819 b 161 546 310 656 264 576 "},"":{"ha":582,"x_min":0,"x_max":0,"o":"m 421 546 b 272 744 318 576 272 656 b 307 989 272 819 307 896 b 97 1154 307 1097 257 1154 l 97 1213 b 375 989 318 1213 375 1107 b 343 744 375 896 343 818 b 544 576 343 656 385 576 l 544 515 b 343 347 385 515 343 436 b 375 103 343 274 375 196 b 97 -121 375 -15 318 -121 l 97 -62 b 307 103 257 -62 307 -6 b 272 347 307 196 272 272 b 421 546 272 436 318 515 "},"":{"ha":506,"x_min":0,"x_max":0,"o":"m 106 546 l 354 1213 l 422 1213 l 179 546 l 422 -121 l 354 -121 "},"":{"ha":506,"x_min":0,"x_max":0,"o":"m 151 -121 l 83 -121 l 326 546 l 83 1213 l 151 1213 l 400 546 "},"":{"ha":519,"x_min":0,"x_max":0,"o":"m 97 392 b 417 961 97 629 211 804 l 458 915 b 176 392 308 788 176 653 b 458 -132 176 131 308 -4 l 417 -178 b 97 392 211 -21 97 154 "},"":{"ha":519,"x_min":0,"x_max":0,"o":"m 97 392 b 417 -178 97 154 211 -21 l 458 -132 b 176 392 308 -4 176 131 b 458 915 176 653 308 788 l 417 961 b 97 392 211 804 97 629 "},"":{"ha":519,"x_min":0,"x_max":0,"o":"m 422 392 b 103 -178 422 154 308 -21 l 61 -132 b 343 392 211 -4 343 131 b 61 915 343 653 211 788 l 103 961 b 422 392 308 804 422 629 "},"":{"ha":519,"x_min":0,"x_max":0,"o":"m 422 392 b 103 961 422 629 308 804 l 61 915 b 343 392 211 788 343 653 b 61 -132 343 131 211 -4 l 103 -178 b 422 392 308 -21 422 154 "},"":{"ha":425,"x_min":0,"x_max":0,"o":"m 210 -104 l 364 -104 l 364 -161 l 139 -161 l 139 944 l 364 944 l 364 888 l 210 888 "},"":{"ha":425,"x_min":0,"x_max":0,"o":"m 210 888 l 364 888 l 364 944 l 139 944 l 139 -161 l 364 -161 l 364 -104 l 210 -104 "},"":{"ha":425,"x_min":0,"x_max":0,"o":"m 215 888 l 61 888 l 61 944 l 286 944 l 286 -161 l 61 -161 l 61 -104 l 215 -104 "},"":{"ha":425,"x_min":0,"x_max":0,"o":"m 215 -104 l 61 -104 l 61 -161 l 286 -161 l 286 944 l 61 944 l 61 888 l 215 888 "},"":{"ha":540,"x_min":0,"x_max":0,"o":"m 56 421 b 254 557 215 421 254 483 b 218 761 254 618 218 685 b 479 944 218 874 268 944 l 479 886 b 294 767 363 886 294 858 b 333 563 294 689 333 618 b 178 392 333 490 281 408 b 333 221 281 375 333 293 b 294 17 333 165 294 94 b 479 -103 294 -75 363 -103 l 479 -161 b 218 22 268 -161 218 -90 b 254 226 218 99 254 165 b 56 363 254 300 215 363 "},"":{"ha":540,"x_min":0,"x_max":0,"o":"m 56 363 b 254 226 215 363 254 300 b 218 22 254 165 218 99 b 479 -161 218 -90 268 -161 l 479 -103 b 294 17 363 -103 294 -75 b 333 221 294 94 333 165 b 178 392 333 293 281 375 b 333 563 281 408 333 490 b 294 767 333 618 294 689 b 479 886 294 858 363 886 l 479 944 b 218 761 268 944 218 874 b 254 557 218 685 254 618 b 56 421 254 483 215 421 "},"":{"ha":540,"x_min":0,"x_max":0,"o":"m 485 363 b 288 226 325 363 288 300 b 324 22 288 165 324 99 b 61 -161 324 -90 272 -161 l 61 -103 b 246 17 179 -103 246 -75 b 207 221 246 94 207 165 b 363 392 207 293 260 375 b 207 563 260 408 207 490 b 246 767 207 618 246 689 b 61 886 246 858 179 886 l 61 944 b 324 761 272 944 324 874 b 288 557 324 685 288 618 b 485 421 288 483 325 421 "},"":{"ha":540,"x_min":0,"x_max":0,"o":"m 485 421 b 288 557 325 421 288 483 b 324 761 288 618 324 685 b 61 944 324 874 272 944 l 61 886 b 246 767 179 886 246 858 b 207 563 246 689 207 618 b 363 392 207 490 260 408 b 207 221 260 375 207 293 b 246 17 207 165 246 94 b 61 -103 246 -75 179 -103 l 61 -161 b 324 22 272 -161 324 -90 b 288 226 324 99 288 165 b 485 363 288 300 325 363 "},"":{"ha":479,"x_min":0,"x_max":0,"o":"m 97 392 l 340 944 l 414 944 l 179 392 l 414 -161 l 340 -161 "},"":{"ha":417,"x_min":0,"x_max":0,"o":"m 28 0 l 28 69 l 389 69 l 389 0 "},"":{"ha":972,"x_min":0,"x_max":0,"o":"m 42 -278 l 42 -204 l 931 -204 l 931 -278 "},"＿":{"ha":972,"x_min":0,"x_max":0,"o":"m 931 -278 l 931 -204 l 42 -204 l 42 -278 "},"":{"ha":1539,"x_min":0,"x_max":0,"o":"m 1025 243 b 1357 675 1213 243 1357 422 b 828 1201 1357 989 1179 1201 b 188 493 454 1201 188 883 b 769 -117 188 135 426 -117 b 1246 15 953 -117 1099 -79 l 1268 -29 b 769 -182 1158 -118 963 -182 b 83 493 354 -182 83 93 b 828 1263 83 913 408 1263 b 1456 675 1213 1263 1456 1029 b 1000 189 1456 385 1272 189 b 886 268 925 189 886 218 b 940 532 886 308 925 457 l 935 532 b 850 369 911 482 903 440 b 599 189 746 229 679 189 b 449 399 492 189 449 276 b 864 893 449 654 636 893 b 999 819 943 893 986 853 l 1090 903 l 1125 903 l 1078 761 b 993 282 1038 600 993 351 b 1025 243 993 257 1003 243 m 625 251 b 806 388 676 251 725 282 b 965 768 897 507 963 681 b 864 833 947 814 914 833 b 554 399 685 833 556 622 b 625 251 554 315 569 251 "},"":{"ha":1049,"x_min":0,"x_max":0,"o":"m 42 658 l 188 658 b 635 1097 229 943 400 1097 b 944 1008 788 1097 875 1061 l 951 776 l 914 776 b 626 1032 865 965 768 1032 b 304 658 425 1032 322 875 l 775 658 l 750 600 l 301 600 l 301 581 b 304 488 301 549 303 518 l 717 488 l 692 429 l 311 429 b 650 49 339 219 436 49 b 950 319 842 49 893 153 l 993 319 l 965 69 b 629 -14 883 19 775 -14 b 183 429 353 -14 211 185 l 42 429 l 42 488 l 179 488 l 179 521 b 182 600 179 547 179 574 l 42 600 "},"":{"ha":882,"x_min":0,"x_max":0,"o":"m 304 -6 b 88 78 217 7 136 36 l 78 338 l 115 338 b 318 65 146 194 215 101 l 401 514 l 326 542 b 92 819 201 588 92 658 b 429 1097 92 979 211 1097 b 508 1092 456 1097 482 1094 l 539 1257 l 600 1257 l 567 1082 b 746 1001 638 1067 700 1038 l 746 769 l 707 769 b 554 1010 679 900 632 975 l 478 601 l 540 579 b 794 282 692 524 794 446 b 414 -14 794 99 642 -14 b 364 -12 397 -14 381 -14 l 335 -174 l 274 -174 m 194 846 b 365 644 194 725 258 685 l 421 624 l 496 1028 b 415 1035 472 1032 444 1035 b 194 846 278 1035 194 956 m 458 493 l 376 51 b 424 49 392 49 407 49 b 689 264 590 49 689 131 b 483 485 689 383 614 438 "},"":{"ha":819,"x_min":0,"x_max":0,"o":"m 318 142 b 71 506 157 192 71 340 b 479 925 71 763 238 925 l 490 925 l 528 1092 l 588 1092 l 550 919 b 744 746 678 901 744 829 b 694 660 744 706 725 674 l 636 660 l 636 689 b 532 840 636 768 600 818 l 397 222 b 471 215 421 217 444 215 b 726 351 599 215 661 267 l 764 338 b 443 124 724 224 624 124 b 376 128 419 124 397 125 l 347 -8 l 286 -8 m 172 547 b 340 240 172 406 229 290 l 475 853 b 440 854 464 853 451 854 b 172 547 290 854 172 736 "},"":{"ha":1067,"x_min":0,"x_max":0,"o":"m 171 583 l 360 583 l 390 740 b 771 1097 442 1003 586 1097 b 979 965 907 1097 979 1043 b 922 876 979 925 956 890 l 850 876 l 850 924 b 736 1035 850 986 821 1035 b 504 715 599 1035 540 896 l 478 583 l 774 583 l 774 525 l 467 525 l 440 393 b 397 218 425 317 407 250 b 747 99 494 151 625 99 b 936 274 861 99 936 131 l 968 274 b 1007 163 982 258 1007 226 b 764 -14 1007 43 913 -14 b 374 154 625 -14 464 78 b 179 -14 336 58 290 -14 b 32 126 78 -14 32 47 b 204 282 32 215 103 282 b 297 264 239 282 272 276 l 347 525 l 171 525 m 176 51 b 283 203 231 51 263 103 b 206 218 253 214 238 218 b 104 125 140 218 104 179 b 176 51 104 78 133 51 "},"":{"ha":719,"x_min":0,"x_max":0,"o":"m 156 -300 l 235 549 l 78 549 l 83 601 l 240 601 l 261 825 b 538 1097 278 999 361 1097 b 706 989 647 1097 706 1056 b 661 914 706 951 679 922 l 575 914 b 579 953 578 926 579 943 b 500 1033 579 1004 553 1033 b 372 828 417 1033 383 949 l 351 601 l 574 601 l 568 549 l 344 549 l 268 -300 "},"":{"ha":967,"x_min":0,"x_max":0,"o":"m 117 575 l 357 575 l 111 981 b 14 1038 88 1019 58 1031 l 14 1083 l 403 1083 l 403 1038 b 254 975 286 1033 254 1017 b 274 918 254 957 263 936 l 508 521 l 735 911 b 758 976 751 936 758 956 b 611 1038 758 1018 731 1033 l 611 1083 l 953 1083 l 953 1038 b 856 981 908 1031 879 1021 l 613 575 l 856 575 l 856 518 l 578 518 l 542 457 l 542 429 l 856 429 l 856 374 l 542 374 l 542 161 b 708 46 542 64 604 50 l 708 0 l 265 0 l 265 46 b 432 161 369 50 432 64 l 432 374 l 117 374 l 117 429 l 432 429 l 432 451 l 392 518 l 117 518 "},"":{"ha":889,"x_min":0,"x_max":0,"o":"m 676 757 l 833 757 l 833 699 l 664 699 l 600 393 l 771 393 l 771 335 l 588 335 l 517 0 l 456 0 l 526 335 l 269 335 l 199 0 l 138 0 l 208 335 l 56 335 l 56 393 l 221 393 l 285 699 l 118 699 l 118 757 l 297 757 l 367 1083 l 428 1083 l 358 757 l 615 757 l 685 1083 l 746 1083 m 282 393 l 539 393 l 603 699 l 346 699 "},"":{"ha":965,"x_min":0,"x_max":0,"o":"m 483 1097 b 892 542 758 1097 892 835 b 483 -14 892 249 758 -14 b 74 542 208 -14 74 249 b 483 1097 74 835 208 1097 m 483 1035 b 199 542 264 1035 199 765 b 483 49 199 318 264 49 b 767 542 701 49 767 318 b 483 1035 767 765 701 1035 "},"":{"ha":651,"x_min":0,"x_max":0,"o":"m 403 1097 l 403 157 b 622 47 403 64 451 57 l 622 0 l 50 0 l 50 47 b 293 157 217 57 293 64 l 293 925 l 50 925 l 50 965 l 92 969 b 381 1097 239 985 308 993 "},"":{"ha":765,"x_min":0,"x_max":0,"o":"m 433 92 b 697 256 571 92 622 110 l 735 256 l 664 0 l 18 0 l 18 14 l 279 293 b 556 768 504 533 556 633 b 338 997 556 915 478 997 b 68 843 215 997 136 924 l 39 868 b 374 1097 97 979 210 1097 b 679 799 574 1097 679 967 b 174 92 679 568 419 350 "},"":{"ha":801,"x_min":0,"x_max":0,"o":"m 426 599 b 740 315 617 583 740 471 b 382 -14 740 111 583 -14 b 35 196 157 -14 35 92 b 100 294 35 247 60 279 l 164 294 l 164 253 b 385 43 164 117 246 43 b 624 285 538 43 624 131 b 285 532 624 456 472 532 l 224 532 l 215 574 b 549 846 385 614 549 668 b 369 1008 549 956 474 1008 b 142 896 268 1008 196 960 l 111 919 b 400 1097 164 1033 274 1097 b 672 858 565 1097 672 1004 b 426 599 672 718 531 625 "},"":{"ha":914,"x_min":0,"x_max":0,"o":"m 575 278 l 32 278 l 32 324 l 656 1083 l 688 1083 l 688 342 l 871 342 l 871 278 l 688 278 l 688 161 b 856 46 688 64 751 50 l 856 0 l 406 0 l 406 46 b 575 161 510 50 575 64 m 575 342 l 575 882 l 126 342 "},"":{"ha":790,"x_min":0,"x_max":0,"o":"m 382 -14 b 35 196 157 -14 35 92 b 100 294 35 247 60 279 l 164 294 l 164 253 b 385 43 164 117 246 43 b 619 290 535 43 619 139 b 135 606 619 519 390 603 l 210 1083 l 504 1083 b 649 1164 576 1083 619 1099 l 696 1164 l 640 979 l 254 979 l 213 703 b 725 325 488 683 725 578 b 382 -14 725 133 590 -14 "},"":{"ha":868,"x_min":0,"x_max":0,"o":"m 668 1054 b 206 550 414 960 246 779 b 492 679 253 614 368 679 b 804 363 674 679 804 556 b 451 -14 804 140 661 -14 b 74 428 211 -14 74 194 b 632 1097 74 754 311 1007 m 446 589 b 200 499 342 589 250 549 b 196 408 196 476 196 435 b 451 51 196 178 314 51 b 690 319 604 51 690 154 b 446 589 690 481 606 589 "},"":{"ha":743,"x_min":0,"x_max":0,"o":"m 211 978 b 71 879 139 978 107 954 l 22 879 l 88 1083 l 721 1083 l 721 1050 l 285 0 l 171 0 l 636 978 "},"":{"ha":828,"x_min":0,"x_max":0,"o":"m 724 836 b 514 575 724 706 614 613 l 574 542 b 764 275 678 483 764 406 b 413 -14 764 131 656 -14 b 64 283 201 -14 64 113 b 307 568 64 422 167 515 l 282 581 b 108 838 182 631 108 701 b 414 1097 108 972 214 1097 b 724 836 604 1097 724 992 m 472 597 b 615 843 583 671 615 733 b 414 1036 615 963 528 1036 b 213 854 288 1036 213 964 b 363 654 213 753 267 704 m 351 546 b 181 275 226 474 181 392 b 413 47 181 142 272 47 b 654 264 557 47 654 131 b 500 467 654 375 586 421 "},"":{"ha":860,"x_min":0,"x_max":0,"o":"m 192 29 b 654 533 446 124 614 304 b 368 404 607 469 492 404 b 56 721 186 404 56 528 b 408 1097 56 943 199 1097 b 786 656 649 1097 786 889 b 228 -14 786 329 549 76 m 414 494 b 660 585 518 494 610 535 b 664 675 664 607 664 649 b 408 1032 664 906 546 1032 b 169 764 256 1032 169 929 b 414 494 169 603 254 494 "},"":{"ha":972,"x_min":0,"x_max":0,"o":"m 486 1097 b 894 542 761 1097 894 835 b 486 -14 894 249 761 -14 b 76 542 211 -14 76 249 b 486 1097 76 835 211 1097 m 486 1035 b 201 542 267 1035 201 765 b 486 49 201 318 267 49 b 769 542 704 49 769 318 b 486 1035 769 765 704 1035 "},"":{"ha":714,"x_min":0,"x_max":0,"o":"m 176 -322 b 24 -249 76 -322 24 -297 b 56 -203 24 -224 36 -210 b 261 -235 121 -224 168 -235 b 540 24 436 -235 540 -119 b 103 371 540 226 338 313 l 244 774 l 471 774 b 615 857 544 774 586 792 l 663 857 l 603 675 l 272 675 l 194 458 b 621 88 425 399 621 300 b 176 -322 621 -154 428 -322 "},"":{"ha":972,"x_min":0,"x_max":0,"o":"m 572 1097 l 572 160 b 847 50 572 67 681 60 l 847 0 l 179 0 l 179 50 b 454 160 346 60 454 67 l 454 925 l 179 925 l 179 956 l 258 967 b 557 1097 419 988 469 994 "},"":{"ha":972,"x_min":0,"x_max":0,"o":"m 511 92 b 813 256 649 92 738 110 l 850 256 l 779 0 l 71 0 l 71 14 l 332 293 b 631 767 557 533 631 632 b 403 997 631 914 550 997 b 122 842 276 997 193 922 l 92 867 b 440 1097 153 979 269 1097 b 760 801 650 1097 760 967 b 226 92 760 565 472 350 "},"":{"ha":972,"x_min":0,"x_max":0,"o":"m 508 599 b 843 315 711 583 843 471 b 461 -14 843 111 675 -14 b 90 196 221 -14 90 92 b 157 294 90 247 114 279 l 219 294 l 219 253 b 464 43 219 117 315 43 b 718 285 626 43 718 131 b 376 532 718 456 565 532 l 292 532 l 283 574 b 639 846 464 614 639 668 b 447 1008 639 956 558 1008 b 204 896 339 1008 263 960 l 172 919 b 481 1097 228 1033 346 1097 b 768 861 657 1097 768 1007 b 508 599 768 721 619 625 "},"":{"ha":972,"x_min":0,"x_max":0,"o":"m 594 278 l 51 278 l 51 324 l 675 1083 l 707 1083 l 707 342 l 899 342 l 899 278 l 707 278 l 707 161 b 875 46 707 64 771 50 l 875 0 l 425 0 l 425 46 b 594 161 529 50 594 64 m 594 342 l 594 882 l 146 342 "},"":{"ha":972,"x_min":0,"x_max":0,"o":"m 464 -14 b 106 196 226 -14 106 92 b 174 294 106 247 132 279 l 235 294 l 235 253 b 467 43 235 117 321 43 b 713 290 624 43 713 139 b 204 606 713 519 472 603 l 282 1083 l 596 1083 b 743 1164 672 1083 713 1099 l 793 1164 l 735 979 l 326 979 l 282 703 b 824 325 571 683 824 578 b 464 -14 824 133 682 -14 "},"":{"ha":972,"x_min":0,"x_max":0,"o":"m 724 1054 b 261 550 469 960 301 779 b 547 679 308 614 424 679 b 860 363 729 679 860 556 b 507 -14 860 140 717 -14 b 129 428 267 -14 129 194 b 688 1097 129 754 367 1007 m 501 589 b 256 499 397 589 306 549 b 251 408 251 476 251 435 b 507 51 251 178 369 51 b 746 319 660 51 746 154 b 501 589 746 481 661 589 "},"":{"ha":972,"x_min":0,"x_max":0,"o":"m 306 978 b 165 879 233 978 201 954 l 117 879 l 182 1083 l 885 1083 l 885 1050 l 421 0 l 307 0 l 800 978 "},"":{"ha":972,"x_min":0,"x_max":0,"o":"m 796 836 b 586 575 796 706 686 613 l 646 542 b 836 275 750 483 836 406 b 485 -14 836 131 739 -14 b 136 283 281 -14 136 113 b 379 567 136 422 239 514 l 354 579 b 178 846 254 629 178 701 b 486 1097 178 972 282 1097 b 796 836 674 1097 796 992 m 544 597 b 688 843 656 671 688 733 b 486 1036 688 963 600 1036 b 285 854 360 1036 285 964 b 435 654 285 753 339 704 m 424 544 b 253 275 286 453 253 392 b 485 44 253 142 339 44 b 726 264 629 44 726 136 b 572 465 726 375 658 419 "},"":{"ha":972,"x_min":0,"x_max":0,"o":"m 229 29 b 692 533 483 124 651 304 b 406 404 644 469 529 404 b 93 721 224 404 93 528 b 446 1097 93 943 236 1097 b 824 656 686 1097 824 889 b 265 -14 824 329 586 76 m 451 494 b 697 585 556 494 647 535 b 701 675 701 607 701 649 b 446 1032 701 906 583 1032 b 207 764 293 1032 207 929 b 451 494 207 603 292 494 "},"":{"ha":906,"x_min":0,"x_max":0,"o":"m 71 388 b 453 788 71 618 238 788 b 835 388 668 788 835 618 b 453 -14 835 157 668 -14 b 71 388 238 -14 71 157 m 189 388 b 453 51 189 192 289 51 b 717 388 617 51 717 192 b 453 722 717 583 617 722 b 189 388 289 722 189 583 "},"":{"ha":736,"x_min":0,"x_max":0,"o":"m 113 0 l 113 46 b 350 156 279 56 350 63 l 350 610 l 110 610 l 110 643 l 150 649 b 436 785 300 669 357 685 l 456 785 l 456 156 b 679 46 456 63 513 56 l 679 0 "},"":{"ha":799,"x_min":0,"x_max":0,"o":"m 513 85 b 674 213 601 85 644 142 l 721 213 l 647 0 l 42 0 l 42 21 b 529 539 331 225 529 367 b 351 706 529 651 464 706 b 107 567 232 706 164 644 l 76 599 b 381 788 129 701 225 788 b 646 556 550 788 646 699 b 224 85 646 363 419 229 "},"":{"ha":713,"x_min":0,"x_max":0,"o":"m 18 -249 b 50 -203 18 -224 31 -210 b 256 -235 115 -224 163 -235 b 538 17 421 -235 538 -153 b 249 246 538 167 413 246 l 172 246 l 161 289 b 472 557 324 333 472 376 b 310 707 472 654 410 707 b 88 581 207 707 136 643 l 51 603 b 339 788 110 722 215 788 b 583 576 481 788 583 706 b 375 313 583 435 465 353 b 636 60 507 301 636 221 b 171 -322 636 -158 424 -322 b 18 -249 71 -322 18 -297 "},"":{"ha":886,"x_min":0,"x_max":0,"o":"m 553 -310 l 553 0 l 29 0 l 29 53 l 618 793 l 657 793 l 657 75 l 860 75 l 860 0 l 657 0 l 657 -310 m 553 75 l 553 611 l 129 75 "},"":{"ha":840,"x_min":0,"x_max":0,"o":"m 654 1063 b 194 550 400 968 235 779 b 475 679 242 614 354 679 b 790 363 660 679 790 556 b 438 -14 790 140 647 -14 b 67 428 197 -14 67 203 b 618 1097 67 754 297 1007 m 431 594 b 189 499 325 594 239 549 b 185 408 185 476 185 435 b 438 51 185 178 300 51 b 679 321 590 51 679 153 b 431 594 679 485 593 594 "},"":{"ha":772,"x_min":0,"x_max":0,"o":"m 751 774 l 751 750 l 286 -310 l 208 -310 l 647 672 l 228 672 b 88 574 156 672 124 649 l 39 574 l 104 774 "},"":{"ha":815,"x_min":0,"x_max":0,"o":"m 703 849 b 486 568 703 718 608 617 l 565 519 b 742 257 669 456 742 369 b 415 -14 742 94 603 -14 b 74 260 214 -14 74 92 b 339 544 74 421 211 504 l 279 583 b 119 842 179 649 119 735 b 406 1097 119 992 238 1097 b 703 849 592 1097 703 992 m 218 853 b 365 644 218 763 264 708 l 450 590 b 601 849 558 657 601 738 b 406 1038 601 967 524 1038 b 218 853 290 1038 218 967 m 376 524 b 182 261 238 451 182 374 b 415 47 182 133 283 47 b 639 253 540 47 639 124 b 478 460 639 349 576 400 "},"":{"ha":840,"x_min":0,"x_max":0,"o":"m 186 -289 b 646 224 440 -194 606 -6 b 365 94 599 160 486 94 b 50 411 181 94 50 218 b 403 788 50 633 193 788 b 774 346 643 788 774 571 b 222 -324 774 19 543 -233 m 410 179 b 651 275 515 179 601 225 b 656 365 656 297 656 339 b 403 722 656 596 540 722 b 161 453 250 722 161 621 b 410 179 161 289 247 179 "},"":{"ha":972,"x_min":0,"x_max":0,"o":"m 104 388 b 486 788 104 618 271 788 b 868 388 701 788 868 618 b 486 -14 868 157 701 -14 b 104 388 271 -14 104 157 m 222 388 b 486 51 222 192 322 51 b 750 388 650 51 750 192 b 486 722 750 583 650 722 b 222 388 322 722 222 583 "},"":{"ha":972,"x_min":0,"x_max":0,"o":"m 575 788 l 575 153 b 850 50 575 60 682 53 l 850 0 l 189 0 l 189 50 b 464 153 356 53 464 60 l 464 613 l 189 613 l 189 644 l 279 660 b 558 788 431 685 482 701 "},"":{"ha":972,"x_min":0,"x_max":0,"o":"m 596 85 b 757 213 685 85 728 142 l 804 213 l 731 0 l 125 0 l 125 21 b 613 539 414 225 613 367 b 435 706 613 651 547 706 b 190 567 315 706 247 644 l 160 599 b 464 788 213 701 308 788 b 729 556 633 788 729 699 b 307 85 729 363 503 229 "},"":{"ha":972,"x_min":0,"x_max":0,"o":"m 139 -249 b 171 -203 139 -224 151 -210 b 376 -235 236 -224 283 -235 b 658 17 542 -235 658 -153 b 369 246 658 167 533 246 l 293 246 l 282 289 b 593 557 444 333 593 376 b 431 707 593 654 531 707 b 208 581 328 707 257 643 l 172 603 b 460 788 231 722 336 788 b 704 576 601 788 704 706 b 496 313 704 435 586 353 b 757 60 628 301 757 221 b 292 -322 757 -158 544 -322 b 139 -249 192 -322 139 -297 "},"":{"ha":972,"x_min":0,"x_max":0,"o":"m 583 -310 l 583 0 l 60 0 l 60 53 l 649 793 l 688 793 l 688 75 l 890 75 l 890 0 l 688 0 l 688 -310 m 583 75 l 583 611 l 160 75 "},"":{"ha":972,"x_min":0,"x_max":0,"o":"m 288 -322 b 135 -249 188 -322 135 -297 b 167 -203 135 -224 147 -210 b 372 -235 232 -224 279 -235 b 651 24 547 -235 651 -119 b 214 371 651 226 449 313 l 356 774 l 582 774 b 726 857 656 774 697 792 l 774 857 l 714 675 l 383 675 l 306 458 b 732 88 536 399 732 300 b 288 -322 732 -154 539 -322 "},"":{"ha":972,"x_min":0,"x_max":0,"o":"m 722 1063 b 263 550 468 968 303 779 b 543 679 310 614 422 679 b 858 363 728 679 858 556 b 506 -14 858 140 715 -14 b 135 428 265 -14 135 203 b 686 1097 135 754 365 1007 m 499 594 b 257 499 393 594 307 549 b 253 408 253 476 253 435 b 506 51 253 178 368 51 b 747 321 658 51 747 153 b 499 594 747 485 661 594 "},"":{"ha":972,"x_min":0,"x_max":0,"o":"m 844 774 l 844 750 l 379 -310 l 301 -310 l 740 672 l 321 672 b 181 574 249 672 217 649 l 132 574 l 197 774 "},"":{"ha":972,"x_min":0,"x_max":0,"o":"m 782 849 b 565 568 782 718 688 617 l 644 519 b 821 257 749 456 821 369 b 494 -14 821 94 682 -14 b 153 260 293 -14 153 92 b 418 544 153 421 290 504 l 358 583 b 199 842 258 649 199 735 b 485 1097 199 992 317 1097 b 782 849 671 1097 782 992 m 297 853 b 444 644 297 763 343 708 l 529 590 b 681 849 638 657 681 738 b 485 1038 681 967 603 1038 b 297 853 369 1038 297 967 m 456 524 b 261 261 317 451 261 374 b 494 47 261 133 363 47 b 718 253 619 47 718 124 b 557 460 718 349 656 400 "},"":{"ha":972,"x_min":0,"x_max":0,"o":"m 232 -289 b 692 224 486 -194 651 -6 b 411 94 644 160 532 94 b 96 411 226 94 96 218 b 449 788 96 633 239 788 b 819 346 689 788 819 571 b 268 -324 819 19 589 -233 m 456 179 b 697 275 561 179 647 225 b 701 365 701 297 701 339 b 449 722 701 596 586 722 b 207 453 296 722 207 621 b 456 179 207 289 293 179 "},"":{"ha":615,"x_min":0,"x_max":0,"o":"m 558 3 b 308 -342 558 -207 476 -342 b 58 3 140 -342 58 -207 b 308 347 58 213 140 347 b 558 3 476 347 558 213 m 165 3 b 308 -293 165 -161 183 -293 b 451 3 433 -293 451 -161 b 308 299 451 167 433 299 b 165 3 183 299 165 167 "},"":{"ha":571,"x_min":0,"x_max":0,"o":"m 332 347 l 332 -225 b 503 -293 332 -283 397 -287 l 503 -333 l 64 -333 l 64 -293 b 238 -225 168 -287 238 -283 l 238 196 l 64 196 l 64 228 l 99 232 b 313 347 182 244 256 282 "},"":{"ha":576,"x_min":0,"x_max":0,"o":"m 329 -250 b 483 -151 413 -250 436 -242 l 511 -151 l 486 -333 l 33 -333 l 33 -308 l 211 -126 b 375 131 340 6 375 54 b 236 264 375 218 322 264 b 69 176 158 264 113 218 l 49 200 b 274 347 88 275 161 347 b 474 156 403 347 474 271 b 154 -250 474 21 325 -89 "},"":{"ha":601,"x_min":0,"x_max":0,"o":"m 329 40 b 524 -151 449 26 524 -50 b 286 -342 524 -283 410 -342 b 68 -200 146 -342 68 -271 b 108 -132 68 -167 88 -143 l 165 -132 l 165 -165 b 297 -296 165 -244 207 -296 b 426 -164 376 -296 426 -254 b 240 -14 426 -50 347 -14 l 199 -14 l 199 17 b 394 178 310 54 394 94 b 282 274 394 239 358 274 b 117 188 206 274 154 226 l 94 211 b 310 347 135 288 200 347 b 488 204 429 347 488 278 b 329 40 488 113 396 69 "},"":{"ha":614,"x_min":0,"x_max":0,"o":"m 379 -333 l 379 -158 l 22 -158 l 22 -117 l 429 339 l 478 339 l 478 -103 l 585 -103 l 585 -158 l 478 -158 l 478 -333 m 379 -103 l 379 199 l 107 -103 "},"":{"ha":607,"x_min":0,"x_max":0,"o":"m 290 -297 b 428 -153 378 -297 428 -249 b 129 36 428 -21 299 36 l 181 339 l 390 339 b 474 383 436 339 446 342 l 517 383 l 478 247 l 214 247 l 192 114 b 513 -124 379 104 513 25 b 279 -342 513 -258 410 -342 b 65 -203 135 -342 65 -272 b 104 -132 65 -168 85 -143 l 163 -132 l 163 -169 b 290 -297 163 -244 194 -297 "},"":{"ha":590,"x_min":0,"x_max":0,"o":"m 461 306 b 171 32 276 251 199 158 b 338 99 206 65 263 99 b 544 -107 453 99 544 26 b 303 -342 544 -246 440 -342 b 58 -61 149 -342 58 -217 b 440 344 58 133 197 297 m 292 35 b 163 -8 235 35 190 14 b 160 -62 160 -25 160 -46 b 313 -292 160 -206 221 -292 b 453 -136 401 -292 453 -233 b 292 35 453 -35 393 35 "},"":{"ha":588,"x_min":0,"x_max":0,"o":"m 167 247 b 85 156 124 247 107 214 l 49 156 l 79 339 l 538 339 l 538 311 l 265 -333 l 161 -333 l 468 247 "},"":{"ha":590,"x_min":0,"x_max":0,"o":"m 507 186 b 367 29 507 111 433 49 l 401 14 b 533 -154 478 -19 533 -68 b 296 -342 533 -257 460 -342 b 56 -165 151 -342 56 -269 b 206 10 56 -79 121 -15 l 194 15 b 81 174 129 49 81 88 b 292 347 81 271 158 347 b 507 186 424 347 507 285 m 335 46 b 422 189 403 85 422 128 b 292 296 422 256 369 296 b 168 193 215 296 168 260 b 263 79 168 138 201 107 m 243 -7 b 143 -158 165 -47 143 -110 b 297 -292 143 -244 206 -292 b 443 -172 385 -292 443 -244 b 343 -50 443 -111 410 -79 "},"":{"ha":590,"x_min":0,"x_max":0,"o":"m 129 -303 b 419 -29 314 -249 392 -156 b 253 -96 385 -62 328 -96 b 46 110 138 -96 46 -24 b 288 344 46 249 150 344 b 532 64 442 344 532 219 b 150 -342 532 -131 393 -294 m 299 -32 b 428 11 356 -32 400 -11 b 431 65 431 28 431 49 b 278 294 431 208 369 294 b 138 139 189 294 138 236 b 299 -32 138 38 197 -32 "},"":{"ha":608,"x_min":0,"x_max":0,"o":"m 274 -47 l 69 -47 l 69 7 l 274 7 l 274 214 l 335 214 l 335 7 l 539 7 l 539 -47 l 335 -47 l 335 -257 l 274 -257 "},"":{"ha":608,"x_min":0,"x_max":0,"o":"m 69 -47 l 69 7 l 539 7 l 539 -47 "},"":{"ha":608,"x_min":0,"x_max":0,"o":"m 69 14 l 69 68 l 539 68 l 539 14 m 69 -110 l 69 -54 l 539 -54 l 539 -110 "},"":{"ha":339,"x_min":0,"x_max":0,"o":"m 56 -11 b 257 404 56 161 128 292 l 293 371 b 119 -11 197 275 119 161 b 293 -393 119 -183 197 -297 l 257 -426 b 56 -11 128 -314 56 -183 "},"":{"ha":335,"x_min":0,"x_max":0,"o":"m 279 -11 b 82 -426 279 -183 210 -314 l 46 -393 b 215 -11 140 -297 215 -183 b 46 371 215 161 140 275 l 82 404 b 279 -11 210 292 279 161 "},"":{"ha":972,"x_min":0,"x_max":0,"o":"m 447 507 l 111 507 l 111 576 l 447 576 l 447 917 l 525 917 l 525 576 l 861 576 l 861 507 l 525 507 l 525 167 l 447 167 "},"":{"ha":972,"x_min":0,"x_max":0,"o":"m 111 507 l 111 576 l 861 576 l 861 507 "},"":{"ha":972,"x_min":0,"x_max":0,"o":"m 536 543 l 833 244 l 782 196 l 486 496 l 190 196 l 139 243 l 436 542 l 139 839 l 190 888 l 486 588 l 782 888 l 833 840 "},"":{"ha":972,"x_min":0,"x_max":0,"o":"m 407 850 b 488 928 407 892 443 928 b 569 850 532 928 569 892 b 488 772 569 807 532 772 b 407 850 443 772 407 807 m 111 507 l 111 576 l 861 576 l 861 507 m 407 233 b 488 311 407 276 443 311 b 569 233 532 311 569 276 b 488 156 569 192 532 156 b 407 233 443 156 407 192 "},"":{"ha":972,"x_min":0,"x_max":0,"o":"m 111 608 l 111 678 l 861 678 l 861 608 m 111 406 l 111 475 l 861 475 l 861 406 "},"":{"ha":972,"x_min":0,"x_max":0,"o":"m 158 542 l 376 449 l 861 235 l 861 160 l 111 499 l 111 585 l 861 924 l 861 849 l 376 635 "},"":{"ha":972,"x_min":0,"x_max":0,"o":"m 814 542 l 596 635 l 111 849 l 111 924 l 861 585 l 861 499 l 111 160 l 111 235 l 596 449 "},"":{"ha":885,"x_min":0,"x_max":0,"o":"m 424 349 l 244 136 b 214 79 229 117 214 101 b 313 43 214 56 231 43 l 313 0 l 28 0 l 28 43 b 139 103 76 43 104 64 l 389 392 l 164 672 b 57 731 135 708 107 731 l 57 774 l 383 774 l 383 731 b 289 692 294 731 289 710 b 313 647 289 676 301 661 l 464 457 l 626 649 b 650 692 638 660 650 678 b 554 731 650 713 643 731 l 554 774 l 838 774 l 838 731 b 726 674 776 731 757 708 l 499 413 l 744 103 b 857 43 776 63 808 43 l 857 0 l 521 0 l 521 43 b 621 83 606 43 621 60 b 592 142 621 106 610 121 "},"":{"ha":885,"x_min":0,"x_max":0,"o":"m 592 142 b 621 83 610 121 621 106 b 521 43 621 60 606 43 l 521 0 l 857 0 l 857 43 b 744 103 808 43 776 63 l 499 413 l 726 674 b 838 731 757 708 776 731 l 838 774 l 554 774 l 554 731 b 650 692 643 731 650 713 b 626 649 650 678 638 660 l 464 457 l 313 647 b 289 692 301 661 289 676 b 383 731 289 710 294 731 l 383 774 l 57 774 l 57 731 b 164 672 107 731 135 708 l 389 392 l 139 103 b 28 43 104 64 76 43 l 28 0 l 313 0 l 313 43 b 214 79 231 43 214 56 b 244 136 214 101 229 117 l 424 349 "},"Ą":{"ha":1136,"x_min":0,"x_max":0,"o":"m 729 0 l 729 46 b 886 113 843 50 886 65 b 869 175 886 131 879 151 l 789 361 l 299 361 l 221 176 b 204 114 211 153 204 132 b 363 46 204 67 249 50 l 363 0 l 14 0 l 14 46 b 111 103 58 53 93 61 l 503 1013 l 461 1101 l 593 1101 l 1025 103 b 1122 46 1043 61 1078 53 l 1122 0 b 944 -179 1031 -28 944 -82 b 1056 -282 944 -243 988 -282 b 1146 -261 1094 -282 1121 -272 l 1161 -292 b 1018 -347 1125 -328 1082 -347 b 858 -192 933 -347 858 -303 b 1017 0 858 -101 926 -39 m 325 424 l 763 424 l 543 938 "},"Ę":{"ha":1126,"x_min":0,"x_max":0,"o":"m 64 0 l 64 46 b 236 161 168 50 236 64 l 236 922 b 64 1038 236 1019 168 1033 l 64 1083 l 979 1083 l 983 839 l 957 839 b 726 1022 899 976 853 1022 l 349 1022 l 349 582 l 693 582 b 807 728 763 582 790 635 l 846 728 l 846 376 l 807 376 b 693 521 790 469 763 521 l 349 521 l 349 165 b 519 61 349 82 399 61 l 735 61 b 1001 263 881 61 900 99 l 1035 263 l 986 0 b 808 -179 894 -28 808 -82 b 919 -282 808 -243 851 -282 b 1010 -261 958 -282 985 -272 l 1025 -292 b 882 -347 989 -328 946 -347 b 722 -192 797 -347 722 -303 b 881 0 722 -101 790 -39 "},"ą":{"ha":843,"x_min":0,"x_max":0,"o":"m 663 -8 b 565 122 618 6 568 51 b 300 -15 514 65 438 -15 b 86 172 158 -15 86 69 b 288 361 86 304 185 332 l 561 440 l 561 474 b 369 676 561 581 504 676 b 231 565 283 676 231 643 b 239 510 231 549 232 531 l 147 500 b 118 567 129 513 118 542 b 396 740 118 674 249 740 b 667 488 557 740 667 665 l 667 157 b 738 60 667 96 692 60 b 799 72 756 60 778 64 l 813 46 b 640 -182 742 -7 640 -62 b 736 -289 640 -249 685 -289 b 842 -261 779 -289 813 -279 l 857 -290 b 711 -347 819 -326 778 -347 b 554 -196 638 -347 554 -311 b 663 -8 554 -114 611 -56 m 333 60 b 561 174 425 60 490 111 l 561 383 l 290 300 b 203 190 238 283 203 250 b 333 60 203 103 257 60 "},"ę":{"ha":776,"x_min":0,"x_max":0,"o":"m 564 15 b 403 -179 483 -21 403 -82 b 514 -282 403 -243 446 -282 b 604 -261 553 -282 579 -272 l 619 -292 b 476 -347 583 -328 540 -347 b 317 -192 392 -347 317 -303 b 449 -12 317 -110 372 -51 l 414 -14 b 60 339 183 -14 60 154 b 417 740 60 575 203 740 b 718 450 615 740 718 615 l 718 417 l 157 417 b 440 75 143 210 261 75 b 686 200 560 75 624 121 l 721 188 b 564 15 694 117 644 51 m 389 669 b 167 476 275 669 190 590 l 603 476 b 389 669 603 586 528 669 "},"į":{"ha":483,"x_min":0,"x_max":0,"o":"m 161 963 b 242 1044 161 1008 196 1044 b 324 963 288 1044 324 1008 b 242 882 324 917 288 882 b 161 963 196 882 161 917 m 82 0 l 82 40 b 200 119 146 49 200 56 l 200 607 l 89 643 l 89 671 l 267 738 l 313 738 l 306 589 l 306 119 b 424 40 306 56 360 49 l 424 0 b 246 -179 332 -28 246 -82 b 357 -282 246 -243 289 -282 b 447 -261 396 -282 422 -272 l 463 -292 b 319 -347 426 -328 383 -347 b 160 -192 235 -347 160 -303 b 318 0 160 -101 228 -39 "},"ų":{"ha":931,"x_min":0,"x_max":0,"o":"m 647 126 b 383 -14 586 60 507 -14 b 154 218 254 -14 154 49 l 154 611 b 51 679 154 664 128 671 l 26 681 l 26 726 l 236 740 l 267 740 l 260 593 l 260 229 b 417 67 260 115 325 67 b 647 185 508 67 583 126 l 647 611 b 544 679 647 664 621 671 l 518 681 l 518 726 l 729 740 l 760 740 l 753 593 l 753 143 b 840 83 753 96 769 93 l 879 78 l 879 36 b 707 -179 765 0 707 -82 b 818 -282 707 -243 750 -282 b 908 -261 857 -282 883 -272 l 924 -292 b 781 -347 888 -328 844 -347 b 621 -192 696 -347 621 -303 b 769 11 621 -101 679 -28 l 651 -14 l 640 -14 "},"ª":{"ha":597,"x_min":0,"x_max":0,"o":"m 472 615 b 518 550 472 574 489 550 b 558 557 525 550 546 553 l 568 525 b 468 479 535 493 504 479 b 378 567 418 479 394 514 b 200 479 342 528 288 479 b 54 611 104 479 54 536 b 189 742 54 700 115 721 l 374 796 l 374 817 b 257 957 374 896 338 957 b 174 886 203 957 174 935 b 179 840 174 878 176 858 l 97 831 b 76 882 85 843 76 858 b 275 1007 76 960 168 1007 b 472 822 394 1007 472 958 m 244 550 b 374 608 299 550 329 575 l 374 750 l 210 697 b 157 632 176 686 157 667 b 244 550 157 578 192 550 "},"º":{"ha":607,"x_min":0,"x_max":0,"o":"m 293 479 b 39 733 142 479 39 586 b 313 1007 39 901 165 1007 b 568 753 465 1007 568 900 b 293 479 568 585 442 479 m 324 540 b 464 719 418 540 464 615 b 283 947 464 842 399 947 b 142 767 189 947 142 872 b 324 540 142 644 208 540 "},"":{"ha":533,"x_min":0,"x_max":0,"o":"m 132 763 b 314 564 132 639 194 564 b 479 640 392 564 447 601 l 507 628 b 283 479 485 557 419 479 b 39 726 115 479 39 606 b 314 1007 39 896 156 1007 b 496 882 425 1007 496 953 b 458 821 496 853 481 831 l 390 821 l 390 861 b 297 951 390 919 364 951 b 132 763 201 951 132 883 "},"‛":{"ha":349,"x_min":0,"x_max":0,"o":"m 129 954 b 288 796 129 888 169 824 l 288 747 b 51 988 121 764 51 885 b 154 1119 51 1051 82 1119 b 243 1036 206 1119 243 1088 b 181 954 243 993 218 964 "},"‟":{"ha":635,"x_min":0,"x_max":0,"o":"m 129 956 b 288 797 129 889 169 825 l 288 749 b 51 989 121 765 51 886 b 154 1121 51 1053 82 1121 b 243 1038 206 1121 243 1089 b 181 956 243 994 218 965 m 415 956 b 574 797 415 889 456 825 l 574 749 b 338 989 407 765 338 886 b 440 1121 338 1053 368 1121 b 529 1038 492 1121 529 1089 b 467 956 529 994 504 965 "},"":{"ha":418,"x_min":0,"x_max":0,"o":"m 57 390 l 292 654 l 343 654 l 165 383 l 343 113 l 292 113 l 57 376 "},"":{"ha":418,"x_min":0,"x_max":0,"o":"m 361 376 l 126 113 l 75 113 l 253 383 l 75 654 l 126 654 l 361 390 "},"":{"ha":636,"x_min":0,"x_max":0,"o":"m 57 390 l 292 654 l 343 654 l 165 383 l 343 113 l 292 113 l 57 376 m 276 390 l 510 654 l 561 654 l 383 383 l 561 113 l 510 113 l 276 376 "},"":{"ha":636,"x_min":0,"x_max":0,"o":"m 361 376 l 126 113 l 75 113 l 253 383 l 75 654 l 126 654 l 361 390 m 579 376 l 344 113 l 294 113 l 472 383 l 294 654 l 344 654 l 579 390 "},"":{"ha":486,"x_min":0,"x_max":0,"o":"m 156 74 b 243 163 156 122 194 163 b 332 74 292 163 332 122 b 243 -14 332 25 292 -14 b 156 74 194 -14 156 25 "},"":{"ha":486,"x_min":0,"x_max":0,"o":"m 218 -6 b 156 76 181 4 156 33 b 244 160 156 128 193 160 b 347 28 317 160 347 92 b 111 -212 347 -75 278 -196 l 111 -164 b 269 -6 229 -136 269 -72 "},"":{"ha":486,"x_min":0,"x_max":0,"o":"m 156 521 b 243 610 156 569 194 610 b 332 521 292 610 332 569 b 243 433 332 472 292 433 b 156 521 194 433 156 472 m 156 74 b 243 163 156 122 194 163 b 332 74 292 163 332 122 b 243 -14 332 25 292 -14 b 156 74 194 -14 156 25 "},"":{"ha":486,"x_min":0,"x_max":0,"o":"m 153 521 b 240 610 153 569 192 610 b 329 521 289 610 329 569 b 240 433 329 472 289 433 b 153 521 192 433 153 472 m 215 -6 b 153 76 178 4 153 33 b 242 160 153 128 190 160 b 344 28 314 160 344 92 b 108 -212 344 -75 275 -196 l 108 -164 b 267 -6 226 -136 267 -72 "},"":{"ha":833,"x_min":0,"x_max":0,"o":"m 426 1431 l 543 1142 l 497 1142 l 290 1431 "},"":{"ha":833,"x_min":0,"x_max":0,"o":"m 543 1431 l 336 1142 l 290 1142 l 403 1431 "},"":{"ha":833,"x_min":0,"x_max":0,"o":"m 661 1142 l 614 1142 l 417 1328 l 219 1142 l 172 1142 l 378 1431 l 456 1431 "},"":{"ha":833,"x_min":0,"x_max":0,"o":"m 508 1181 b 294 1264 418 1181 357 1264 b 197 1192 247 1264 231 1253 l 151 1197 b 324 1343 185 1288 239 1343 b 538 1260 414 1343 475 1260 b 635 1332 585 1260 601 1271 l 681 1326 b 508 1181 647 1235 593 1181 "},"":{"ha":833,"x_min":0,"x_max":0,"o":"m 233 1294 l 600 1294 l 600 1222 l 233 1222 "},"":{"ha":833,"x_min":0,"x_max":0,"o":"m 417 1157 b 176 1433 244 1157 176 1258 l 226 1433 b 417 1239 243 1288 325 1239 b 607 1433 508 1239 590 1288 l 657 1433 b 417 1157 657 1258 589 1157 "},"":{"ha":833,"x_min":0,"x_max":0,"o":"m 417 1418 b 657 1142 589 1418 657 1317 l 607 1142 b 417 1336 590 1288 508 1336 b 226 1142 325 1336 243 1288 l 176 1142 b 417 1418 176 1317 244 1418 "},"":{"ha":833,"x_min":0,"x_max":0,"o":"m 335 1263 b 415 1344 335 1308 369 1344 b 497 1263 461 1344 497 1308 b 415 1182 497 1217 461 1182 b 335 1263 369 1182 335 1217 "},"":{"ha":833,"x_min":0,"x_max":0,"o":"m 200 1263 b 278 1342 200 1306 235 1342 b 357 1263 321 1342 357 1306 b 278 1185 357 1219 321 1185 b 200 1263 235 1185 200 1219 m 476 1263 b 554 1342 476 1306 511 1342 b 633 1263 597 1342 633 1306 b 554 1185 633 1219 597 1185 b 476 1263 511 1185 476 1219 "},"":{"ha":833,"x_min":0,"x_max":0,"o":"m 261 1286 b 417 1444 261 1374 324 1444 b 572 1286 510 1444 572 1374 b 417 1128 572 1199 510 1128 b 261 1286 324 1128 261 1199 m 506 1286 b 417 1389 506 1344 478 1389 b 329 1286 356 1389 329 1344 b 417 1183 329 1228 356 1183 b 506 1286 478 1183 506 1228 "},"":{"ha":833,"x_min":0,"x_max":0,"o":"m 421 1431 l 251 1142 l 201 1142 l 294 1431 m 631 1431 l 461 1142 l 411 1142 l 504 1431 "},"":{"ha":833,"x_min":0,"x_max":0,"o":"m 328 1431 l 421 1142 l 372 1142 l 203 1431 m 538 1431 l 631 1142 l 582 1142 l 413 1431 "},"":{"ha":833,"x_min":0,"x_max":0,"o":"m 172 1431 l 219 1431 l 417 1244 l 614 1431 l 661 1431 l 456 1142 l 378 1142 "}," ":{"ha":333,"x_min":0,"x_max":0,"o":""}," ":{"ha":694,"x_min":0,"x_max":0,"o":""}," ":{"ha":1389,"x_min":0,"x_max":0,"o":""}," ":{"ha":463,"x_min":0,"x_max":0,"o":""}," ":{"ha":347,"x_min":0,"x_max":0,"o":""}," ":{"ha":232,"x_min":0,"x_max":0,"o":""}," ":{"ha":972,"x_min":0,"x_max":0,"o":""}," ":{"ha":389,"x_min":0,"x_max":0,"o":""}," ":{"ha":278,"x_min":0,"x_max":0,"o":""}," ":{"ha":139,"x_min":0,"x_max":0,"o":""},"​":{"ha":0,"x_min":0,"x_max":0,"o":""},"­":{"ha":483,"x_min":0,"x_max":0,"o":"m 69 429 l 69 510 l 414 510 l 414 429 "},"":{"ha":483,"x_min":0,"x_max":0,"o":"m 69 340 l 69 421 l 414 421 l 414 340 "},"":{"ha":463,"x_min":0,"x_max":0,"o":"m 393 340 l 69 340 l 69 421 l 393 421 "},"":{"ha":694,"x_min":0,"x_max":0,"o":"m 69 340 l 69 421 l 625 421 l 625 340 "},"":{"ha":1042,"x_min":0,"x_max":0,"o":"m 972 340 l 69 340 l 69 421 l 972 421 "},"":{"ha":1389,"x_min":0,"x_max":0,"o":"m 69 340 l 69 421 l 1319 421 l 1319 340 "},"":{"ha":972,"x_min":0,"x_max":0,"o":"m 903 340 l 69 340 l 69 421 l 903 421 "},"":{"ha":1944,"x_min":0,"x_max":0,"o":"m 1875 340 l 69 340 l 69 421 l 1875 421 "},"":{"ha":694,"x_min":0,"x_max":0,"o":"m 69 501 l 69 582 l 625 582 l 625 501 "},"":{"ha":1042,"x_min":0,"x_max":0,"o":"m 972 501 l 69 501 l 69 582 l 972 582 "},"":{"ha":1389,"x_min":0,"x_max":0,"o":"m 69 501 l 69 582 l 1319 582 l 1319 501 "},"":{"ha":972,"x_min":0,"x_max":0,"o":"m 903 501 l 69 501 l 69 582 l 903 582 "},"":{"ha":1944,"x_min":0,"x_max":0,"o":"m 1875 501 l 69 501 l 69 582 l 1875 582 "},"":{"ha":438,"x_min":0,"x_max":0,"o":"m 131 383 b 218 472 131 432 169 472 b 307 383 267 472 307 432 b 218 296 307 335 267 296 b 131 383 169 296 131 335 "},"⅟":{"ha":964,"x_min":0,"x_max":0,"o":"m 332 1092 l 332 519 b 503 451 332 461 397 457 l 503 411 l 64 411 l 64 451 b 238 519 168 457 238 461 l 238 940 l 64 940 l 64 972 l 99 976 b 313 1092 182 989 256 1026 m 1090 1083 l 1169 1083 l 444 0 l 365 0 "},"⚪":{"ha":986,"x_min":0,"x_max":0,"o":"m 111 368 b 493 750 111 579 282 750 b 875 368 704 750 875 579 b 493 -14 875 157 704 -14 b 111 368 282 -14 111 157 m 779 368 b 493 657 779 528 651 657 b 207 368 335 657 207 528 b 493 79 207 208 335 79 b 779 368 651 79 779 208 "},"⚫":{"ha":986,"x_min":0,"x_max":0,"o":"m 111 368 b 493 750 111 579 282 750 b 875 368 704 750 875 579 b 493 -14 875 157 704 -14 b 111 368 282 -14 111 157 "},"€":{"ha":1049,"x_min":0,"x_max":0,"o":"m 42 658 l 188 658 b 635 1097 229 943 400 1097 b 944 1008 788 1097 875 1061 l 951 776 l 914 776 b 626 1032 865 965 768 1032 b 304 658 425 1032 322 875 l 775 658 l 750 600 l 301 600 l 301 581 b 304 488 301 549 303 518 l 717 488 l 692 429 l 311 429 b 650 49 339 219 436 49 b 950 319 842 49 893 153 l 993 319 l 965 69 b 629 -14 883 19 775 -14 b 183 429 353 -14 211 185 l 42 429 l 42 488 l 179 488 l 179 521 b 182 600 179 547 179 574 l 42 600 "},"̀":{"ha":0,"x_min":0,"x_max":0,"o":"m -390 1431 l -274 1142 l -336 1142 l -560 1431 "},"́":{"ha":0,"x_min":0,"x_max":0,"o":"m -274 1431 l -497 1142 l -560 1142 l -443 1431 "},"̂":{"ha":0,"x_min":0,"x_max":0,"o":"m -161 1142 l -225 1142 l -417 1314 l -608 1142 l -672 1142 l -464 1431 l -369 1431 "},"̃":{"ha":0,"x_min":0,"x_max":0,"o":"m -326 1193 b -539 1275 -414 1193 -478 1275 b -635 1201 -585 1275 -603 1260 l -689 1210 b -508 1381 -650 1324 -596 1381 b -296 1299 -421 1381 -357 1299 b -200 1372 -250 1299 -232 1314 l -146 1364 b -326 1193 -185 1250 -239 1193 "},"̄":{"ha":0,"x_min":0,"x_max":0,"o":"m -606 1331 l -228 1331 l -228 1242 l -606 1242 "},"̇":{"ha":0,"x_min":0,"x_max":0,"o":"m -514 1286 b -417 1383 -514 1340 -471 1383 b -319 1286 -362 1383 -319 1340 b -417 1189 -319 1232 -362 1189 b -514 1286 -471 1189 -514 1232 "},"̈":{"ha":0,"x_min":0,"x_max":0,"o":"m -653 1286 b -556 1383 -653 1340 -610 1383 b -458 1286 -501 1383 -458 1340 b -556 1189 -458 1232 -501 1189 b -653 1286 -610 1189 -653 1232 m -375 1286 b -278 1383 -375 1340 -332 1383 b -181 1286 -224 1383 -181 1340 b -278 1189 -181 1232 -224 1189 b -375 1286 -332 1189 -375 1232 "},"̌":{"ha":0,"x_min":0,"x_max":0,"o":"m -672 1431 l -608 1431 l -417 1258 l -225 1431 l -161 1431 l -369 1142 l -464 1142 "},"":{"ha":551,"x_min":0,"x_max":0,"o":"m 82 0 l 82 43 b 221 113 149 44 221 54 l 221 661 b 82 731 221 719 149 729 l 82 774 l 468 774 l 468 731 b 329 661 401 729 329 719 l 329 113 b 468 43 329 54 401 44 l 468 0 b 290 -179 376 -28 290 -82 b 401 -282 290 -243 333 -282 b 492 -261 440 -282 467 -272 l 507 -292 b 364 -347 471 -328 428 -347 b 204 -192 279 -347 204 -303 b 363 0 204 -101 272 -39 "},"":{"ha":551,"x_min":0,"x_max":0,"o":"m 363 0 b 204 -192 272 -39 204 -101 b 364 -347 204 -303 279 -347 b 507 -292 428 -347 471 -328 l 492 -261 b 401 -282 467 -272 440 -282 b 290 -179 333 -282 290 -243 b 468 0 290 -82 376 -28 l 468 43 b 329 113 401 44 329 54 l 329 661 b 468 731 329 719 401 729 l 468 774 l 82 774 l 82 731 b 221 661 149 729 221 719 l 221 113 b 82 43 221 54 149 44 l 82 0 "},"":{"ha":976,"x_min":0,"x_max":0,"o":"m 807 263 b 601 1 807 126 715 35 b 463 -179 528 -32 463 -97 b 574 -282 463 -243 506 -282 b 664 -261 613 -282 639 -272 l 679 -292 b 536 -347 643 -328 600 -347 b 376 -192 451 -347 376 -303 b 485 -14 376 -118 422 -56 b 169 272 294 -10 169 93 l 169 661 b 31 731 169 719 97 729 l 31 774 l 417 774 l 417 731 b 278 661 350 729 278 719 l 278 299 b 499 56 278 139 368 56 b 742 300 638 56 742 125 l 742 661 b 603 731 742 718 668 729 l 603 774 l 946 774 l 946 731 b 807 661 879 729 807 718 "},"":{"ha":976,"x_min":0,"x_max":0,"o":"m 807 661 b 946 731 807 718 879 729 l 946 774 l 603 774 l 603 731 b 742 661 668 729 742 718 l 742 300 b 499 56 742 125 638 56 b 278 299 368 56 278 139 l 278 661 b 417 731 278 719 350 729 l 417 774 l 31 774 l 31 731 b 169 661 97 729 169 719 l 169 272 b 485 -14 169 93 294 -10 b 376 -192 422 -56 376 -118 b 536 -347 376 -303 451 -347 b 679 -292 600 -347 643 -328 l 664 -261 b 574 -282 639 -272 613 -282 b 463 -179 506 -282 463 -243 b 601 1 463 -97 528 -32 b 807 263 715 35 807 126 "},"":{"ha":819,"x_min":0,"x_max":0,"o":"m 318 4 b 71 368 157 54 71 203 b 479 788 71 625 238 788 l 490 788 l 528 954 l 588 954 l 550 782 b 744 608 678 764 744 692 b 694 522 744 568 725 536 l 636 522 l 636 551 b 532 703 636 631 600 681 l 397 85 b 471 78 421 79 444 78 b 726 214 599 78 661 129 l 764 200 b 443 -14 724 86 624 -14 b 376 -8 419 -14 397 -11 l 347 -146 l 286 -146 m 172 410 b 340 103 172 268 229 153 l 475 715 b 440 717 464 715 451 717 b 172 410 290 717 172 599 "},"":{"ha":924,"x_min":0,"x_max":0,"o":"m 872 36 b 700 -179 758 0 700 -82 b 811 -282 700 -243 743 -282 b 901 -261 850 -282 876 -272 l 917 -292 b 774 -347 881 -328 838 -347 b 614 -192 689 -347 614 -303 b 763 11 614 -101 672 -28 l 644 -14 l 633 -14 l 640 113 b 390 -14 575 38 489 -14 b 60 328 176 -14 60 147 b 436 740 60 582 233 740 b 653 668 524 740 611 706 l 733 756 l 753 756 l 746 606 l 746 143 b 833 83 746 96 763 93 l 872 78 m 421 674 b 167 368 269 674 167 564 b 421 69 167 206 251 69 b 640 172 510 69 590 113 l 640 467 b 421 674 640 604 558 674 "},"̒":{"ha":0,"x_min":0,"x_max":0,"o":"m -390 981 b -329 908 -351 971 -329 946 b -411 831 -329 864 -361 831 b -504 936 -475 831 -504 882 b -336 1100 -504 1014 -468 1096 l -336 1053 b -437 981 -404 1046 -426 1015 "},"I":{"ha":585,"x_min":0,"x_max":0,"o":"m 236 922 b 64 1038 236 1019 168 1033 l 64 1083 l 521 1083 l 521 1038 b 349 922 417 1033 349 1019 l 349 161 b 521 46 349 64 417 50 l 521 0 l 64 0 l 64 46 b 236 161 168 50 236 64 "},"Į":{"ha":585,"x_min":0,"x_max":0,"o":"m 64 0 l 64 46 b 236 161 168 50 236 64 l 236 922 b 64 1038 236 1019 168 1033 l 64 1083 l 521 1083 l 521 1038 b 349 922 417 1033 349 1019 l 349 161 b 521 46 349 64 417 50 l 521 0 b 343 -179 429 -28 343 -82 b 454 -282 343 -243 386 -282 b 544 -261 493 -282 519 -272 l 560 -292 b 417 -347 524 -328 481 -347 b 257 -192 332 -347 257 -303 b 415 0 257 -101 325 -39 "},"":{"ha":679,"x_min":0,"x_max":0,"o":"m 563 597 b 617 554 563 564 574 558 l 642 551 l 642 513 l 471 479 l 451 479 l 457 568 b 278 479 418 517 356 479 b 46 719 132 479 46 586 b 319 1004 46 897 172 1004 b 483 951 383 1004 447 983 l 536 1014 l 567 1014 l 563 907 m 321 951 b 158 751 221 951 158 879 b 321 557 158 660 203 557 b 457 615 378 557 424 581 l 457 810 b 321 951 457 900 394 951 "},"Þ":{"ha":1013,"x_min":0,"x_max":0,"o":"m 349 867 l 565 867 b 971 560 865 867 971 711 b 599 238 971 390 858 238 l 349 238 l 349 161 b 558 46 349 64 436 53 l 558 0 l 64 0 l 64 46 b 236 161 168 50 236 64 l 236 922 b 64 1038 236 1019 168 1033 l 64 1083 l 521 1083 l 521 1038 b 349 922 417 1033 349 1019 m 349 301 l 547 301 b 839 551 754 301 839 375 b 550 806 839 706 758 806 l 349 806 "},"":{"ha":817,"x_min":0,"x_max":0,"o":"m 457 629 b 753 392 697 629 753 501 b 467 157 753 274 669 157 l 329 157 l 329 114 b 497 39 329 47 406 43 l 497 0 l 82 0 l 82 39 b 221 108 149 40 221 50 l 221 665 b 82 735 221 722 149 733 l 82 774 l 468 774 l 468 735 b 329 656 401 733 329 722 l 329 629 m 329 215 l 468 215 b 633 389 594 215 633 274 b 450 572 633 494 589 572 l 329 572 "},"":{"ha":817,"x_min":0,"x_max":0,"o":"m 329 629 l 329 656 b 468 735 329 722 401 733 l 468 774 l 82 774 l 82 735 b 221 665 149 733 221 722 l 221 108 b 82 39 221 50 149 40 l 82 0 l 497 0 l 497 39 b 329 114 406 43 329 47 l 329 157 l 467 157 b 753 392 669 157 753 274 b 457 629 753 501 697 629 m 329 572 l 450 572 b 633 389 589 572 633 494 b 468 215 633 274 594 215 l 329 215 "},"":{"ha":972,"x_min":0,"x_max":0,"o":"m 282 1097 b 496 875 385 1097 496 1036 b 282 651 496 713 385 651 b 68 875 181 651 68 713 b 282 1097 68 1036 181 1097 m 196 0 l 121 0 l 776 1083 l 851 1083 m 282 1047 b 165 875 210 1047 165 1000 b 282 701 165 749 210 701 b 399 875 354 701 399 749 b 282 1047 399 1000 354 1047 m 690 -14 b 476 208 588 -14 476 47 b 690 432 476 371 588 432 b 904 208 792 432 904 371 b 690 -14 904 47 792 -14 m 690 36 b 807 208 763 36 807 83 b 690 382 807 335 763 382 b 574 208 618 382 574 335 b 690 36 574 83 618 36 "},"$":{"ha":882,"x_min":0,"x_max":0,"o":"m 304 -6 b 88 78 217 7 136 36 l 78 338 l 115 338 b 318 65 146 194 215 101 l 401 514 l 326 542 b 92 819 201 588 92 658 b 429 1097 92 979 211 1097 b 508 1092 456 1097 482 1094 l 539 1257 l 600 1257 l 567 1082 b 746 1001 638 1067 700 1038 l 746 769 l 707 769 b 554 1010 679 900 632 975 l 478 601 l 540 579 b 794 282 692 524 794 446 b 414 -14 794 99 642 -14 b 364 -12 397 -14 381 -14 l 335 -174 l 274 -174 m 194 846 b 365 644 194 725 258 685 l 421 624 l 496 1028 b 415 1035 472 1032 444 1035 b 194 846 278 1035 194 956 m 458 493 l 376 51 b 424 49 392 49 407 49 b 689 264 590 49 689 131 b 483 485 689 383 614 438 "},"¢":{"ha":819,"x_min":0,"x_max":0,"o":"m 318 142 b 71 506 157 192 71 340 b 479 925 71 763 238 925 l 490 925 l 528 1092 l 588 1092 l 550 919 b 744 746 678 901 744 829 b 694 660 744 706 725 674 l 636 660 l 636 689 b 532 840 636 768 600 818 l 397 222 b 471 215 421 217 444 215 b 726 351 599 215 661 267 l 764 338 b 443 124 724 224 624 124 b 376 128 419 124 397 125 l 347 -8 l 286 -8 m 172 547 b 340 240 172 406 229 290 l 475 853 b 440 854 464 853 451 854 b 172 547 290 854 172 736 "},"£":{"ha":1067,"x_min":0,"x_max":0,"o":"m 171 583 l 360 583 l 390 740 b 771 1097 442 1003 586 1097 b 979 965 907 1097 979 1043 b 922 876 979 925 956 890 l 850 876 l 850 924 b 736 1035 850 986 821 1035 b 504 715 599 1035 540 896 l 478 583 l 774 583 l 774 525 l 467 525 l 440 393 b 397 218 425 317 407 250 b 747 99 494 151 625 99 b 936 274 861 99 936 131 l 968 274 b 1007 163 982 258 1007 226 b 764 -14 1007 43 913 -14 b 374 154 625 -14 464 78 b 179 -14 336 58 290 -14 b 32 126 78 -14 32 47 b 204 282 32 215 103 282 b 297 264 239 282 272 276 l 347 525 l 171 525 m 176 51 b 283 203 231 51 263 103 b 206 218 253 214 238 218 b 104 125 140 218 104 179 b 176 51 104 78 133 51 "},"ƒ":{"ha":719,"x_min":0,"x_max":0,"o":"m 156 -300 l 235 549 l 78 549 l 83 601 l 240 601 l 261 825 b 538 1097 278 999 361 1097 b 706 989 647 1097 706 1056 b 661 914 706 951 679 922 l 575 914 b 579 953 578 926 579 943 b 500 1033 579 1004 553 1033 b 372 828 417 1033 383 949 l 351 601 l 574 601 l 568 549 l 344 549 l 268 -300 "},"¥":{"ha":967,"x_min":0,"x_max":0,"o":"m 117 575 l 357 575 l 111 981 b 14 1038 88 1019 58 1031 l 14 1083 l 403 1083 l 403 1038 b 254 975 286 1033 254 1017 b 274 918 254 957 263 936 l 508 521 l 735 911 b 758 976 751 936 758 956 b 611 1038 758 1018 731 1033 l 611 1083 l 953 1083 l 953 1038 b 856 981 908 1031 879 1021 l 613 575 l 856 575 l 856 518 l 578 518 l 542 457 l 542 429 l 856 429 l 856 374 l 542 374 l 542 161 b 708 46 542 64 604 50 l 708 0 l 265 0 l 265 46 b 432 161 369 50 432 64 l 432 374 l 117 374 l 117 429 l 432 429 l 432 451 l 392 518 l 117 518 "}}}
